<svg width="282" height="282" viewBox="0 0 282 282" fill="none" xmlns="http://www.w3.org/2000/svg">
<path d="M256.62 71.5321C241.634 42.9373 213.192 23.124 182.572 15.6171C153.34 8.45998 118.147 8.80966 96.1451 32.3905C81.6559 47.9174 75.8411 69.5355 63.0665 86.3033C56.7102 94.6392 48.7578 98.4518 40.4275 104.284C20.1348 118.502 5.20572 141.383 8.46 167.26C13.9308 210.524 53.3995 233.761 93.06 236.372C145.478 239.818 182.86 232.814 214.613 212.521C231.11 201.98 247.556 189.47 257.624 172.161C272.852 145.986 272.226 112.969 262.378 84.8651C260.782 80.2881 258.857 75.8322 256.62 71.5321Z" fill="#0076AB"/>
<path opacity="0.8" d="M256.62 71.5321C241.634 42.9373 213.192 23.124 182.572 15.6171C153.34 8.45998 118.147 8.80966 96.1451 32.3905C81.6559 47.9174 75.8411 69.5355 63.0665 86.3033C56.7102 94.6392 48.7578 98.4518 40.4275 104.284C20.1348 118.502 5.20572 141.383 8.46 167.26C13.9308 210.524 53.3995 233.761 93.06 236.372C145.478 239.818 182.86 232.814 214.613 212.521C231.11 201.98 247.556 189.47 257.624 172.161C272.852 145.986 272.226 112.969 262.378 84.8651C260.782 80.2881 258.857 75.8322 256.62 71.5321Z" fill="white"/>
<path d="M265.277 254.928H270.156" stroke="#263238" stroke-linecap="round" stroke-linejoin="round"/>
<path d="M100.781 254.928H260.077" stroke="#263238" stroke-linecap="round" stroke-linejoin="round"/>
<path d="M14.664 254.928H96.6978" stroke="#263238" stroke-linecap="round" stroke-linejoin="round"/>
<path d="M10.936 28.4144C14.4116 30.3495 18.0501 31.9763 21.8099 33.276C25.5566 34.6231 29.3706 35.7752 33.2365 36.7277C35.1598 37.2522 37.1168 37.6301 39.0514 38.087L41.9842 38.651C42.9599 38.8427 43.9356 39.0401 44.9226 39.215C46.8853 39.5308 48.8424 39.8861 50.822 40.123L53.783 40.5178C54.77 40.6532 55.7627 40.7321 56.7497 40.8449C64.6719 41.6672 72.6308 42.087 80.5956 42.1026C88.5593 42.1026 96.5173 41.7304 104.458 41.1269C120.339 39.7508 136.121 37.4058 151.716 34.1051C155.602 33.2309 159.499 32.4131 163.374 31.4882C167.249 30.5632 171.112 29.5988 174.964 28.5892C178.816 27.5796 182.629 26.508 186.458 25.4252L192.189 23.7332L195.054 22.8815L196.498 22.4529L197.22 22.2386L197.58 22.1314L197.761 22.075C197.817 22.075 197.885 22.0186 197.936 22.075C200.807 23.5696 203.7 24.895 206.644 26.1527C209.588 27.4104 212.56 28.5723 215.566 29.6552C221.575 31.8369 227.712 33.6488 233.942 35.0808C240.17 36.5259 246.503 37.4819 252.881 37.9403C256.067 38.1828 259.265 38.2054 262.469 38.1434C265.662 38.041 268.848 37.7662 272.012 37.3199" stroke="#263238" stroke-linecap="round" stroke-linejoin="round"/>
<path d="M26.8746 34.8383L25.3462 34.3476L25.4082 31.6122C26.4065 31.928 27.3935 32.2608 28.3974 32.5597L26.8746 34.8383Z" fill="#263238"/>
<path d="M29.3562 31.2061C28.8373 32.9602 27.9236 32.6218 26.79 32.2495C25.6564 31.8773 24.7032 31.6855 25.2954 29.9315C25.7071 28.7189 27.3089 27.2299 28.1774 26.4573C28.2419 26.4017 28.3195 26.3637 28.4028 26.3468C28.4862 26.3298 28.5725 26.3346 28.6535 26.3607C28.7345 26.3867 28.8074 26.4332 28.8653 26.4955C28.9231 26.5578 28.964 26.634 28.984 26.7167C29.249 27.8616 29.7172 29.971 29.3562 31.2061Z" fill="#0076AB"/>
<path d="M27.6022 29.8525C27.5507 30.0806 27.4123 30.2795 27.2164 30.407C27.0204 30.5345 26.7824 30.5804 26.5531 30.535C26.3473 30.441 26.1856 30.2714 26.1016 30.0613C26.0176 29.8513 26.0177 29.6169 26.1019 29.407C26.1546 29.1797 26.2933 28.9816 26.4889 28.8544C26.6845 28.7271 26.9218 28.6806 27.151 28.7245C27.354 28.8216 27.5131 28.9915 27.5967 29.2005C27.6803 29.4094 27.6822 29.6422 27.6022 29.8525Z" fill="white"/>
<path d="M43.992 39.3221L45.5825 39.5815L45.9604 42.3C44.8831 42.1139 43.8059 41.9616 42.7343 41.736L43.992 39.3221Z" fill="#263238"/>
<path d="M41.9052 43.1855C42.2436 41.3863 43.208 41.674 44.4319 41.8657C45.6558 42.0575 46.6879 42.1477 46.3721 43.9525C46.1747 45.2272 44.7421 46.9135 43.9018 47.7934C43.8335 47.8571 43.7516 47.9044 43.6622 47.9314C43.5728 47.9584 43.4784 47.9646 43.3863 47.9493C43.2941 47.934 43.2067 47.8978 43.1309 47.8434C43.055 47.789 42.9926 47.7178 42.9486 47.6355C42.4466 46.5526 41.6683 44.4489 41.9052 43.1855Z" fill="#0076AB"/>
<path d="M43.9525 44.3473C43.9796 44.1089 44.0982 43.8903 44.2834 43.7377C44.4687 43.5851 44.7059 43.5105 44.9452 43.5295C45.1435 43.5356 45.3353 43.602 45.495 43.7198C45.6546 43.8377 45.7745 44.0015 45.8387 44.1893C45.9029 44.377 45.9083 44.5799 45.8542 44.7709C45.8001 44.9618 45.689 45.1317 45.5359 45.2579C45.3827 45.3841 45.1947 45.4605 44.9969 45.4771C44.7992 45.4937 44.6011 45.4496 44.429 45.3506C44.257 45.2517 44.1192 45.1027 44.0341 44.9234C43.9489 44.7442 43.9205 44.5432 43.9525 44.3473Z" fill="white"/>
<path d="M68.6501 41.6288L67.0427 41.5555L66.4054 38.8934L69.575 39.0457L68.6501 41.6288Z" fill="#263238"/>
<path d="M70.1842 37.5116C70.1052 39.339 69.1295 39.2036 67.9282 39.1529C66.7268 39.1021 65.7455 39.1134 65.8639 37.286C65.9485 36.0001 67.1386 34.1897 67.8154 33.2083C67.8662 33.137 67.934 33.0796 68.0128 33.0412C68.0915 33.0029 68.1785 32.9848 68.266 32.9887C68.3535 32.9927 68.4386 33.0184 68.5136 33.0637C68.5885 33.1089 68.651 33.1722 68.6952 33.2478C69.2592 34.2743 70.2406 36.2201 70.1842 37.5116Z" fill="#0076AB"/>
<path d="M68.1143 36.66C68.119 36.8967 68.0317 37.126 67.8707 37.2996C67.7098 37.4732 67.4877 37.5775 67.2514 37.5906C67.1361 37.5734 67.0254 37.5336 66.9255 37.4735C66.8257 37.4134 66.7387 37.3342 66.6695 37.2404C66.6004 37.1466 66.5504 37.0401 66.5225 36.9269C66.4946 36.8138 66.4893 36.6963 66.5069 36.5811C66.5036 36.3468 66.591 36.1204 66.7507 35.9491C66.9105 35.7778 67.1303 35.6748 67.3642 35.6617C67.5957 35.6953 67.8046 35.8191 67.9451 36.0062C68.0857 36.1932 68.1465 36.4283 68.1143 36.66Z" fill="white"/>
<path d="M86.3428 42.3C86.8786 42.3 87.4144 42.3 87.9558 42.3L88.83 44.8944C87.7471 44.9451 86.6642 44.9451 85.5814 44.9564L86.3428 42.3Z" fill="#263238"/>
<path d="M85.0512 46.4962C85.0512 44.6688 86.0269 44.7421 87.2621 44.7308C88.4972 44.7196 89.4842 44.5673 89.5181 46.4228C89.5632 47.7144 88.486 49.6546 87.8261 50.681C87.775 50.7602 87.7048 50.8253 87.622 50.8703C87.5393 50.9154 87.4466 50.939 87.3523 50.939C87.2581 50.939 87.1654 50.9154 87.0826 50.8703C86.9998 50.8253 86.9297 50.7602 86.8786 50.681C86.23 49.6771 85.0681 47.7877 85.0512 46.4962Z" fill="#0076AB"/>
<path d="M87.2621 47.2575C87.2368 47.0153 87.3088 46.7728 87.4621 46.5836C87.6154 46.3943 87.8376 46.2736 88.0799 46.248C88.1977 46.2531 88.3133 46.2813 88.4202 46.3311C88.5271 46.3809 88.6231 46.4514 88.7027 46.5383C88.7823 46.6253 88.844 46.7271 88.8843 46.8379C88.9245 46.9488 88.9425 47.0664 88.9372 47.1842C88.9578 47.4229 88.8845 47.6602 88.7328 47.8456C88.5811 48.031 88.363 48.1498 88.125 48.1769C87.8896 48.1666 87.6676 48.0647 87.5064 47.8929C87.3451 47.7211 87.2575 47.4931 87.2621 47.2575Z" fill="white"/>
<path d="M111.035 40.3768L109.433 40.5234L108.39 37.9854L111.565 37.6921L111.035 40.3768Z" fill="#263238"/>
<path d="M111.943 36.096C112.134 37.9121 111.147 37.9234 109.941 38.0305C108.734 38.1377 107.763 38.3125 107.6 36.4964C107.481 35.2105 108.384 33.2196 108.914 32.1649C108.96 32.092 109.023 32.0306 109.097 31.9857C109.171 31.9408 109.254 31.9135 109.34 31.9058C109.426 31.8982 109.513 31.9105 109.594 31.9417C109.674 31.9729 109.747 32.0223 109.805 32.086C110.544 33.0166 111.802 34.8044 111.943 36.096Z" fill="#0076AB"/>
<path d="M109.743 35.532C109.764 35.6468 109.762 35.7647 109.738 35.8789C109.713 35.993 109.666 36.1012 109.6 36.1971C109.533 36.293 109.448 36.3748 109.35 36.4378C109.252 36.5008 109.142 36.5437 109.027 36.5641C108.834 36.6165 108.629 36.6082 108.441 36.5403C108.253 36.4725 108.09 36.3484 107.974 36.1849C107.859 36.0213 107.797 35.8263 107.796 35.6262C107.795 35.426 107.856 35.2305 107.97 35.0661C108.084 34.9017 108.246 34.7763 108.434 34.707C108.621 34.6377 108.826 34.6278 109.02 34.6787C109.213 34.7296 109.386 34.8387 109.516 34.9914C109.645 35.144 109.725 35.3327 109.743 35.532Z" fill="white"/>
<path d="M128.648 38.5325L130.245 38.3013L131.446 40.7772L128.242 41.2453L128.648 38.5325Z" fill="#263238"/>
<path d="M127.926 42.864C127.661 41.0592 128.654 40.9915 129.872 40.8167C131.091 40.6419 132.061 40.4106 132.348 42.2098C132.551 43.49 131.745 45.5374 131.22 46.6203C131.18 46.7034 131.12 46.7755 131.046 46.8301C130.972 46.8848 130.885 46.9203 130.794 46.9337C130.702 46.947 130.609 46.9378 130.522 46.9067C130.435 46.8757 130.357 46.8238 130.295 46.7556C129.5 45.8645 128.113 44.1443 127.926 42.864Z" fill="#0076AB"/>
<path d="M130.205 43.3265C130.153 43.0946 130.195 42.8516 130.322 42.6506C130.449 42.4497 130.65 42.3074 130.882 42.2549C131.121 42.2393 131.356 42.3179 131.537 42.474C131.719 42.6301 131.832 42.8511 131.852 43.0896C131.879 43.2044 131.882 43.3234 131.862 43.4396C131.843 43.5559 131.8 43.667 131.737 43.7667C131.674 43.8664 131.592 43.9526 131.496 44.0203C131.399 44.088 131.29 44.1359 131.175 44.1612C130.936 44.1783 130.7 44.1002 130.518 43.9438C130.336 43.7874 130.224 43.5655 130.205 43.3265Z" fill="white"/>
<path d="M152.94 33.6934L151.372 34.0374L150.052 31.6235C151.096 31.4317 152.133 31.1836 153.177 30.9523L152.94 33.6934Z" fill="#263238"/>
<path d="M153.374 29.328C153.758 31.1103 152.782 31.2456 151.598 31.5107C150.413 31.7758 149.46 32.024 149.093 30.2361C148.834 28.9727 149.516 26.9085 149.934 25.7974C149.97 25.7191 150.025 25.6502 150.092 25.5962C150.16 25.5422 150.239 25.5045 150.324 25.4859C150.408 25.4674 150.496 25.4686 150.58 25.4893C150.664 25.5101 150.742 25.5499 150.808 25.6056C151.637 26.4291 153.098 28.0478 153.374 29.328Z" fill="#0076AB"/>
<path d="M151.152 29.0122C151.188 29.1254 151.202 29.2449 151.191 29.3634C151.181 29.4819 151.147 29.5971 151.091 29.7023C151.035 29.8074 150.959 29.9003 150.867 29.9755C150.775 30.0507 150.668 30.1067 150.554 30.1402C150.433 30.1567 150.31 30.1485 150.193 30.1162C150.075 30.0839 149.966 30.0281 149.87 29.9522C149.775 29.8763 149.696 29.7819 149.638 29.6746C149.58 29.5673 149.544 29.4494 149.533 29.328C149.49 29.2164 149.471 29.0966 149.479 28.9771C149.487 28.8576 149.52 28.7411 149.578 28.636C149.635 28.5308 149.715 28.4394 149.811 28.3681C149.907 28.2968 150.018 28.2474 150.135 28.2232C150.252 28.1991 150.373 28.2009 150.49 28.2284C150.607 28.2559 150.716 28.3085 150.81 28.3825C150.904 28.4566 150.981 28.5503 151.035 28.6571C151.089 28.7638 151.12 28.8812 151.124 29.0009L151.152 29.0122Z" fill="white"/>
<path d="M170.272 30.0499L171.834 29.6608L173.266 32.0126L170.131 32.7853L170.272 30.0499Z" fill="#263238"/>
<path d="M169.973 34.4379C169.533 32.6613 170.537 32.5033 171.71 32.1819C172.883 31.8604 173.842 31.5727 174.304 33.3099C174.626 34.5619 174.017 36.6657 173.622 37.8219C173.59 37.9077 173.537 37.9845 173.469 38.0455C173.401 38.1066 173.319 38.1501 173.23 38.1723C173.141 38.1945 173.048 38.1947 172.959 38.173C172.87 38.1512 172.788 38.1082 172.719 38.0475C171.834 37.2635 170.289 35.6899 169.973 34.4379Z" fill="#0076AB"/>
<path d="M172.279 34.6691C172.206 34.4447 172.224 34.2004 172.33 33.9892C172.435 33.778 172.62 33.617 172.843 33.5411C173.079 33.5017 173.32 33.5565 173.515 33.6937C173.711 33.8309 173.844 34.0395 173.887 34.2743C173.924 34.3854 173.939 34.5027 173.931 34.6196C173.922 34.7364 173.891 34.8505 173.839 34.9552C173.786 35.06 173.714 35.1534 173.625 35.2301C173.537 35.3068 173.434 35.3653 173.323 35.4023C173.088 35.4402 172.847 35.3848 172.652 35.2478C172.457 35.1109 172.323 34.9032 172.279 34.6691Z" fill="white"/>
<path d="M194.016 23.0394L192.476 23.5019L190.953 21.2121L194.129 20.2702C194.024 21.1894 193.987 22.1149 194.016 23.0394Z" fill="#263238"/>
<path d="M194.541 18.5218C194.643 18.8371 194.647 19.1759 194.554 19.4939C194.46 19.8119 194.273 20.0942 194.016 20.304C193.804 20.4635 193.57 20.5926 193.322 20.6875C193.074 20.7834 192.798 20.8624 192.504 20.947C191.343 21.2967 190.418 21.652 189.904 19.9036C189.538 18.6628 190.045 16.5196 190.367 15.3916C190.397 15.3096 190.446 15.2358 190.51 15.1759C190.573 15.1161 190.65 15.0718 190.734 15.0466C190.817 15.0215 190.906 15.0161 190.992 15.031C191.078 15.0458 191.159 15.0804 191.23 15.1321C191.455 15.3295 191.726 15.5664 192.008 15.8371L192.437 16.2658C192.606 16.4011 192.86 16.5252 193.046 16.6662C193.76 17.074 194.294 17.7368 194.541 18.5218Z" fill="#0076AB"/>
<path d="M191.828 18.5161C191.847 18.6732 191.821 18.8327 191.753 18.9756C191.685 19.1184 191.577 19.2388 191.443 19.3224C191.308 19.406 191.153 19.4494 190.994 19.4474C190.836 19.4454 190.682 19.3981 190.549 19.311C190.417 19.224 190.312 19.101 190.248 18.9564C190.183 18.8118 190.162 18.6518 190.185 18.4952C190.209 18.3386 190.276 18.192 190.381 18.0728C190.485 17.9536 190.621 17.8667 190.773 17.8224C191.005 17.7772 191.245 17.8245 191.442 17.9541C191.639 18.0838 191.777 18.2855 191.828 18.5161Z" fill="white"/>
<path d="M210.338 27.9462L211.833 28.5384L211.652 31.2738C210.631 30.8959 209.622 30.4842 208.607 30.0838L210.338 27.9462Z" fill="#263238"/>
<path d="M207.507 31.319C208.195 29.627 209.092 30.0838 210.248 30.535C211.404 30.9862 212.369 31.2569 211.726 32.9715C211.274 34.1841 209.526 35.5546 208.528 36.2427C208.448 36.2903 208.358 36.3189 208.265 36.3263C208.172 36.3337 208.079 36.3197 207.992 36.2854C207.905 36.2511 207.828 36.1974 207.765 36.1284C207.703 36.0593 207.657 35.9769 207.631 35.8874C207.36 34.7086 206.988 32.5146 207.507 31.319Z" fill="#0076AB"/>
<path d="M209.278 32.87C209.357 32.7269 209.475 32.6097 209.619 32.5321C209.763 32.4546 209.926 32.4202 210.089 32.4329C210.252 32.4456 210.408 32.5049 210.538 32.6037C210.668 32.7025 210.767 32.8367 210.823 32.9903C210.879 33.1438 210.89 33.3103 210.854 33.4697C210.818 33.6291 210.737 33.7748 210.62 33.8893C210.504 34.0039 210.357 34.0825 210.197 34.1158C210.037 34.149 209.87 34.1355 209.718 34.0769C209.61 34.0266 209.512 33.9554 209.432 33.8675C209.351 33.7796 209.289 33.6767 209.248 33.5646C209.207 33.4525 209.188 33.3335 209.194 33.2143C209.199 33.0951 209.227 32.9781 209.278 32.87Z" fill="white"/>
<path d="M234.06 34.968C233.535 34.8439 233.011 34.7368 232.492 34.607L232.368 31.8604C233.383 32.1198 234.41 32.3454 235.436 32.571L234.06 34.968Z" fill="#263238"/>
<path d="M236.271 31.1666C235.887 32.9489 234.957 32.6556 233.784 32.3961C232.611 32.1367 231.657 31.9562 232.092 30.1853C232.407 28.9388 233.885 27.3653 234.703 26.5136C234.764 26.4538 234.84 26.4103 234.922 26.3871C235.005 26.3639 235.092 26.3618 235.175 26.3808C235.259 26.3999 235.336 26.4396 235.401 26.4963C235.465 26.553 235.514 26.6249 235.543 26.7054C235.921 27.8165 236.542 29.892 236.271 31.1666Z" fill="#0076AB"/>
<path d="M234.41 29.9484C234.394 30.0634 234.355 30.1741 234.296 30.2741C234.238 30.3741 234.16 30.4615 234.067 30.5312C233.974 30.601 233.868 30.6516 233.756 30.6804C233.643 30.7091 233.526 30.7152 233.411 30.6985C233.205 30.6037 233.037 30.4399 232.938 30.2353C232.838 30.0306 232.813 29.7978 232.866 29.5766C232.92 29.3554 233.048 29.1596 233.23 29.0227C233.412 28.8858 233.635 28.8163 233.863 28.826C234.081 28.9065 234.26 29.0682 234.362 29.2773C234.464 29.4865 234.481 29.7269 234.41 29.9484Z" fill="white"/>
<path d="M251.488 38.0926C252.052 38.149 252.559 38.1715 253.095 38.2054L253.744 40.8788C252.644 40.8167 251.55 40.749 250.455 40.6362L251.488 38.0926Z" fill="#263238"/>
<path d="M249.75 42.1365C249.925 40.3147 250.924 40.5009 252.17 40.5967C253.416 40.6926 254.426 40.6531 254.341 42.4749C254.279 43.7664 253.005 45.5938 252.232 46.5469C252.168 46.6176 252.089 46.6729 252 46.7087C251.912 46.7446 251.816 46.7601 251.721 46.7542C251.626 46.7482 251.533 46.7209 251.45 46.6743C251.366 46.6277 251.294 46.563 251.239 46.4849C250.619 45.4189 249.626 43.428 249.75 42.1365Z" fill="#0076AB"/>
<path d="M251.927 43.1122C251.935 42.8707 252.035 42.6414 252.207 42.4722C252.38 42.303 252.611 42.2069 252.852 42.2041C253.049 42.1954 253.243 42.2464 253.409 42.3503C253.576 42.4542 253.707 42.6063 253.785 42.7863C253.864 42.9663 253.885 43.1658 253.848 43.3585C253.81 43.5512 253.715 43.728 253.575 43.8655C253.435 44.003 253.257 44.0948 253.063 44.1288C252.87 44.1627 252.671 44.1371 252.492 44.0555C252.314 43.9739 252.164 43.84 252.063 43.6716C251.963 43.5032 251.915 43.3081 251.927 43.1122Z" fill="white"/>
<path opacity="0.2" d="M250.794 99.264H222.402V110.758H250.794V99.264Z" fill="black"/>
<path opacity="0.2" d="M267.432 144.841H239.04V156.335H267.432V144.841Z" fill="black"/>
<path opacity="0.2" d="M218.928 99.264H190.536V110.758H218.928V99.264Z" fill="black"/>
<path opacity="0.2" d="M218.928 130.284H190.536V141.778H218.928V130.284Z" fill="black"/>
<path opacity="0.2" d="M87.8543 130.848H59.4625V142.342H87.8543V130.848Z" fill="black"/>
<path opacity="0.1" d="M267.697 115.146H239.305V126.641H267.697V115.146Z" fill="black"/>
<path opacity="0.1" d="M252.204 130.177H223.812V141.671H252.204V130.177Z" fill="black"/>
<path opacity="0.2" d="M185.979 99.264H157.587V110.758H185.979V99.264Z" fill="black"/>
<path opacity="0.1" d="M170.43 115.146H142.038V126.641H170.43V115.146Z" fill="black"/>
<path opacity="0.1" d="M202.882 115.146H174.49V126.641H202.882V115.146Z" fill="black"/>
<path opacity="0.2" d="M121.164 99.264H92.7724V110.758H121.164V99.264Z" fill="black"/>
<path opacity="0.1" d="M105.615 115.146H77.2229V126.641H105.615V115.146Z" fill="black"/>
<path opacity="0.1" d="M138.067 115.146H109.675V126.641H138.067V115.146Z" fill="black"/>
<path opacity="0.2" d="M56.3493 99.264H27.9575V110.758H56.3493V99.264Z" fill="black"/>
<path opacity="0.2" d="M54.8039 141.457H26.4121V152.951H54.8039V141.457Z" fill="black"/>
<path opacity="0.1" d="M40.7998 115.146H12.408V126.641H40.7998V115.146Z" fill="black"/>
<path opacity="0.1" d="M73.2523 115.146H44.8606V126.641H73.2523V115.146Z" fill="black"/>
<path opacity="0.2" d="M250.794 34.404H222.402V45.8983H250.794V34.404Z" fill="black"/>
<path opacity="0.2" d="M267.432 79.9808H239.04V91.4751H267.432V79.9808Z" fill="black"/>
<path opacity="0.2" d="M218.928 34.404H190.536V45.8983H218.928V34.404Z" fill="black"/>
<path opacity="0.2" d="M218.928 65.424H190.536V76.9183H218.928V65.424Z" fill="black"/>
<path opacity="0.2" d="M87.8543 65.988H59.4625V77.4823H87.8543V65.988Z" fill="black"/>
<path opacity="0.1" d="M235.244 50.2862H206.853V61.7805H235.244V50.2862Z" fill="black"/>
<path opacity="0.1" d="M267.697 50.2862H239.305V61.7805H267.697V50.2862Z" fill="black"/>
<path opacity="0.1" d="M252.204 65.3168H223.812V76.8111H252.204V65.3168Z" fill="black"/>
<path opacity="0.2" d="M185.979 34.404H157.587V45.8983H185.979V34.404Z" fill="black"/>
<path opacity="0.1" d="M170.43 50.2862H142.038V61.7805H170.43V50.2862Z" fill="black"/>
<path opacity="0.1" d="M202.882 50.2862H174.49V61.7805H202.882V50.2862Z" fill="black"/>
<path opacity="0.2" d="M136.956 21.996H108.564V33.4903H136.956V21.996Z" fill="black"/>
<path opacity="0.1" d="M105.615 50.2862H77.2229V61.7805H105.615V50.2862Z" fill="black"/>
<path opacity="0.2" d="M121.164 66.3489H92.7724V77.8433H121.164V66.3489Z" fill="black"/>
<path opacity="0.1" d="M138.067 82.2368H109.675V93.7311H138.067V82.2368Z" fill="black"/>
<path opacity="0.2" d="M54.8039 76.5968H26.4121V88.0911H54.8039V76.5968Z" fill="black"/>
<path opacity="0.2" d="M218.928 157.92H190.536V169.414H218.928V157.92Z" fill="black"/>
<path opacity="0.2" d="M218.928 188.94H190.536V200.434H218.928V188.94Z" fill="black"/>
<path opacity="0.2" d="M87.8543 189.504H59.4625V200.998H87.8543V189.504Z" fill="black"/>
<path opacity="0.1" d="M267.697 173.808H239.305V185.302H267.697V173.808Z" fill="black"/>
<path opacity="0.1" d="M252.204 188.833H223.812V200.327H252.204V188.833Z" fill="black"/>
<path opacity="0.2" d="M185.979 157.92H157.587V169.414H185.979V157.92Z" fill="black"/>
<path opacity="0.1" d="M170.43 173.808H142.038V185.302H170.43V173.808Z" fill="black"/>
<path opacity="0.1" d="M202.882 173.808H174.49V185.302H202.882V173.808Z" fill="black"/>
<path opacity="0.1" d="M189.346 206.52H160.954V218.014H189.346V206.52Z" fill="black"/>
<path opacity="0.1" d="M229.954 221.748H201.562V233.242H229.954V221.748Z" fill="black"/>
<path opacity="0.1" d="M122.794 221.748H94.4023V233.242H122.794V221.748Z" fill="black"/>
<path opacity="0.1" d="M41.8319 221.748H13.4401V233.242H41.8319V221.748Z" fill="black"/>
<path opacity="0.1" d="M145.05 134.886H116.658V146.381H145.05V134.886Z" fill="black"/>
<path opacity="0.1" d="M177.502 134.886H149.11V146.381H177.502V134.886Z" fill="black"/>
<path opacity="0.2" d="M121.164 157.92H92.7724V169.414H121.164V157.92Z" fill="black"/>
<path opacity="0.1" d="M105.615 173.808H77.2229V185.302H105.615V173.808Z" fill="black"/>
<path opacity="0.1" d="M152.427 190.728H124.035V202.222H152.427V190.728Z" fill="black"/>
<path opacity="0.1" d="M138.067 173.808H109.675V185.302H138.067V173.808Z" fill="black"/>
<path opacity="0.2" d="M56.3493 157.92H27.9575V169.414H56.3493V157.92Z" fill="black"/>
<path opacity="0.2" d="M54.8039 200.113H26.4121V211.607H54.8039V200.113Z" fill="black"/>
<path opacity="0.1" d="M40.7998 173.808H12.408V185.302H40.7998V173.808Z" fill="black"/>
<path opacity="0.1" d="M73.2523 173.808H44.8606V185.302H73.2523V173.808Z" fill="black"/>
<path d="M221.861 120.465L233.039 227.602" stroke="#263238" stroke-width="2" stroke-miterlimit="10"/>
<path d="M231.24 207.095L226.17 201.743" stroke="#263238" stroke-width="2" stroke-miterlimit="10"/>
<path d="M227.709 203.35C227.7 202.53 227.514 201.722 227.166 200.98C226.818 200.237 226.315 199.578 225.69 199.047C224.393 197.885 217.546 195.003 216.892 197.417C216.187 200.04 223.197 205.189 227.709 203.35Z" fill="#0076AB" stroke="#263238" stroke-miterlimit="10"/>
<path d="M227.709 203.35L221.19 199.284" stroke="#263238" stroke-width="0.5" stroke-miterlimit="10"/>
<path d="M232.509 219.283L227.439 213.931" stroke="#263238" stroke-width="2" stroke-miterlimit="10"/>
<path d="M228.984 215.533C228.975 214.714 228.79 213.907 228.443 213.166C228.096 212.424 227.594 211.766 226.971 211.235C225.668 210.073 218.821 207.191 218.172 209.599C217.456 212.228 224.472 217.377 228.984 215.533Z" fill="#0076AB" stroke="#263238" stroke-miterlimit="10"/>
<path d="M228.978 215.533L222.464 211.472" stroke="#263238" stroke-width="0.5" stroke-miterlimit="10"/>
<path d="M228.132 177.367L223.068 172.009" stroke="#263238" stroke-width="2" stroke-miterlimit="10"/>
<path d="M224.607 173.616C224.598 172.796 224.412 171.988 224.064 171.246C223.716 170.503 223.213 169.844 222.588 169.313C221.285 168.151 214.438 165.275 213.79 167.683C213.085 170.328 220.09 175.46 224.607 173.616Z" fill="#0076AB" stroke="#263238" stroke-miterlimit="10"/>
<path d="M224.607 173.616L218.088 169.555" stroke="#263238" stroke-width="0.5" stroke-miterlimit="10"/>
<path d="M229.407 189.549L224.337 184.197" stroke="#263238" stroke-width="2" stroke-miterlimit="10"/>
<path d="M225.876 185.799C225.867 184.98 225.683 184.173 225.335 183.431C224.988 182.69 224.486 182.032 223.863 181.501C222.56 180.339 215.713 177.457 215.064 179.871C214.354 182.494 221.364 187.643 225.876 185.799Z" fill="#0076AB" stroke="#263238" stroke-miterlimit="10"/>
<path d="M225.876 185.799L219.357 181.738" stroke="#263238" stroke-width="0.5" stroke-miterlimit="10"/>
<path d="M226.068 157.57L220.998 152.218" stroke="#263238" stroke-width="2" stroke-miterlimit="10"/>
<path d="M222.543 153.82C222.532 153.001 222.346 152.194 221.998 151.453C221.65 150.711 221.147 150.053 220.524 149.522C219.221 148.36 212.374 145.478 211.726 147.892C211.021 150.515 218.025 155.664 222.543 153.82Z" fill="#0076AB" stroke="#263238" stroke-miterlimit="10"/>
<path d="M222.543 153.82L216.023 149.759" stroke="#263238" stroke-width="0.5" stroke-miterlimit="10"/>
<path d="M223.993 137.689L218.928 132.337" stroke="#263238" stroke-width="2" stroke-miterlimit="10"/>
<path d="M220.468 133.944C220.456 133.125 220.27 132.317 219.922 131.575C219.574 130.833 219.072 130.174 218.448 129.641C217.146 128.479 210.299 125.603 209.65 128.011C208.945 130.634 215.95 135.789 220.468 133.944Z" fill="#0076AB" stroke="#263238" stroke-miterlimit="10"/>
<path d="M220.468 133.944L213.948 129.878" stroke="#263238" stroke-width="0.5" stroke-miterlimit="10"/>
<path d="M230.388 199.887L234.24 193.604" stroke="#263238" stroke-width="2" stroke-miterlimit="10"/>
<path d="M233.067 195.488C232.908 194.685 232.921 193.858 233.108 193.061C233.295 192.264 233.65 191.517 234.15 190.869C235.182 189.459 241.29 185.229 242.424 187.457C243.648 189.876 237.861 196.362 233.067 195.488Z" fill="#0076AB" stroke="#263238" stroke-miterlimit="10"/>
<path d="M233.067 195.488L238.933 189.882" stroke="#263238" stroke-width="0.5" stroke-miterlimit="10"/>
<path d="M227.038 167.824L230.896 161.541" stroke="#263238" stroke-width="2" stroke-miterlimit="10"/>
<path d="M229.717 163.425C229.558 162.622 229.572 161.794 229.76 160.997C229.948 160.2 230.305 159.453 230.806 158.806C231.838 157.396 237.94 153.165 239.074 155.393C240.309 157.813 234.517 164.299 229.717 163.425Z" fill="#0076AB" stroke="#263238" stroke-miterlimit="10"/>
<path d="M229.717 163.425L235.588 157.818" stroke="#263238" stroke-width="0.5" stroke-miterlimit="10"/>
<path d="M225.572 153.735L229.424 147.447" stroke="#263238" stroke-width="2" stroke-miterlimit="10"/>
<path d="M228.245 149.336C228.087 148.532 228.102 147.704 228.29 146.906C228.478 146.109 228.834 145.36 229.334 144.711C230.366 143.307 236.474 139.071 237.608 141.327C238.837 143.719 233.045 150.21 228.245 149.336Z" fill="#0076AB" stroke="#263238" stroke-miterlimit="10"/>
<path d="M228.245 149.336L234.116 143.724" stroke="#263238" stroke-width="0.5" stroke-miterlimit="10"/>
<path d="M223.412 133.076L227.269 126.793" stroke="#263238" stroke-width="2" stroke-miterlimit="10"/>
<path d="M226.091 128.677C225.935 127.877 225.951 127.053 226.139 126.261C226.326 125.468 226.681 124.725 227.179 124.08C228.211 122.67 234.314 118.44 235.447 120.662C236.683 123.065 230.89 129.551 226.091 128.677Z" fill="#0076AB" stroke="#263238" stroke-miterlimit="10"/>
<path d="M226.091 128.677L231.962 123.07" stroke="#263238" stroke-width="0.5" stroke-miterlimit="10"/>
<path d="M221.765 119.867C221.605 119.063 221.62 118.234 221.808 117.437C221.995 116.639 222.352 115.891 222.853 115.242C223.885 113.838 229.988 109.602 231.122 111.83C232.368 114.255 226.564 120.741 221.765 119.867Z" fill="#0076AB" stroke="#263238" stroke-miterlimit="10"/>
<path d="M221.765 119.867L227.636 114.255" stroke="#263238" stroke-width="0.5" stroke-miterlimit="10"/>
<path d="M222.103 120.132C221.288 120.207 220.465 120.106 219.692 119.837C218.919 119.567 218.212 119.135 217.619 118.57C216.333 117.391 212.763 110.877 215.093 109.986C217.631 108.987 223.474 115.428 222.103 120.132Z" fill="#0076AB" stroke="#263238" stroke-miterlimit="10"/>
<path d="M222.103 120.109L217.14 113.685" stroke="#263238" stroke-width="0.5" stroke-miterlimit="10"/>
<path d="M251.352 135.219L240.23 242.362" stroke="#263238" stroke-width="2" stroke-miterlimit="10"/>
<path d="M242.689 221.928L238.831 215.645" stroke="#263238" stroke-width="2" stroke-miterlimit="10"/>
<path d="M240.01 217.529C240.168 216.726 240.153 215.899 239.965 215.102C239.777 214.305 239.422 213.558 238.922 212.91C237.884 211.506 231.776 207.27 230.648 209.526C229.413 211.923 235.188 218.403 240.01 217.529Z" fill="#0076AB" stroke="#263238" stroke-miterlimit="10"/>
<path d="M240.01 217.529L234.466 212.216" stroke="#263238" stroke-width="0.5" stroke-miterlimit="10"/>
<path d="M245.774 192.194L241.917 185.911" stroke="#263238" stroke-width="2" stroke-miterlimit="10"/>
<path d="M243.084 187.812C243.242 187.009 243.227 186.181 243.039 185.385C242.851 184.588 242.495 183.841 241.995 183.193C240.958 181.783 234.85 177.553 233.722 179.809C232.498 182.172 238.296 188.669 243.084 187.812Z" fill="#0076AB" stroke="#263238" stroke-miterlimit="10"/>
<path d="M243.095 187.795L237.551 182.477" stroke="#263238" stroke-width="0.5" stroke-miterlimit="10"/>
<path d="M244.511 204.377L240.653 198.094" stroke="#263238" stroke-width="2" stroke-miterlimit="10"/>
<path d="M241.832 199.983C241.99 199.179 241.973 198.35 241.785 197.552C241.596 196.755 241.239 196.007 240.738 195.358C239.706 193.954 233.598 189.718 232.464 191.974C231.24 194.371 237.032 200.857 241.832 199.983Z" fill="#0076AB" stroke="#263238" stroke-miterlimit="10"/>
<path d="M241.832 199.983L236.288 194.665" stroke="#263238" stroke-width="0.5" stroke-miterlimit="10"/>
<path d="M247.827 172.398L243.969 166.115" stroke="#263238" stroke-width="2" stroke-miterlimit="10"/>
<path d="M245.148 168.004C245.308 167.2 245.293 166.372 245.105 165.574C244.918 164.776 244.561 164.028 244.06 163.38C243.028 161.975 236.919 157.74 235.786 159.996C234.551 162.393 240.349 168.879 245.148 168.004Z" fill="#0076AB" stroke="#263238" stroke-miterlimit="10"/>
<path d="M245.148 168.004L239.604 162.686" stroke="#263238" stroke-width="0.5" stroke-miterlimit="10"/>
<path d="M249.891 152.517L246.034 146.234" stroke="#263238" stroke-width="2" stroke-miterlimit="10"/>
<path d="M247.212 148.123C247.37 147.319 247.355 146.491 247.167 145.693C246.98 144.896 246.624 144.148 246.124 143.499C245.086 142.094 238.978 137.859 237.85 140.115C236.615 142.512 242.413 148.998 247.212 148.123Z" fill="#0076AB" stroke="#263238" stroke-miterlimit="10"/>
<path d="M247.212 148.123L241.668 142.805" stroke="#263238" stroke-width="0.5" stroke-miterlimit="10"/>
<path d="M243.338 214.698L248.408 209.34" stroke="#263238" stroke-width="2" stroke-miterlimit="10"/>
<path d="M246.868 210.936C246.878 210.117 247.062 209.309 247.41 208.567C247.757 207.824 248.259 207.165 248.882 206.633C250.185 205.471 257.026 202.583 257.68 204.997C258.385 207.631 251.38 212.786 246.868 210.936Z" fill="#0076AB" stroke="#263238" stroke-miterlimit="10"/>
<path d="M246.868 210.947L253.766 206.661" stroke="#263238" stroke-width="0.5" stroke-miterlimit="10"/>
<path d="M246.665 182.629L251.736 177.276" stroke="#263238" stroke-width="2" stroke-miterlimit="10"/>
<path d="M250.196 178.878C250.205 178.06 250.39 177.253 250.737 176.511C251.084 175.77 251.586 175.112 252.21 174.581C253.512 173.413 260.354 170.531 261.008 172.939C261.696 175.562 254.708 180.723 250.196 178.878Z" fill="#0076AB" stroke="#263238" stroke-miterlimit="10"/>
<path d="M250.196 178.878L257.094 174.598" stroke="#263238" stroke-width="0.5" stroke-miterlimit="10"/>
<path d="M248.132 168.54L253.197 163.182" stroke="#263238" stroke-width="2" stroke-miterlimit="10"/>
<path d="M251.657 164.79C251.666 163.97 251.851 163.162 252.198 162.42C252.545 161.678 253.047 161.019 253.67 160.486C254.973 159.324 261.82 156.437 262.469 158.851C263.179 161.473 256.169 166.628 251.657 164.79Z" fill="#0076AB" stroke="#263238" stroke-miterlimit="10"/>
<path d="M251.657 164.79L258.555 160.503" stroke="#263238" stroke-width="0.5" stroke-miterlimit="10"/>
<path d="M250.275 147.881L255.34 142.523" stroke="#263238" stroke-width="2" stroke-miterlimit="10"/>
<path d="M253.8 144.13C253.809 143.311 253.994 142.503 254.341 141.761C254.689 141.019 255.19 140.359 255.813 139.827C257.116 138.665 263.963 135.783 264.612 138.191C265.323 140.814 258.312 145.969 253.8 144.13Z" fill="#0076AB" stroke="#263238" stroke-miterlimit="10"/>
<path d="M253.8 144.13L260.698 139.849" stroke="#263238" stroke-width="0.5" stroke-miterlimit="10"/>
<path d="M251.38 134.616C251.39 133.797 251.574 132.99 251.921 132.248C252.269 131.507 252.771 130.849 253.394 130.318C254.697 129.15 261.538 126.268 262.192 128.677C262.903 131.299 255.892 136.488 251.38 134.616Z" fill="#0076AB" stroke="#263238" stroke-miterlimit="10"/>
<path d="M251.38 134.616L258.278 130.335" stroke="#263238" stroke-width="0.5" stroke-miterlimit="10"/>
<path d="M251.662 134.926C250.849 134.829 250.065 134.559 249.364 134.135C248.662 133.711 248.06 133.142 247.596 132.467C246.575 131.051 244.426 123.945 246.891 123.55C249.576 123.121 253.969 130.628 251.662 134.926Z" fill="#0076AB" stroke="#263238" stroke-miterlimit="10"/>
<path d="M251.662 134.926L248.126 127.611" stroke="#263238" stroke-width="0.5" stroke-miterlimit="10"/>
<path d="M238.611 91.588V227.078" stroke="#263238" stroke-width="2" stroke-miterlimit="10"/>
<path d="M238.719 206.706L234.229 200.857" stroke="#263238" stroke-width="2" stroke-miterlimit="10"/>
<path d="M235.594 202.611C235.669 201.796 235.569 200.974 235.301 200.201C235.032 199.428 234.602 198.721 234.037 198.128C232.864 196.836 226.35 193.26 225.453 195.59C224.472 198.128 230.913 203.976 235.594 202.611Z" fill="#0076AB" stroke="#263238" stroke-miterlimit="10"/>
<path d="M235.594 202.611L229.537 197.896" stroke="#263238" stroke-width="0.5" stroke-miterlimit="10"/>
<path d="M238.719 181.247L234.229 175.393" stroke="#263238" stroke-width="2" stroke-miterlimit="10"/>
<path d="M235.594 177.147C235.669 176.332 235.569 175.51 235.301 174.736C235.032 173.963 234.602 173.256 234.037 172.663C232.864 171.371 226.35 167.796 225.453 170.131C224.472 172.663 230.913 178.512 235.594 177.147Z" fill="#0076AB" stroke="#263238" stroke-miterlimit="10"/>
<path d="M235.594 177.147L229.537 172.432" stroke="#263238" stroke-width="0.5" stroke-miterlimit="10"/>
<path d="M238.719 151.349L234.229 145.501" stroke="#263238" stroke-width="2" stroke-miterlimit="10"/>
<path d="M235.594 147.255C235.669 146.44 235.569 145.618 235.301 144.845C235.032 144.071 234.602 143.364 234.037 142.771C232.864 141.479 226.35 137.904 225.453 140.233C224.472 142.771 230.913 148.62 235.594 147.255Z" fill="#0076AB" stroke="#263238" stroke-miterlimit="10"/>
<path d="M235.594 147.255L229.537 142.54" stroke="#263238" stroke-width="0.5" stroke-miterlimit="10"/>
<path d="M238.719 131.451L234.229 125.597" stroke="#263238" stroke-width="2" stroke-miterlimit="10"/>
<path d="M235.594 127.357C235.672 126.537 235.574 125.71 235.305 124.932C235.037 124.154 234.604 123.442 234.037 122.845C232.864 121.553 226.35 117.978 225.453 120.313C224.472 122.867 230.913 128.722 235.594 127.357Z" fill="#0076AB" stroke="#263238" stroke-miterlimit="10"/>
<path d="M235.594 127.357L229.537 122.636" stroke="#263238" stroke-width="0.5" stroke-miterlimit="10"/>
<path d="M238.719 111.463L234.229 105.609" stroke="#263238" stroke-width="2" stroke-miterlimit="10"/>
<path d="M235.594 107.369C235.672 106.549 235.574 105.722 235.305 104.944C235.037 104.165 234.604 103.454 234.037 102.857C232.864 101.565 226.35 97.9894 225.453 100.324C224.472 102.879 230.913 108.734 235.594 107.369Z" fill="#0076AB" stroke="#263238" stroke-miterlimit="10"/>
<path d="M235.594 107.369L229.537 102.648" stroke="#263238" stroke-width="0.5" stroke-miterlimit="10"/>
<path d="M238.617 214.484L243.101 208.629" stroke="#263238" stroke-width="2" stroke-miterlimit="10"/>
<path d="M241.736 210.372C241.658 209.552 241.757 208.725 242.027 207.946C242.296 207.168 242.73 206.456 243.298 205.86C244.471 204.568 250.986 200.993 251.882 203.328C252.852 205.899 246.417 211.754 241.736 210.372Z" fill="#0076AB" stroke="#263238" stroke-miterlimit="10"/>
<path d="M241.736 210.389L248.16 205.414" stroke="#263238" stroke-width="0.5" stroke-miterlimit="10"/>
<path d="M238.617 173.988L243.101 168.134" stroke="#263238" stroke-width="2" stroke-miterlimit="10"/>
<path d="M241.736 169.888C241.657 169.068 241.756 168.24 242.025 167.462C242.295 166.683 242.729 165.972 243.298 165.376C244.471 164.085 250.986 160.509 251.882 162.838C252.852 165.404 246.417 171.253 241.736 169.888Z" fill="#0076AB" stroke="#263238" stroke-miterlimit="10"/>
<path d="M241.736 169.888L248.16 164.919" stroke="#263238" stroke-width="0.5" stroke-miterlimit="10"/>
<path d="M238.617 154L243.101 148.146" stroke="#263238" stroke-width="2" stroke-miterlimit="10"/>
<path d="M241.736 149.9C241.662 149.084 241.762 148.262 242.032 147.489C242.301 146.716 242.733 146.009 243.298 145.416C244.471 144.125 250.986 140.549 251.882 142.884C252.852 145.416 246.417 151.27 241.736 149.9Z" fill="#0076AB" stroke="#263238" stroke-miterlimit="10"/>
<path d="M241.736 149.9L248.16 144.931" stroke="#263238" stroke-width="0.5" stroke-miterlimit="10"/>
<path d="M238.617 127.582L243.101 121.728" stroke="#263238" stroke-width="2" stroke-miterlimit="10"/>
<path d="M241.736 123.482C241.661 122.667 241.762 121.844 242.031 121.071C242.301 120.298 242.733 119.591 243.298 118.998C244.471 117.707 250.986 114.131 251.882 116.466C252.852 119.004 246.417 124.847 241.736 123.482Z" fill="#0076AB" stroke="#263238" stroke-miterlimit="10"/>
<path d="M241.736 123.482L248.16 118.513" stroke="#263238" stroke-width="0.5" stroke-miterlimit="10"/>
<path d="M238.617 106.81L243.101 100.962" stroke="#263238" stroke-width="2" stroke-miterlimit="10"/>
<path d="M241.736 102.716C241.657 101.896 241.756 101.068 242.025 100.289C242.295 99.5108 242.729 98.7994 243.298 98.2037C244.471 96.9121 250.986 93.3364 251.882 95.6657C252.852 98.2319 246.417 104.081 241.736 102.716Z" fill="#0076AB" stroke="#263238" stroke-miterlimit="10"/>
<path d="M241.736 102.716L248.16 97.7469" stroke="#263238" stroke-width="0.5" stroke-miterlimit="10"/>
<path d="M238.346 93.5056C238.269 92.6855 238.368 91.8583 238.637 91.0798C238.907 90.3014 239.34 89.5899 239.909 88.9936C241.082 87.702 247.596 84.1263 248.493 86.4612C249.468 89.0161 243.028 94.8705 238.346 93.5056Z" fill="#0076AB" stroke="#263238" stroke-miterlimit="10"/>
<path d="M238.346 93.5056L244.77 88.5311" stroke="#263238" stroke-width="0.5" stroke-miterlimit="10"/>
<path d="M238.662 93.7819C237.843 93.7707 237.035 93.5842 236.294 93.2349C235.553 92.8857 234.895 92.3818 234.365 91.7572C233.203 90.4543 230.332 83.6017 232.746 82.9588C235.368 82.2538 240.512 89.2699 238.662 93.7819Z" fill="#0076AB" stroke="#263238" stroke-miterlimit="10"/>
<path d="M238.662 93.7819L234.393 86.8729" stroke="#263238" stroke-width="0.5" stroke-miterlimit="10"/>
<path d="M244.184 262.221H229.836L228.042 225.984H245.977L244.184 262.221Z" fill="#263238" stroke="#263238" stroke-miterlimit="10"/>
<path opacity="0.2" d="M180.762 273.54C197.115 273.54 210.372 269.752 210.372 265.08C210.372 260.408 197.115 256.62 180.762 256.62C164.409 256.62 151.152 260.408 151.152 265.08C151.152 269.752 164.409 273.54 180.762 273.54Z" fill="black"/>
<path d="M120.414 100.815C120.414 100.815 118.299 102.366 118.299 103.776C118.299 105.186 119.427 109.557 120.414 110.121C121.74 110.725 123.188 111.015 124.644 110.967C125.49 110.826 127.182 109.557 126.759 109.134L126.336 108.711L124.926 108.429C125.534 108.414 126.123 108.218 126.618 107.865C127.323 107.301 127.605 105.75 127.605 105.75C127.605 105.75 126.618 103.494 125.49 103.212C124.362 102.93 120.414 100.815 120.414 100.815Z" fill="white" stroke="#263238" stroke-linecap="round" stroke-linejoin="round"/>
<path d="M138.744 104.622C138.744 104.622 131.13 98.7 129.579 98.559C127.742 98.3712 125.888 98.4663 124.08 98.841C122.529 99.264 120.414 99.969 120.414 100.815C120.414 101.661 119.991 106.173 119.991 107.442C119.991 108.711 121.824 110.544 122.529 110.544C123.234 110.544 123.516 110.262 123.516 109.416C123.516 108.57 122.247 107.301 122.247 107.301L123.375 105.045L125.631 105.186C125.631 105.186 127.605 108.711 130.143 108.993C131.547 109.17 132.969 109.17 134.373 108.993L137.898 110.826L141.141 107.583L138.744 104.622Z" fill="white" stroke="#263238" stroke-linecap="round" stroke-linejoin="round"/>
<path d="M126.139 102.682L123.713 101.774" stroke="#263238" stroke-linecap="round" stroke-linejoin="round"/>
<path d="M120.696 107.16L120.837 115.479L125.067 115.62V107.019L120.696 107.16Z" fill="#0076AB" stroke="#263238" stroke-linecap="round" stroke-linejoin="round"/>
<path d="M128.592 101.097C128.592 101.097 125.349 102.789 123.093 104.34C120.837 105.891 118.581 105.891 119.286 106.878C119.991 107.865 120.273 108.147 122.106 107.865C123.939 107.583 126.477 106.878 126.477 106.878C128.248 107.186 130.038 107.375 131.835 107.442C133.95 107.442 135.783 105.891 135.783 105.891" fill="white"/>
<path d="M128.592 101.097C128.592 101.097 125.349 102.789 123.093 104.34C120.837 105.891 118.581 105.891 119.286 106.878C119.991 107.865 120.273 108.147 122.106 107.865C123.939 107.583 126.477 106.878 126.477 106.878C128.248 107.186 130.038 107.375 131.835 107.442C133.95 107.442 135.783 105.891 135.783 105.891" stroke="#263238" stroke-linecap="round" stroke-linejoin="round"/>
<path d="M144.525 109.275L141.846 106.173C141.846 106.173 139.731 105.468 137.334 107.865C134.937 110.262 135.078 111.954 135.078 111.954L137.193 114.774C137.193 114.774 141.705 109.275 144.525 109.275Z" fill="#263238" stroke="#263238" stroke-linecap="round" stroke-linejoin="round"/>
<path d="M171.067 256.18C171.067 256.18 165.731 259.694 162.094 262.119C158.456 264.544 161.248 265.875 163.786 266.36C166.324 266.845 172.635 265.757 175.066 265.39C177.496 265.024 184.879 262.965 185.849 261.752C186.819 260.54 186.819 259.333 186.092 258.966C185.364 258.6 175.184 255.695 174.096 255.695C173.073 255.765 172.06 255.927 171.067 256.18Z" fill="white" stroke="#263238" stroke-linecap="round" stroke-linejoin="round"/>
<path d="M160.949 263.309C160.949 263.309 162.816 264.849 168.281 265.176C173.746 265.503 180.897 261.792 180.897 261.792" stroke="#263238" stroke-linecap="round" stroke-linejoin="round"/>
<path d="M160.949 263.309C160.949 263.309 162.816 264.849 168.281 265.176C173.746 265.503 180.897 261.792 180.897 261.792" stroke="#263238" stroke-linecap="round" stroke-linejoin="round"/>
<path d="M184.033 259.209C182.2 260.759 180.259 262.177 178.224 263.45C175.077 265.39 171.078 266.969 171.8 269.028C172.522 271.087 178.709 271.087 182.713 270.72C186.718 270.353 188.528 269.265 191.557 268.295C194.586 267.325 197.017 265.509 197.62 264.054C198.223 262.598 185.731 258.876 184.033 259.209Z" fill="white" stroke="#263238" stroke-linecap="round" stroke-linejoin="round"/>
<path d="M172.02 267.9C172.02 267.9 173.227 269.327 181.129 269.028C185.829 268.846 190.402 267.446 194.4 264.967" stroke="#263238" stroke-linecap="round" stroke-linejoin="round"/>
<path d="M160.176 203.773C160.176 203.773 160.024 213.068 160.796 216.322C161.569 219.576 163.898 220.507 164.513 220.507C165.128 220.507 161.727 202.843 161.727 202.843C161.727 202.843 159.849 203.001 160.176 203.773Z" fill="#0076AB" stroke="#263238" stroke-linecap="round" stroke-linejoin="round"/>
<path d="M161.09 202.07C161.09 202.07 159.234 201.139 159.234 202.38C159.234 203.621 160.007 206.424 160.627 206.424H161.248L161.09 202.07Z" fill="#0076AB" stroke="#263238" stroke-linecap="round" stroke-linejoin="round"/>
<path d="M158.924 162.872C158.924 162.872 156.905 182.86 158.924 193.706C160.943 204.552 164.964 226.237 165.895 228.871C166.826 231.505 171.783 250.867 171.783 250.867C171.783 250.867 170.542 252.559 170.542 253.191C170.542 253.823 170.384 256.135 170.384 256.135C172.473 257.202 174.651 258.083 176.893 258.769C180.147 259.699 182.471 260.162 182.471 260.162C182.471 260.162 186.188 261.403 188.511 262.333C190.835 263.264 196.407 265.43 196.407 265.43C197.801 264.485 199.053 263.345 200.124 262.046C201.523 260.185 200.902 255.227 200.434 253.986C199.966 252.745 199.199 250.89 199.199 248.876C199.199 246.863 199.041 226.102 199.041 225.482C199.041 224.861 200.592 185.043 200.592 182.409V165.506C200.592 165.043 191.608 165.196 182.307 165.196C173.007 165.196 158.619 160.548 158.619 160.548L158.924 162.872Z" fill="#0076AB" stroke="#263238" stroke-linecap="round" stroke-linejoin="round"/>
<path d="M168.529 172.02L173.486 177.598C173.486 177.598 176.741 218.962 177.666 223.147C178.591 227.331 184.642 254.285 184.642 254.285C184.642 254.285 182.781 255.216 183.244 256.767C183.706 258.318 182.471 260.151 182.471 260.151" stroke="#263238" stroke-linecap="round" stroke-linejoin="round"/>
<path d="M186.346 207.028C186.346 207.028 185.877 214.619 186.346 218.183C186.814 221.748 188.201 222.831 189.904 222.831C191.608 222.831 198.274 221.59 199.357 221.28C200.44 220.97 200.75 218.956 200.44 216.012C200.13 213.068 199.047 205.014 199.047 205.014C199.047 205.014 192.234 206.87 186.346 207.028Z" fill="#0076AB" stroke="#263238" stroke-linecap="round" stroke-linejoin="round"/>
<path d="M199.656 202.38C199.656 202.38 196.092 203.621 193.616 203.621C191.14 203.621 185.72 203.931 185.72 203.931V207.648C187.301 207.944 188.913 208.048 190.519 207.958C193.153 207.8 199.662 206.266 199.662 206.266C199.576 204.972 199.574 203.674 199.656 202.38Z" fill="#0076AB" stroke="#263238" stroke-linecap="round" stroke-linejoin="round"/>
<path d="M186.346 170.932C186.346 170.932 186.498 175.731 188.669 178.365C189.259 179.121 190.01 179.737 190.868 180.166C191.725 180.595 192.668 180.828 193.627 180.847" stroke="#263238" stroke-linecap="round" stroke-linejoin="round"/>
<path d="M194.975 200.75L195.02 203.311" stroke="#263238" stroke-linecap="round" stroke-linejoin="round"/>
<path d="M194.467 172.68L194.924 198.116" stroke="#263238" stroke-linecap="round" stroke-linejoin="round"/>
<path d="M194.4 169.07L194.428 170.666" stroke="#263238" stroke-linecap="round" stroke-linejoin="round"/>
<path d="M195.336 251.612C195.68 254.246 196.464 255.735 197.344 255.983C198.426 256.293 198.584 258.617 197.344 259.237L196.103 259.857C196.103 259.857 195.482 259.085 196.571 261.25C197.659 263.416 195.172 264.815 195.172 264.815" stroke="#263238" stroke-linecap="round" stroke-linejoin="round"/>
<path d="M195.172 223.141C195.172 223.141 195.02 245.757 195.172 249.649" stroke="#263238" stroke-linecap="round" stroke-linejoin="round"/>
<path d="M156.29 157.142C156.29 157.142 156.442 161.654 156.753 162.409C157.063 163.165 160.627 167.987 169.764 169.2C178.901 170.413 189.904 169.2 200.288 167.034C200.288 167.034 203.232 165.342 203.672 164.4C204.112 163.458 203.209 159.595 203.209 159.595C203.209 159.595 191.123 162.697 182.138 162.697C173.154 162.697 160.294 157.74 158.45 157.119C156.606 156.499 156.29 157.142 156.29 157.142Z" fill="#263238" stroke="#263238" stroke-linecap="round" stroke-linejoin="round"/>
<path d="M172.02 93.201C169.494 94.4347 167.087 95.8979 164.829 97.572C162.009 99.828 160.176 105.609 158.766 108.852C157.356 112.095 155.946 118.158 155.946 118.158C155.946 118.158 150.024 112.095 147.909 109.698C145.794 107.301 142.128 108.006 138.885 111.249C135.642 114.492 136.347 116.889 137.898 119.85C139.449 122.811 149.46 133.104 152.844 135.924C156.228 138.744 157.356 138.039 157.356 138.039C157.356 138.039 154.818 154.536 155.382 156.792C155.946 159.048 162.573 164.265 171.738 165.534C180.903 166.803 194.862 165.675 198.246 163.983C201.63 162.291 204.027 161.868 204.732 159.894C205.268 158.05 205.646 156.163 205.86 154.254C205.86 154.254 207.411 110.685 206.706 105.045C206.001 99.405 205.578 97.572 203.886 96.303C202.194 95.034 196.272 93.624 190.773 93.483C185.274 93.342 172.02 93.201 172.02 93.201Z" fill="#ABABAB" stroke="#263238" stroke-linecap="round" stroke-linejoin="round"/>
<path d="M189.222 144.384C189.222 144.384 191.196 152.844 192.606 155.664C193.359 157.124 194.019 158.632 194.58 160.176L190.914 161.445C189.427 158.568 188.245 155.544 187.389 152.421C186.799 150.192 186.328 147.933 185.979 145.653L189.222 144.384Z" fill="#263238" stroke="#263238" stroke-linecap="round" stroke-linejoin="round"/>
<path d="M160.458 139.731L161.727 142.833L156.933 151.011L156.792 146.499L160.458 139.731Z" fill="#263238" stroke="#263238" stroke-linecap="round" stroke-linejoin="round"/>
<path d="M176.25 100.815C176.25 100.815 174.558 111.813 171.597 130.989C168.636 150.165 169.764 164.688 169.764 164.688" stroke="#263238" stroke-linecap="round" stroke-linejoin="round"/>
<path d="M186.402 125.355C190.085 125.642 194.027 125.53 196.977 124.362" stroke="#263238" stroke-linecap="round" stroke-linejoin="round"/>
<path d="M175.686 123.516C178.476 124.243 181.312 124.782 184.174 125.129" stroke="#263238" stroke-linecap="round" stroke-linejoin="round"/>
<path d="M163.261 103.832C163.537 102.981 163.825 102.202 164.124 101.52" stroke="#263238" stroke-linecap="round" stroke-linejoin="round"/>
<path d="M157.356 138.039C157.356 138.039 159.415 117.233 162.68 105.739" stroke="#263238" stroke-linecap="round" stroke-linejoin="round"/>
<path d="M165.449 121.717C166.525 122.083 167.644 122.309 168.777 122.388" stroke="#263238" stroke-linecap="round" stroke-linejoin="round"/>
<path d="M160.599 119.145C161.639 119.932 162.764 120.598 163.955 121.13" stroke="#263238" stroke-linecap="round" stroke-linejoin="round"/>
<path d="M158.343 137.193C158.343 137.193 162.714 140.154 167.931 140.295" stroke="#263238" stroke-linecap="round" stroke-linejoin="round"/>
<path d="M176.402 141.801C182.741 143.199 189.279 143.453 195.708 142.551" stroke="#263238" stroke-linecap="round" stroke-linejoin="round"/>
<path d="M173.289 141C173.289 141 173.853 141.186 174.885 141.446" stroke="#263238" stroke-linecap="round" stroke-linejoin="round"/>
<path d="M155.946 118.158C155.946 118.158 155.664 124.503 157.215 128.028" stroke="#263238" stroke-linecap="round" stroke-linejoin="round"/>
<path d="M178.433 152.331C178.012 153.053 177.65 153.807 177.35 154.587L178.433 152.331Z" fill="white"/>
<path d="M178.433 152.331C178.012 153.053 177.65 153.807 177.35 154.587" stroke="#263238" stroke-linecap="round" stroke-linejoin="round"/>
<path d="M185.235 146.995C185.235 146.995 181.721 147.559 179.031 151.411" stroke="#263238" stroke-linecap="round" stroke-linejoin="round"/>
<path d="M175.686 100.533C175.686 100.533 178.224 102.507 185.556 101.661C192.888 100.815 198.81 97.854 201.348 97.572C203.886 97.29 204.732 97.149 204.732 97.149C204.732 97.149 201.771 91.368 198.105 88.971C194.439 86.574 190.491 85.305 188.094 85.305C185.697 85.305 179.07 87.42 174.981 90.522C170.892 93.624 169.2 92.778 171.174 95.598C172.48 97.4136 173.994 99.0699 175.686 100.533Z" fill="#263238" stroke="#263238" stroke-linecap="round" stroke-linejoin="round"/>
<path d="M174.981 88.971C174.981 88.971 175.263 99.405 175.686 100.533C176.109 101.661 187.953 93.342 189.081 91.227C190.209 89.112 192.324 78.114 192.324 78.114C192.324 78.114 187.389 79.101 185.697 80.229C184.005 81.357 181.608 84.6 179.07 85.869C177.529 86.6449 176.143 87.6962 174.981 88.971Z" fill="white" stroke="#263238" stroke-linecap="round" stroke-linejoin="round"/>
<path d="M184.992 84.741L179.516 85.6265C179.369 85.7111 179.217 85.7957 179.07 85.869C177.529 86.6449 176.143 87.6962 174.981 88.971C174.981 88.971 175.02 90.3585 175.088 92.1745C183.3 89.112 184.992 84.741 184.992 84.741Z" fill="#263238" stroke="#263238" stroke-linecap="round" stroke-linejoin="round"/>
<path d="M169.059 67.257C169.059 67.257 168.354 74.73 168.354 77.127C168.354 79.524 167.79 88.125 170.187 89.535C172.584 90.945 178.929 89.535 180.621 88.548C182.313 87.561 184.428 85.728 184.992 84.741C185.354 84.1 185.683 83.4412 185.979 82.767C186.698 82.1166 187.451 81.5047 188.235 80.934C189.081 80.37 191.055 80.793 191.76 78.396C192.465 75.999 193.17 75.153 192.465 72.615C191.76 70.077 189.363 65.847 188.094 64.719C186.825 63.591 179.634 60.489 176.532 61.758C173.43 63.027 169.482 65.142 169.059 67.257Z" fill="white" stroke="#263238" stroke-linecap="round" stroke-linejoin="round"/>
<path d="M172.443 71.487C172.351 72.7158 172.015 73.9141 171.456 75.012C170.61 76.422 168.777 77.127 170.187 77.973C171.29 78.5463 172.482 78.9277 173.712 79.101" stroke="#263238" stroke-linecap="round" stroke-linejoin="round"/>
<path d="M171.738 81.216C171.738 81.216 176.532 82.626 178.788 78.255" stroke="#263238" stroke-linecap="round" stroke-linejoin="round"/>
<path d="M176.182 74.1716C176.612 74.1716 176.961 73.6338 176.961 72.9703C176.961 72.3069 176.612 71.769 176.182 71.769C175.752 71.769 175.404 72.3069 175.404 72.9703C175.404 73.6338 175.752 74.1716 176.182 74.1716Z" fill="#263238"/>
<path d="M170.542 73.1846C170.972 73.1846 171.321 72.6468 171.321 71.9833C171.321 71.3199 170.972 70.782 170.542 70.782C170.112 70.782 169.764 71.3199 169.764 71.9833C169.764 72.6468 170.112 73.1846 170.542 73.1846Z" fill="#263238"/>
<path d="M175.122 69.795C175.771 69.6434 176.444 69.6278 177.099 69.7492C177.754 69.8705 178.377 70.1261 178.929 70.5" stroke="#263238" stroke-linecap="round" stroke-linejoin="round"/>
<path d="M169.623 69.09C169.623 69.09 171.456 67.821 172.584 69.09" stroke="#263238" stroke-linecap="round" stroke-linejoin="round"/>
<path d="M171.879 52.734C171.879 52.734 168.213 53.439 166.38 56.4C165.166 58.4513 164.174 60.6254 163.419 62.886L168.777 61.335C168.777 61.335 167.367 64.86 165.534 65.706C163.701 66.552 162.432 66.975 162.432 66.975C162.432 66.975 165.957 68.526 169.482 68.103C173.007 67.68 178.083 64.296 178.083 64.296L175.968 67.821C175.968 67.821 174.84 68.385 179.634 67.821C184.428 67.257 186.261 66.411 186.261 66.411C186.261 66.411 183.582 71.064 183.3 71.487C182.82 72.0397 182.302 72.558 181.749 73.038L184.569 73.179C184.569 73.179 183.3 73.602 183.3 74.448C183.3 75.294 183.018 77.268 183.018 77.268L185.838 75.999L185.697 76.986C186.346 76.8061 187.005 76.6649 187.671 76.563C188.49 76.4038 189.293 76.1678 190.068 75.858C190.068 75.858 190.35 78.396 189.927 79.383C189.504 80.37 187.107 81.216 187.107 81.216L186.825 84.036C187.814 84.0501 188.803 84.003 189.786 83.895C190.209 83.754 190.914 82.767 190.914 82.767L190.209 84.882C190.209 84.882 190.914 85.023 193.17 84.177C195.426 83.331 197.118 78.819 197.118 78.819C197.118 78.819 200.502 72.192 200.784 67.68C201.066 63.168 198.246 56.823 195.003 54.144C191.76 51.465 179.352 47.376 171.879 52.734Z" fill="#263238" stroke="#263238" stroke-linecap="round" stroke-linejoin="round"/>
<path d="M198.528 105.75C198.528 105.75 194.157 113.223 195.003 116.043C195.849 118.863 203.04 138.462 203.04 138.462C201.235 139.989 199.301 141.358 197.259 142.551C194.439 144.102 189.995 145.777 189.995 147.328C189.995 148.879 191.207 154.829 193.181 155.393C195.155 155.957 199.515 156.087 205.86 154.265C212.205 152.444 221.229 144.818 222.498 140.729C223.767 136.64 221.37 129.731 220.101 127.334C218.832 124.937 212.346 108.581 210.09 104.21C207.834 99.8393 204.168 98.418 202.899 98.7" fill="#ABABAB"/>
<path d="M198.528 105.75C198.528 105.75 194.157 113.223 195.003 116.043C195.849 118.863 203.04 138.462 203.04 138.462C201.235 139.989 199.301 141.358 197.259 142.551C194.439 144.102 189.995 145.777 189.995 147.328C189.995 148.879 191.207 154.829 193.181 155.393C195.155 155.957 199.515 156.087 205.86 154.265C212.205 152.444 221.229 144.818 222.498 140.729C223.767 136.64 221.37 129.731 220.101 127.334C218.832 124.937 212.346 108.581 210.09 104.21C207.834 99.8393 204.168 98.418 202.899 98.7" stroke="#263238" stroke-linecap="round" stroke-linejoin="round"/>
<path d="M214.884 138.919C215.62 138.746 216.336 138.498 217.022 138.18" stroke="#263238" stroke-linecap="round" stroke-linejoin="round"/>
<path d="M203.04 138.462C203.04 138.462 208.263 139.833 213.107 139.235" stroke="#263238" stroke-linecap="round" stroke-linejoin="round"/>
<path d="M208.979 115.056C209.436 114.938 209.904 114.836 210.372 114.757" stroke="#263238" stroke-linecap="round" stroke-linejoin="round"/>
<path d="M197.682 122.388C197.682 122.388 201.901 117.656 207.439 115.569" stroke="#263238" stroke-linecap="round" stroke-linejoin="round"/>
<path d="M216.13 129.235C216.559 129.235 216.988 129.235 217.422 129.297" stroke="#263238" stroke-linecap="round" stroke-linejoin="round"/>
<path d="M202.617 134.232C202.617 134.232 207.428 130.386 213.474 129.444" stroke="#263238" stroke-linecap="round" stroke-linejoin="round"/>
<path opacity="0.2" d="M67.398 273.54C83.7511 273.54 97.008 269.752 97.008 265.08C97.008 260.408 83.7511 256.62 67.398 256.62C51.0448 256.62 37.788 260.408 37.788 265.08C37.788 269.752 51.0448 273.54 67.398 273.54Z" fill="black"/>
<path d="M48.6337 149.037C48.6337 149.037 43.851 156.651 44.0371 163.233C44.2232 169.815 48.7409 202.335 48.7409 202.335C48.7409 202.335 46.2931 213.615 47.235 218.691C48.1769 223.767 55.8811 256.857 55.8811 256.857C55.8811 256.857 55.3171 265.125 56.6369 268.509C57.9566 271.893 62.463 275.277 63.591 273.963C64.719 272.649 66.411 272.271 64.5329 266.253C62.6548 260.235 61.1489 257.043 61.1489 255.165C61.1489 253.287 60.3931 235.989 61.335 232.413C62.2769 228.837 63.2131 205.905 63.2131 202.335V189.549L64.9051 170.001L73.3651 213.993C73.3651 213.993 69.9811 219.441 69.231 223.017C68.4809 226.593 67.1611 243.885 66.411 246.891C65.6609 249.897 64.3411 259.485 63.9689 260.613C63.5966 261.741 64.9051 262.683 66.0331 262.869C67.1611 263.055 74.871 266.067 76.9409 265.881C79.0108 265.695 82.203 265.317 81.075 263.811C79.947 262.305 72.2371 254.601 72.051 254.037C71.8649 253.473 83.1449 225.081 84.459 220.761C85.7731 216.441 86.5289 213.615 87.0929 210.981C87.6569 208.347 87.6569 176.391 86.151 163.233C84.6451 150.075 84.9948 148.524 84.9948 148.524L51.3691 144.429L48.6337 149.037Z" fill="#263238" stroke="#263238" stroke-linecap="round" stroke-linejoin="round"/>
<path d="M65.6045 90.3528C65.6045 90.3528 65.0912 93.1728 64.8374 96.4778C64.5836 99.7829 63.5628 100.048 62.5419 100.556C61.5211 101.063 52.0797 103.618 51.0589 104.255C50.0381 104.893 49.2767 118.164 50.0381 122.388C50.7995 126.612 50.9348 141 50.9348 141C50.9348 141 48.6337 148.524 48.6337 149.037C48.6337 149.55 58.4586 153.498 69.5581 153.374C80.6576 153.25 84.6113 150.182 84.9948 148.524C85.3783 146.866 86.6529 135.896 86.6529 135.512C86.6529 135.129 89.8339 143.408 91.8643 143.623C93.8947 143.837 113.928 137.734 113.928 137.734C113.928 137.734 123.048 138.862 124.723 138.862C126.398 138.862 127.413 136.725 126.951 135.614C126.488 134.503 119.382 130.6 117.092 130.346C114.802 130.092 109.924 133.031 109.924 133.031L97.6171 131.277C97.6171 131.277 90.7307 112.01 88.689 107.803C86.6473 103.596 86.9011 102.828 83.2013 101.424C79.5014 100.02 74.6567 98.6041 74.6567 98.6041L74.4029 93.8834L65.6045 90.3528Z" fill="#ABABAB" stroke="#263238" stroke-linecap="round" stroke-linejoin="round"/>
<path d="M126.398 137.052C126.398 137.052 130.56 135.665 130.639 135.078C130.718 134.491 130.927 130.617 130.605 129.917C130.284 129.218 130.041 129.838 129.444 131.863C128.846 133.888 128.062 134.616 126.285 135.337C124.509 136.059 126.398 137.052 126.398 137.052Z" fill="white" stroke="#263238" stroke-linecap="round" stroke-linejoin="round"/>
<path d="M117.098 130.374C114.813 130.12 109.929 133.059 109.929 133.059L102.518 132.032C100.905 132.952 100.324 135.134 100.77 137.548C101.125 139.46 102.513 140.318 103.945 140.679C109.106 139.206 113.934 137.734 113.934 137.734C113.934 137.734 123.054 138.862 124.729 138.862C126.404 138.862 127.419 136.725 126.956 135.614C126.494 134.503 119.388 130.628 117.098 130.374Z" fill="white" stroke="#263238" stroke-linecap="round" stroke-linejoin="round"/>
<path d="M129.957 112.969H113.787V134.587H129.957V112.969Z" fill="#0076AB" stroke="#263238" stroke-linecap="round" stroke-linejoin="round"/>
<path d="M128.885 119.23H115.846V131.062H128.885V119.23Z" fill="white" stroke="#263238" stroke-linecap="round" stroke-linejoin="round"/>
<path d="M117.594 121.181C118.158 121.181 118.367 121.497 118.367 122.021V122.439C118.367 123.003 118.113 123.268 117.566 123.268H117.222V124.644H116.838V121.192L117.594 121.181ZM117.566 122.924C117.848 122.924 117.989 122.788 117.989 122.461V122.004C117.989 121.689 117.876 121.531 117.594 121.531H117.222V122.952L117.566 122.924Z" fill="#263238"/>
<path d="M118.671 124.644V121.192H119.055V124.289H120.042V124.644H118.671Z" fill="#263238"/>
<path d="M121.559 122.709V123.054H120.696V124.277H121.734V124.644H120.312V121.192H121.734V121.542H120.696V122.721L121.559 122.709Z" fill="#263238"/>
<path d="M122.501 123.933L122.388 124.644H122.033L122.693 121.192H123.257L123.916 124.644H123.516L123.386 123.945L122.501 123.933ZM122.552 123.606H123.319L122.929 121.61L122.552 123.606Z" fill="#263238"/>
<path d="M125.687 122.004V122.1H125.321V121.988C125.321 121.677 125.202 121.491 124.926 121.491C124.65 121.491 124.531 121.677 124.531 121.982C124.531 122.755 125.693 122.828 125.693 123.804C125.693 124.323 125.439 124.667 124.915 124.667C124.39 124.667 124.136 124.323 124.136 123.804V123.606H124.497V123.821C124.497 124.131 124.627 124.317 124.903 124.317C125.18 124.317 125.31 124.131 125.31 123.821C125.31 123.054 124.153 122.98 124.153 122.004C124.153 121.474 124.401 121.142 124.92 121.142C125.439 121.142 125.687 121.486 125.687 122.004Z" fill="#263238"/>
<path d="M127.255 122.709V123.054H126.415V124.277H127.464V124.644H126.048V121.192H127.464V121.542H126.432V122.721L127.255 122.709Z" fill="#263238"/>
<path d="M119.066 128.175V129.72H118.683V126.28H119.066V127.831H119.912V126.28H120.296V129.72H119.912V128.163L119.066 128.175Z" fill="#263238"/>
<path d="M121.92 127.808V128.152H121.079V129.382H122.112V129.72H120.696V126.28H122.112V126.629H121.079V127.808H121.92Z" fill="#263238"/>
<path d="M122.473 129.72V126.28H122.856V129.382H123.843V129.72H122.473Z" fill="#263238"/>
<path d="M124.887 126.28C125.451 126.28 125.665 126.601 125.665 127.12V127.537C125.682 127.648 125.674 127.762 125.64 127.869C125.606 127.976 125.548 128.073 125.469 128.154C125.391 128.234 125.295 128.296 125.189 128.332C125.083 128.369 124.97 128.381 124.858 128.366H124.52V129.72H124.136V126.28H124.887ZM124.858 128.022C125.146 128.022 125.281 127.893 125.281 127.56V127.103C125.281 126.787 125.169 126.629 124.887 126.629H124.52V128.028L124.858 128.022Z" fill="#263238"/>
<path d="M129.957 112.969H113.787V115.789H129.957V112.969Z" fill="white" stroke="#263238" stroke-linecap="round" stroke-linejoin="round"/>
<path d="M125.439 137.915C125.439 137.915 129.602 136.527 129.681 135.941C129.759 135.354 129.974 131.48 129.647 130.775C129.32 130.07 129.054 130.701 128.49 132.72C127.926 134.74 127.103 135.478 125.326 136.2C123.55 136.922 125.439 137.915 125.439 137.915Z" fill="white" stroke="#263238" stroke-linecap="round" stroke-linejoin="round"/>
<path d="M112.8 135.174C112.8 135.174 115.767 133.38 117.808 133.724C119.85 134.068 124.424 136.353 124.424 136.353C124.424 136.353 128.073 131.621 128.412 133.014C128.75 134.407 126.68 137.678 125.225 138.389C123.77 139.099 117.994 138.327 117.994 138.327" fill="white"/>
<path d="M112.8 135.174C112.8 135.174 115.767 133.38 117.808 133.724C119.85 134.068 124.424 136.353 124.424 136.353C124.424 136.353 128.073 131.621 128.412 133.014C128.75 134.407 126.68 137.678 125.225 138.389C123.77 139.099 117.994 138.327 117.994 138.327" stroke="#263238" stroke-linecap="round" stroke-linejoin="round"/>
<path d="M71.064 107.831C77.9561 106.81 74.6398 98.6436 74.6398 98.6436L74.3803 93.9229L65.5819 90.3528C65.5819 90.3528 65.0687 93.1728 64.8149 96.4778C64.5949 99.3711 63.7884 100.708 62.9086 101.345C63.5966 103.59 65.7116 108.626 71.064 107.831Z" fill="white" stroke="#263238" stroke-linecap="round" stroke-linejoin="round"/>
<path d="M83.7202 75.0458C84.4563 77.0475 84.838 79.1622 84.8482 81.295C84.8482 84.741 83.4438 89.332 85.3614 90.7363C87.279 92.1407 88.6777 90.8604 88.6777 90.8604C88.6777 90.8604 88.8018 94.69 84.4646 96.5004C80.1275 98.3108 76.5686 98.1586 73.3708 96.1169C70.1729 94.0752 70.1785 88.5875 70.1785 83.8668C70.1785 79.1461 70.4323 76.0892 70.562 75.7057C70.6918 75.3222 83.19 75.3222 83.19 75.3222L83.7202 75.0458Z" fill="#263238" stroke="#263238" stroke-linecap="round" stroke-linejoin="round"/>
<path d="M81.5488 75.8072C81.5488 75.8072 82.4399 84.6113 82.4399 87.6512C82.4399 90.6912 79.2533 95.0509 75.5535 96.0717C71.8536 97.0926 68.2835 94.5377 65.6045 90.3302C62.9255 86.1228 65.0912 76.9352 65.0912 76.9352C65.0912 76.9352 78.1027 75.0458 81.5488 75.8072Z" fill="white" stroke="#263238" stroke-linecap="round" stroke-linejoin="round"/>
<path d="M78.3622 80.0203C78.3622 80.0203 77.8489 81.4246 78.1027 82.3158C78.3565 83.2069 80.5279 83.9739 79.383 84.9948C78.2381 86.0156 76.3205 86.0156 76.3205 86.0156" stroke="#263238" stroke-linecap="round" stroke-linejoin="round"/>
<path d="M73.258 87.42C73.8807 88.041 74.6771 88.4586 75.542 88.6177C76.4069 88.7768 77.2998 88.6699 78.1027 88.3111" stroke="#263238" stroke-linecap="round" stroke-linejoin="round"/>
<path d="M74.2788 81.0411C74.2788 81.6728 73.963 82.1691 73.5738 82.1691C73.1846 82.1691 72.8745 81.6559 72.8745 81.0411C72.8745 80.4264 73.1903 79.9131 73.5738 79.9131C73.9573 79.9131 74.2788 80.4038 74.2788 81.0411Z" fill="#263238"/>
<path d="M80.652 81.0411C80.652 81.6728 80.3361 82.1691 79.947 82.1691C79.5578 82.1691 79.2476 81.6559 79.2476 81.0411C79.2476 80.4264 79.5635 79.9131 79.947 79.9131C80.3305 79.9131 80.652 80.4038 80.652 81.0411Z" fill="#263238"/>
<path d="M70.9625 78.6159C70.9625 78.6159 71.5998 77.7248 74.1491 77.9786" stroke="#263238" stroke-linecap="round" stroke-linejoin="round"/>
<path d="M78.8698 78.1027C78.8698 78.1027 80.1444 77.3413 81.4247 78.9995" stroke="#263238" stroke-linecap="round" stroke-linejoin="round"/>
<path d="M69.3043 76.4445C69.3043 76.4445 67.2626 83.7201 67.1329 87.6738C67.0032 91.6274 67.6462 94.3064 69.3043 93.9229C70.129 93.7945 70.9194 93.501 71.628 93.06C71.8605 93.9851 71.8016 94.9595 71.4594 95.8498C71.1172 96.7402 70.5083 97.5032 69.7161 98.0345C66.8961 99.9464 62.0569 101.982 57.2122 100.46C52.3674 98.9369 52.7453 90.5107 54.2794 87.5723C55.3843 85.2586 56.197 82.8166 56.6989 80.3023C56.9302 79.2533 64.9672 75.0458 69.3043 76.4445Z" fill="#263238" stroke="#263238" stroke-linecap="round" stroke-linejoin="round"/>
<path d="M81.5488 68.2835C81.5488 68.2835 78.9995 63.2075 77.6008 61.9046C76.202 60.6018 61.7749 55.6555 60.348 55.3961C58.9211 55.1366 53.58 57.3137 52.6945 59.3441C51.809 61.3745 44.4037 71.972 44.0202 74.0081C43.6367 76.0441 43.3829 84.3405 44.4037 84.8481C45.4246 85.3557 45.041 86.1228 45.4246 85.3614C45.8081 84.6 49.5305 73.884 50.4216 73.1282C51.392 72.4135 52.4159 71.7743 53.4841 71.2163L54.3752 74.9161C54.3752 74.9161 66.2192 70.7087 70.1954 69.8119C74.1716 68.9151 81.5488 68.2835 81.5488 68.2835Z" fill="#0076AB" stroke="#263238" stroke-linecap="round" stroke-linejoin="round"/>
<path d="M55.3397 82.5245C58.2196 80.6622 61.3438 79.2082 64.6231 78.2042C69.372 76.907 84.4816 76.2641 84.4816 76.2641C84.4816 76.2641 83.1844 70.0037 82.5358 68.2778C81.8872 66.552 73.6866 65.9034 66.5633 68.4921C59.44 71.0809 53.1796 73.884 53.1796 75.1812C53.1796 76.4784 55.3397 82.5245 55.3397 82.5245Z" fill="white" stroke="#263238" stroke-linecap="round" stroke-linejoin="round"/>
<path d="M48.1261 88.4408C48.1261 89.0465 47.9465 89.6386 47.61 90.1423C47.2735 90.6459 46.7952 91.0384 46.2356 91.2702C45.676 91.502 45.0602 91.5627 44.4661 91.4445C43.8721 91.3263 43.3264 91.0346 42.8981 90.6063C42.4698 90.178 42.1781 89.6324 42.0599 89.0383C41.9417 88.4442 42.0024 87.8284 42.2342 87.2688C42.466 86.7092 42.8585 86.2309 43.3621 85.8944C43.8658 85.5579 44.4579 85.3783 45.0636 85.3783C45.4658 85.3783 45.864 85.4575 46.2356 85.6114C46.6071 85.7653 46.9447 85.9909 47.2291 86.2753C47.5135 86.5597 47.7391 86.8973 47.893 87.2688C48.0469 87.6404 48.1261 88.0386 48.1261 88.4408V88.4408Z" stroke="#263238" stroke-linecap="round" stroke-linejoin="round"/>
<path d="M61.3914 100.815C61.3914 100.815 59.4794 137.17 59.4794 138.958C59.5074 139.714 59.2457 140.452 58.7477 141.021C58.2498 141.59 57.5532 141.948 56.8004 142.021C55.3961 142.145 50.9348 141 50.9348 141L50.4216 142.399L53.6138 143.679L50.0381 189.092C55.082 191.782 60.6803 193.266 66.3941 193.429C75.8298 193.683 87.3129 189.216 88.4634 188.353C89.0844 187.868 89.6775 187.349 90.24 186.797L86.9237 147.503C86.9237 147.503 88.328 131.559 86.4161 125.687C84.5041 119.816 76.8281 99.4106 76.8281 99.4106L75.937 99.1568L81.577 118.164C81.577 118.164 70.2236 120.459 62.0569 118.931L62.5702 100.556L61.3914 100.815Z" fill="#0076AB" stroke="#263238" stroke-linecap="round" stroke-linejoin="round"/>
<path d="M82.3722 145.698C80.15 149.409 76.061 155.055 70.1108 158.726" stroke="#263238" stroke-linecap="round" stroke-linejoin="round"/>
<path d="M84.3688 141.953C84.3688 141.953 84.0698 142.636 83.4776 143.752" stroke="#263238" stroke-linecap="round" stroke-linejoin="round"/>
<path d="M77.6572 155.664C77.6572 155.664 71.2276 159.86 69.2705 162.652" stroke="#263238" stroke-linecap="round" stroke-linejoin="round"/>
<path d="M54.505 103.618C52.9107 103.844 51.3616 104.317 49.914 105.022C47.6185 106.15 43.789 115.355 42.7681 118.164C41.7473 120.972 37.6921 131.7 37.6921 131.7C37.6921 131.7 35.7802 129.15 33.7441 125.834C31.7081 122.518 32.712 120.589 32.712 118.547C32.712 116.505 33.3493 116.252 32.3285 114.08C31.3076 111.909 29.5085 111.401 28.3805 111.785C27.2525 112.168 26.2147 114.718 26.5926 117.78C26.9705 120.843 28.764 127.092 29.6269 130.792C30.4898 134.491 31.7983 140.487 33.84 143.42C35.8817 146.352 36.7728 148.778 37.2804 148.496C37.788 148.214 49.5305 129.884 50.8164 127.701C52.1023 125.518 53.4954 122.597 54.003 120.301" fill="#ABABAB"/>
<path d="M54.505 103.618C52.9107 103.844 51.3616 104.317 49.914 105.022C47.6185 106.15 43.789 115.355 42.7681 118.164C41.7473 120.972 37.6921 131.7 37.6921 131.7C37.6921 131.7 35.7802 129.15 33.7441 125.834C31.7081 122.518 32.712 120.589 32.712 118.547C32.712 116.505 33.3493 116.252 32.3285 114.08C31.3076 111.909 29.5085 111.401 28.3805 111.785C27.2525 112.168 26.2147 114.718 26.5926 117.78C26.9705 120.843 28.764 127.092 29.6269 130.792C30.4898 134.491 31.7983 140.487 33.84 143.42C35.8817 146.352 36.7728 148.778 37.2804 148.496C37.788 148.214 49.5305 129.884 50.8164 127.701C52.1023 125.518 53.4954 122.597 54.003 120.301" stroke="#263238" stroke-linecap="round" stroke-linejoin="round"/>
<path d="M33.7103 125.817C31.6686 122.501 32.712 120.589 32.712 118.547C32.712 116.505 33.3493 116.252 32.3285 114.08C31.3076 111.909 29.5085 111.401 28.3805 111.785C27.2525 112.168 26.2147 114.718 26.5926 117.78C26.9705 120.843 28.764 127.092 29.6269 130.792C29.8412 131.683 30.0781 132.704 30.3432 133.786C31.435 133.463 32.45 132.922 33.3268 132.196C34.4184 131.233 35.1618 129.936 35.4418 128.507C34.906 127.707 34.3138 126.798 33.7103 125.817Z" fill="white" stroke="#263238" stroke-linecap="round" stroke-linejoin="round"/>
<path d="M30.9692 115.767C30.9692 115.767 32.43 118.807 32.1649 120.019C31.9086 120.956 31.5453 121.861 31.082 122.715" stroke="#263238" stroke-linecap="round" stroke-linejoin="round"/>
<path d="M30.3263 93.7706C30.3423 93.4812 30.4437 93.203 30.6177 92.9712C30.7917 92.7394 31.0305 92.5644 31.3039 92.4682C31.5774 92.3721 31.8731 92.3591 32.1539 92.431C32.4347 92.5028 32.688 92.6563 32.8816 92.8719C33.0752 93.0876 33.2006 93.3558 33.2419 93.6427C33.2832 93.9296 33.2385 94.2223 33.1135 94.4838C32.9886 94.7454 32.7889 94.964 32.5398 95.1121C32.2906 95.2602 32.0032 95.3311 31.7137 95.316C31.521 95.3059 31.3323 95.2579 31.1582 95.1747C30.9841 95.0915 30.8282 94.9748 30.6993 94.8312C30.5704 94.6877 30.4711 94.5201 30.4071 94.3381C30.3431 94.1561 30.3156 93.9633 30.3263 93.7706Z" fill="#263238" stroke="#263238" stroke-linecap="round" stroke-linejoin="round"/>
<path d="M30.5011 104.34L30.2417 118.085C30.2374 118.288 30.1924 118.488 30.1092 118.674C30.0261 118.859 29.9065 119.026 29.7577 119.164C29.6088 119.303 29.4336 119.41 29.2426 119.479C29.0516 119.548 28.8485 119.579 28.6456 119.568C28.4379 119.558 28.2346 119.505 28.0482 119.413C27.8618 119.321 27.6963 119.192 27.562 119.033C27.4276 118.874 27.3273 118.69 27.2673 118.491C27.2073 118.292 27.1888 118.082 27.213 117.876L28.8599 103.866L30.5011 104.34Z" fill="#263238" stroke="#263238" stroke-linecap="round" stroke-linejoin="round"/>
<path d="M25.944 95.88C26.2655 97.0475 26.2598 99.6024 26.2542 102.157C26.2542 106.196 32.4582 106.517 32.8812 102.501C33.1406 99.9577 33.4001 97.4254 33.8456 96.2974C34.2912 95.1694 34.7142 94.3008 34.7142 94.3008L30.3827 94.0752L29.6213 94.0357L25.2898 93.8045C25.2898 93.8045 25.5943 94.752 25.944 95.88Z" fill="white" stroke="#263238" stroke-linecap="round" stroke-linejoin="round"/>
<path d="M27.2694 108.147C29.0234 108.04 31.0313 108.147 31.3415 109.066C31.804 110.426 31.4148 111.288 30.3206 111.322C28.8486 111.373 25.8538 111.751 24.7765 111.537C23.6993 111.322 23.0112 108.925 24.7765 108.474C25.5984 108.304 26.4316 108.195 27.2694 108.147Z" fill="white" stroke="#263238" stroke-linecap="round" stroke-linejoin="round"/>
<path d="M27.7432 111.593C29.4972 111.486 31.505 111.593 31.8152 112.512C32.2777 113.872 31.8886 114.734 30.7944 114.768C29.3224 114.819 26.3219 115.197 25.2503 114.983C24.1787 114.768 23.4793 112.371 25.2503 111.92C26.0722 111.751 26.9054 111.642 27.7432 111.593Z" fill="white" stroke="#263238" stroke-linecap="round" stroke-linejoin="round"/>
<path d="M35.3008 111.7C35.6786 113.392 35.8648 115.417 35.0244 115.862C33.7498 116.534 32.8417 116.28 32.633 115.203C32.3567 113.753 31.505 110.854 31.5614 109.76C31.6178 108.666 33.8682 107.611 34.5845 109.269C34.8866 110.06 35.1261 110.872 35.3008 111.7Z" fill="white" stroke="#263238" stroke-linecap="round" stroke-linejoin="round"/>
<path d="M27.636 115.011C29.0742 114.921 30.7267 115.011 30.9805 115.767C31.3584 116.895 31.0369 117.588 30.1402 117.622C28.9332 117.662 26.4742 117.972 25.5887 117.797C24.7032 117.622 24.1392 115.654 25.5887 115.287C26.2624 115.139 26.9472 115.047 27.636 115.011Z" fill="white" stroke="#263238" stroke-linecap="round" stroke-linejoin="round"/>
<path d="M28.1154 117.656C29.3506 117.577 30.7662 117.656 30.9862 118.299C31.3133 119.258 31.0369 119.867 30.2642 119.895C29.2265 119.935 27.1115 120.2 26.3557 120.047C25.6 119.895 25.1093 118.209 26.3557 117.887C26.9353 117.764 27.5237 117.687 28.1154 117.656Z" fill="white" stroke="#263238" stroke-linecap="round" stroke-linejoin="round"/>
<path d="M81.075 263.811C79.947 262.305 72.2371 254.601 72.051 254.037C71.9325 253.682 76.2979 242.447 79.9131 233.022C74.6736 233.97 70.2857 231.702 68.3004 230.417C67.6405 236.778 66.9073 244.917 66.411 246.891C65.6609 249.897 64.3411 259.485 63.9689 260.613C63.5966 261.741 64.9051 262.683 66.0331 262.869C67.1611 263.055 74.871 266.067 76.9409 265.881C79.0107 265.695 82.203 265.317 81.075 263.811Z" fill="#0076AB" stroke="#263238" stroke-linecap="round" stroke-linejoin="round"/>
<path d="M63.591 273.963C64.719 272.649 66.411 272.271 64.5329 266.253C62.6548 260.235 61.1489 257.043 61.1489 255.165C61.1489 253.287 60.3931 235.989 61.335 232.413C61.335 232.3 61.3914 232.171 61.4252 232.024C58.6052 232.96 53.4334 232.526 50.1847 232.109C52.7058 243.214 55.8811 256.857 55.8811 256.857C55.8811 256.857 55.3171 265.125 56.6369 268.509C57.9566 271.893 62.463 275.277 63.591 273.963Z" fill="#0076AB" stroke="#263238" stroke-linecap="round" stroke-linejoin="round"/>
<path d="M48.927 229.029C48.927 229.029 49.6771 235.611 50.619 236.739C51.5609 237.867 56.259 237.867 57.7649 237.681C59.2708 237.495 62.0851 237.303 62.2769 236.175C62.4686 235.047 62.6491 229.407 62.6491 228.657C62.6491 227.907 58.7011 228.657 55.695 228.657C52.6889 228.657 49.1131 228.093 48.927 229.029Z" fill="#0076AB" stroke="#263238" stroke-linecap="round" stroke-linejoin="round"/>
<path d="M67.7759 227.292C67.7759 227.292 66.552 233.823 67.116 235.188C67.68 236.553 72.4402 238.076 74.0081 238.38C75.576 238.685 78.4693 239.412 78.9995 238.38C79.5296 237.348 81.4472 232.052 81.6728 231.336C81.8984 230.62 77.7248 230.067 74.6849 229.08C71.6449 228.093 68.244 226.48 67.7759 227.292Z" fill="#0076AB" stroke="#263238" stroke-linecap="round" stroke-linejoin="round"/>
</svg>
