<svg width="344" height="344" viewBox="0 0 344 344" fill="none" xmlns="http://www.w3.org/2000/svg">
<path d="M344 263.091H0V263.263H344V263.091Z" fill="#EBEBEB"/>
<path d="M58.879 269.641H36.0925V269.813H58.879V269.641Z" fill="#EBEBEB"/>
<path d="M123.723 267.776H105.567V267.948H123.723V267.776Z" fill="#EBEBEB"/>
<path d="M93.4923 273.7H61.8994V273.872H93.4923V273.7Z" fill="#EBEBEB"/>
<path d="M309.531 274.877H294.67V275.049H309.531V274.877Z" fill="#EBEBEB"/>
<path d="M291.327 274.877H269.331V275.049H291.327V274.877Z" fill="#EBEBEB"/>
<path d="M228.643 271.973H190.72V272.145H228.643V271.973Z" fill="#EBEBEB"/>
<path d="M163.056 232.406H30.2101C29.1693 232.405 28.1719 231.99 27.4366 231.253C26.7014 230.517 26.2885 229.519 26.2885 228.478V41.7341C26.2975 40.6994 26.7145 39.71 27.4487 38.9809C28.183 38.2518 29.1753 37.8418 30.2101 37.84H163.056C164.098 37.84 165.097 38.2539 165.834 38.9907C166.571 39.7274 166.984 40.7266 166.984 41.7685V228.478C166.984 229.52 166.571 230.519 165.834 231.256C165.097 231.993 164.098 232.406 163.056 232.406ZM30.2101 37.9776C29.215 37.9794 28.2613 38.376 27.5583 39.0803C26.8553 39.7846 26.4605 40.739 26.4605 41.7341V228.478C26.4605 229.473 26.8553 230.427 27.5583 231.132C28.2613 231.836 29.215 232.233 30.2101 232.234H163.056C164.052 232.233 165.006 231.836 165.71 231.132C166.414 230.428 166.811 229.474 166.812 228.478V41.7341C166.811 40.7384 166.414 39.784 165.71 39.0799C165.006 38.3758 164.052 37.9794 163.056 37.9776H30.2101Z" fill="#EBEBEB"/>
<path d="M311.877 232.406H179.024C177.983 232.405 176.985 231.99 176.249 231.254C175.512 230.517 175.098 229.519 175.096 228.478V41.7341C175.107 40.6987 175.525 39.7094 176.261 38.9805C176.996 38.2515 177.989 37.8418 179.024 37.84H311.877C312.911 37.8436 313.901 38.2544 314.634 38.9833C315.367 39.7122 315.783 40.7006 315.792 41.7341V228.478C315.792 229.517 315.38 230.515 314.646 231.251C313.912 231.987 312.917 232.403 311.877 232.406ZM179.024 37.9776C178.029 37.9794 177.074 38.3758 176.37 39.0799C175.666 39.784 175.27 40.7384 175.268 41.7341V228.478C175.27 229.474 175.666 230.428 176.37 231.132C177.074 231.836 178.029 232.233 179.024 232.234H311.877C312.873 232.233 313.827 231.836 314.532 231.132C315.236 230.428 315.632 229.474 315.634 228.478V41.7341C315.632 40.7384 315.236 39.784 314.532 39.0799C313.827 38.3758 312.873 37.9794 311.877 37.9776H179.024Z" fill="#EBEBEB"/>
<path d="M59.3331 153.417L284.061 153.417V55.9344L59.3331 55.9344V153.417Z" fill="#E6E6E6"/>
<path d="M56.2371 153.417L282.713 153.417V55.9344L56.2371 55.9344V153.417Z" fill="#F5F5F5"/>
<path d="M277.154 147.796V61.5554L61.7893 61.5554V147.796H277.154Z" fill="#FAFAFA"/>
<path d="M153.362 147.796L128.8 61.5623H111.662L136.224 147.796H153.362Z" fill="white"/>
<path d="M131.36 147.796L106.805 61.5623H94.999L119.561 147.796H131.36Z" fill="white"/>
<path d="M256.473 147.796L231.918 61.5623H214.773L239.335 147.796H256.473Z" fill="white"/>
<path d="M234.477 147.796L209.916 61.5623H198.116L222.671 147.796H234.477Z" fill="white"/>
<path d="M109.399 147.796V61.5554H102.767V147.796H109.399Z" fill="#E6E6E6"/>
<path d="M240.621 147.803V61.5623H233.989V147.803H240.621Z" fill="#E6E6E6"/>
<path d="M108.202 151.367V57.3792H99.8219V151.367H108.202Z" fill="#F5F5F5"/>
<path d="M239.431 151.367V57.3792H231.051V151.367H239.431Z" fill="#F5F5F5"/>
<path d="M62.381 147.803L62.381 61.5623H61.7893L61.7893 147.803H62.381Z" fill="#E6E6E6"/>
<path d="M53.8979 48.7104H290.102C290.285 48.7104 290.46 48.7829 290.589 48.912C290.718 49.041 290.79 49.216 290.79 49.3984C290.79 49.5809 290.718 49.7559 290.589 49.8849C290.46 50.014 290.285 50.0864 290.102 50.0864H53.8979C53.7154 50.0864 53.5404 50.014 53.4114 49.8849C53.2824 49.7559 53.2099 49.5809 53.2099 49.3984C53.2099 49.216 53.2824 49.041 53.4114 48.912C53.5404 48.7829 53.7154 48.7104 53.8979 48.7104Z" fill="#E6E6E6"/>
<path d="M284.055 53.437C284.311 53.437 284.556 53.3357 284.738 53.1553C284.92 52.9748 285.023 52.7299 285.025 52.4738V50.4098C285.025 50.1525 284.922 49.9058 284.741 49.7238C284.559 49.5419 284.312 49.4397 284.055 49.4397C283.798 49.4415 283.553 49.5445 283.373 49.7262C283.193 49.908 283.091 50.1537 283.091 50.4098V52.4738C283.091 52.7292 283.193 52.9742 283.373 53.1549C283.554 53.3355 283.799 53.437 284.055 53.437Z" fill="#E6E6E6"/>
<path d="M64.7064 53.437C64.9625 53.437 65.2082 53.3357 65.39 53.1553C65.5717 52.9748 65.6747 52.7299 65.6765 52.4738V50.4098C65.6765 50.1525 65.5743 49.9058 65.3924 49.7238C65.2104 49.5419 64.9637 49.4397 64.7064 49.4397C64.4503 49.4415 64.2054 49.5445 64.0249 49.7262C63.8445 49.908 63.7432 50.1537 63.7432 50.4098V52.4738C63.7432 52.7292 63.8447 52.9742 64.0253 53.1549C64.206 53.3355 64.451 53.437 64.7064 53.437Z" fill="#E6E6E6"/>
<path opacity="0.6" d="M54.125 73.8087L280.505 73.8087V49.4259L54.125 49.4259V73.8087Z" fill="#E0E0E0"/>
<path d="M133.995 228.21C136.437 227.384 138.205 225.031 136.657 222.616C134.091 218.626 140.51 217.8 138.721 211.106C136.183 201.68 128.291 209.847 126.337 200.786C124.913 194.202 113.857 189.888 113.424 198.557C112.949 208.044 108.195 201.845 107.135 212.399C106.406 219.692 116.767 220.752 113.692 223.036C111.428 224.701 110.087 227.604 113.245 229.592C117.552 232.296 113.486 234.409 116.416 236.294C119.347 238.179 119.815 235.172 124.356 236.638C128.415 237.945 131.855 233.934 131.05 231.423C130.273 229.104 131.546 229.042 133.995 228.21Z" fill="#E6E6E6"/>
<path d="M110.527 232.544C110.527 232.544 110.857 263.091 123.661 263.091C136.465 263.091 136.795 232.544 136.795 232.544H110.527Z" fill="#F0F0F0"/>
<path d="M98.3427 228.21C100.778 227.384 102.553 225.031 100.998 222.616C98.4322 218.626 104.858 217.8 103.062 211.106C100.517 201.68 92.6255 209.847 90.6784 200.786C89.2543 194.202 78.1981 189.888 77.7647 198.557C77.2899 208.044 72.5359 201.845 71.4763 212.399C70.7471 219.692 81.1083 220.752 78.033 223.036C75.7695 224.701 74.4279 227.604 77.5927 229.592C81.8927 232.296 77.8335 234.409 80.7575 236.294C83.6815 238.179 84.1562 235.172 88.697 236.638C92.7631 237.945 96.2031 233.934 95.3912 231.423C94.6138 229.104 95.8866 229.042 98.3427 228.21Z" fill="#E6E6E6"/>
<path d="M74.8682 232.544C74.8682 232.544 75.2053 263.091 88.0021 263.091C100.799 263.091 101.136 232.544 101.136 232.544H74.8682Z" fill="#F0F0F0"/>
<path d="M210.287 198.749C212.131 178.336 213.418 145.202 212.42 134.119C212.404 133.931 212.35 133.749 212.262 133.584C212.173 133.418 212.051 133.272 211.904 133.156C211.706 133 211.467 132.906 211.216 132.885C210.965 132.865 210.713 132.919 210.493 133.041C210.272 133.163 210.093 133.347 209.977 133.571C209.861 133.794 209.813 134.047 209.84 134.298C210.019 139.802 210.218 153.513 209.152 177.194C208.608 188.98 207.824 197.05 208.361 198.749H210.287Z" fill="#F0F0F0"/>
<path d="M215.97 156.479C220.387 150.975 229.4 147.012 238.585 147.032C242.19 147.032 227.611 153.465 221.55 160.559C216.844 166.063 211.532 175.337 209.73 180.476C210.893 169.654 211.56 162.01 215.97 156.479Z" fill="#F0F0F0"/>
<path d="M206.744 156.424C202.382 150.342 192.296 145.663 181.391 145.134C177.105 144.927 193.404 152.557 199.479 160.38C204.205 166.455 209.049 176.527 210.377 182.045C210.7 170.624 211.113 162.506 206.744 156.424Z" fill="#F0F0F0"/>
<path d="M215.97 165.361C220.387 159.857 229.4 155.894 238.585 155.915C242.19 155.915 227.611 162.347 221.55 169.441C216.844 174.945 211.532 184.219 209.73 189.393C210.893 178.536 211.56 170.892 215.97 165.361Z" fill="#F0F0F0"/>
<path d="M206.744 165.808C202.382 159.726 192.296 155.048 181.391 154.518C177.105 154.312 193.404 161.941 199.479 169.764C204.205 175.846 209.049 185.911 210.377 191.429C210.7 179.967 211.113 171.883 206.744 165.808Z" fill="#F0F0F0"/>
<path d="M215.179 135.584C218.069 131.456 224.254 128.264 230.714 127.83C233.253 127.658 223.249 132.894 219.259 138.15C216.156 142.278 212.778 149.035 211.691 152.743C212.11 145.099 212.282 139.664 215.179 135.584Z" fill="#F0F0F0"/>
<path d="M209.427 137.318C206.352 133.032 199.245 129.75 191.539 129.365C188.519 129.22 200.002 134.6 204.288 140.111C207.618 144.391 211.03 151.491 211.966 155.378C212.214 147.308 212.509 141.604 209.427 137.318Z" fill="#F0F0F0"/>
<path d="M216.17 140.916C219.905 136.231 227.535 132.901 235.317 132.915C238.371 132.915 226.029 138.364 220.869 144.37C216.878 149.035 212.386 156.885 210.851 161.24C211.904 152.048 212.434 145.595 216.17 140.916Z" fill="#F0F0F0"/>
<path d="M208.581 143.407C204.88 138.288 196.341 134.298 187.136 133.85C183.51 133.672 197.305 140.139 202.451 146.757C206.4 151.904 210.528 160.428 211.656 165.12C211.904 155.405 212.276 148.56 208.581 143.407Z" fill="#F0F0F0"/>
<path d="M216.417 147.411C220.449 142.361 228.684 138.763 237.057 138.783C240.353 138.783 227.04 144.659 221.502 151.167C217.202 156.204 212.351 164.666 210.7 169.365C211.78 159.451 212.386 152.461 216.417 147.411Z" fill="#F0F0F0"/>
<path d="M207.996 150.177C203.868 144.459 194.415 140.063 184.157 139.568C180.132 139.368 195.447 146.544 201.164 153.899C205.609 159.616 210.163 169.083 211.416 174.27C211.711 163.496 212.104 155.901 207.996 150.177Z" fill="#F0F0F0"/>
<path d="M197.876 195.303L198.564 201.034C198.6 201.653 198.872 202.235 199.324 202.661C199.775 203.087 200.372 203.324 200.992 203.325H218.096C218.716 203.324 219.313 203.087 219.765 202.661C220.216 202.235 220.488 201.653 220.525 201.034L221.213 195.303C221.231 194.972 221.182 194.642 221.069 194.331C220.955 194.02 220.779 193.736 220.552 193.496C220.324 193.255 220.05 193.064 219.746 192.933C219.442 192.803 219.115 192.736 218.784 192.736H200.304C199.973 192.736 199.646 192.803 199.342 192.933C199.038 193.064 198.764 193.255 198.536 193.496C198.309 193.736 198.133 194.02 198.02 194.331C197.906 194.642 197.857 194.972 197.876 195.303Z" fill="#E6E6E6"/>
<path d="M196.857 196.513H222.224C222.403 196.513 222.577 196.447 222.711 196.328C222.845 196.209 222.931 196.045 222.953 195.867L223.559 190.404C223.569 190.302 223.558 190.198 223.527 190.101C223.495 190.003 223.443 189.913 223.374 189.836C223.305 189.76 223.221 189.699 223.128 189.657C223.034 189.615 222.932 189.593 222.829 189.592H196.252C196.149 189.593 196.048 189.615 195.954 189.657C195.86 189.699 195.776 189.76 195.707 189.836C195.639 189.913 195.587 190.003 195.555 190.101C195.523 190.198 195.512 190.302 195.523 190.404L196.128 195.867C196.15 196.045 196.236 196.209 196.37 196.328C196.505 196.447 196.678 196.513 196.857 196.513Z" fill="#F5F5F5"/>
<path d="M158.887 263.091H169.908V203.325H158.887V263.091Z" fill="#E6E6E6"/>
<path d="M162.189 263.091H158.887V251.65H165.65L162.189 263.091Z" fill="#F0F0F0"/>
<path d="M296.191 263.091H307.213V203.325H296.191V263.091Z" fill="#E6E6E6"/>
<path d="M158.887 256.074H299.081V203.325H158.887V256.074Z" fill="#F0F0F0"/>
<path d="M295.771 263.091H299.074V251.65H292.311L295.771 263.091Z" fill="#F0F0F0"/>
<path d="M161.446 228.148L296.514 228.148V207.04L161.446 207.04V228.148Z" fill="#E6E6E6"/>
<path d="M181.24 213.596H274.512C277.732 213.596 280.814 210.989 283.036 206.393H172.722C174.938 210.989 178.02 213.596 181.24 213.596Z" fill="#F0F0F0"/>
<path d="M161.446 252.661L296.514 252.661V231.553L161.446 231.553V252.661Z" fill="#E6E6E6"/>
<path d="M181.24 238.11H274.512C277.732 238.11 280.814 235.509 283.036 230.913H172.722C174.938 235.509 178.02 238.11 181.24 238.11Z" fill="#F0F0F0"/>
<path d="M297.381 189.317C297.381 189.317 296.776 203.325 273.673 203.325C250.57 203.325 249.971 189.317 249.971 189.317H297.381Z" fill="#F5F5F5"/>
<path d="M297.381 182.045C297.381 182.045 296.776 196.08 273.673 196.08C250.57 196.08 249.971 182.072 249.971 182.072L297.381 182.045Z" fill="#F5F5F5"/>
<path d="M172 294.161C245.673 294.161 305.396 290.674 305.396 286.373C305.396 282.072 245.673 278.585 172 278.585C98.3273 278.585 38.6037 282.072 38.6037 286.373C38.6037 290.674 98.3273 294.161 172 294.161Z" fill="#F5F5F5"/>
<path d="M253.115 93.1345C248.987 95.3912 247.611 102.079 249.544 104.989C242.389 107.135 246.104 119.437 257.8 120.125C269.496 120.813 278.399 116.54 272.654 107.417C278.337 99.76 275.723 91.2082 270.742 92.1507C265.396 81.4386 247.494 81.755 253.115 93.1345Z" fill="#263238"/>
<path d="M265.568 120.95C263.764 120.945 261.995 120.45 260.449 119.519C260.425 119.51 260.402 119.496 260.384 119.477C260.365 119.459 260.351 119.436 260.342 119.412C260.333 119.387 260.33 119.36 260.332 119.334C260.335 119.308 260.343 119.283 260.356 119.26C260.37 119.238 260.388 119.218 260.41 119.203C260.431 119.189 260.456 119.179 260.482 119.175C260.508 119.17 260.535 119.172 260.56 119.179C260.585 119.187 260.608 119.199 260.628 119.217C262.621 120.41 264.977 120.848 267.266 120.451C269.555 120.055 271.626 118.85 273.102 117.056C274.98 114.731 275.854 111.002 272.572 107.521C272.556 107.504 272.544 107.484 272.535 107.463C272.527 107.441 272.523 107.418 272.524 107.395C272.525 107.372 272.53 107.35 272.539 107.329C272.549 107.308 272.562 107.289 272.579 107.273C272.595 107.257 272.615 107.245 272.637 107.237C272.658 107.228 272.681 107.224 272.704 107.225C272.727 107.226 272.75 107.231 272.771 107.24C272.792 107.25 272.811 107.263 272.826 107.28C276.225 110.926 275.338 114.848 273.37 117.276C272.417 118.422 271.224 119.344 269.876 119.979C268.529 120.614 267.058 120.945 265.568 120.95Z" fill="#263238"/>
<path d="M248.251 107.273C248.216 107.272 248.182 107.26 248.154 107.239C248.125 107.218 248.104 107.189 248.093 107.156C246.263 101.913 248.712 94.8752 253.04 92.9488C253.082 92.9338 253.128 92.9346 253.17 92.951C253.212 92.9674 253.246 92.9984 253.267 93.0382C253.276 93.059 253.281 93.0814 253.281 93.104C253.281 93.1267 253.277 93.1493 253.269 93.1704C253.261 93.1915 253.248 93.2107 253.233 93.227C253.217 93.2433 253.198 93.2563 253.177 93.2653C248.994 95.1229 246.634 101.948 248.416 107.025C248.424 107.047 248.427 107.07 248.425 107.093C248.424 107.116 248.418 107.138 248.408 107.159C248.397 107.179 248.383 107.197 248.366 107.212C248.348 107.227 248.328 107.238 248.306 107.245L248.251 107.273Z" fill="#263238"/>
<path d="M247.13 99.6981H247.068C247.026 99.6811 246.992 99.649 246.973 99.6082C246.954 99.5674 246.951 99.5209 246.965 99.4779C248.203 96.1961 250.542 93.6987 253.06 92.9557C253.104 92.9429 253.151 92.948 253.191 92.97C253.231 92.9919 253.261 93.0288 253.273 93.0726C253.286 93.1164 253.281 93.1635 253.259 93.2035C253.237 93.2435 253.2 93.2731 253.157 93.2859C250.742 93.9739 248.492 96.4163 247.288 99.6018C247.273 99.6312 247.251 99.656 247.223 99.673C247.195 99.6901 247.162 99.6988 247.13 99.6981Z" fill="#263238"/>
<path d="M256.762 282.706L252.785 282.713L252.118 267.776L258.812 267.942L256.762 282.706Z" fill="#FFB573"/>
<path d="M249.847 153.816C249.847 153.816 249.496 195.268 248.623 213.314C248.588 213.85 248.588 214.388 248.623 214.924C249.93 233.012 252.097 267.776 252.097 267.776L258.832 267.948C258.832 267.948 264.701 240.188 261.068 215.041C266.91 186.599 270.054 161.219 264.763 153.809L249.847 153.816Z" fill="#0076AB"/>
<path opacity="0.2" d="M261.13 170.28C259.066 177.201 261.075 199.451 262.142 209.716C263.593 202.3 264.832 195.165 265.747 188.588L261.13 170.28Z" fill="black"/>
<path d="M252.338 280.78H257.505C257.613 280.776 257.719 280.813 257.801 280.885C257.883 280.957 257.935 281.057 257.945 281.165L258.468 285.396C258.471 285.527 258.447 285.657 258.399 285.779C258.351 285.901 258.279 286.012 258.187 286.105C258.095 286.199 257.986 286.273 257.865 286.324C257.745 286.375 257.615 286.401 257.484 286.401C255.207 286.401 254.12 286.235 251.251 286.242C249.483 286.242 248.416 286.421 245.974 286.421C243.531 286.421 243.531 284.082 244.556 283.869C249.159 282.912 249.751 282.383 251.354 281.117C251.635 280.898 251.981 280.78 252.338 280.78Z" fill="#263238"/>
<path d="M254.037 123.31C253.783 124.734 253.494 126.062 253.184 127.438C252.874 128.814 252.558 130.19 252.193 131.566C251.471 134.318 250.721 137.015 249.73 139.74C249.233 141.148 248.654 142.527 247.996 143.868C247.632 144.612 247.211 145.327 246.737 146.007C246.6 146.193 246.476 146.372 246.297 146.578C246.126 146.797 245.935 147 245.726 147.184C245.198 147.682 244.563 148.052 243.868 148.264C243.141 148.484 242.369 148.515 241.626 148.353C241.041 148.218 240.483 147.985 239.974 147.665C239.203 147.172 238.52 146.553 237.952 145.835C236.976 144.621 236.198 143.261 235.647 141.804C235.526 141.494 235.515 141.152 235.617 140.835C235.719 140.519 235.927 140.247 236.206 140.066C236.485 139.885 236.818 139.806 237.148 139.841C237.479 139.877 237.787 140.026 238.02 140.263L238.103 140.352C238.957 141.254 239.877 142.091 240.855 142.856C241.237 143.148 241.662 143.38 242.114 143.544C242.279 143.586 242.396 143.586 242.41 143.544C242.424 143.503 242.314 143.476 242.217 143.482C242.121 143.489 242.059 143.524 242.087 143.482C242.119 143.422 242.156 143.365 242.197 143.31C242.265 143.227 242.325 143.137 242.376 143.042C242.664 142.568 242.917 142.074 243.132 141.563C243.633 140.384 244.074 139.181 244.453 137.958C245.238 135.44 245.953 132.818 246.572 130.183C247.192 127.548 247.804 124.858 248.354 122.23C248.524 121.503 248.968 120.871 249.595 120.465C250.221 120.06 250.98 119.913 251.712 120.055C252.445 120.198 253.093 120.619 253.522 121.23C253.95 121.841 254.125 122.594 254.01 123.331L254.037 123.31Z" fill="#FFB573"/>
<path d="M247.783 148.188C247.783 149.881 274.161 150.211 274.161 147.975L260.683 144.535L247.783 148.188Z" fill="#263238"/>
<path d="M252.627 118.873C259.582 117.709 266.687 117.779 273.618 119.079C274.024 119.143 274.413 119.29 274.761 119.511C275.108 119.731 275.407 120.021 275.638 120.361C275.87 120.701 276.029 121.086 276.106 121.49C276.184 121.894 276.177 122.31 276.088 122.712C272.359 139.409 272.572 145.024 272.93 153.816H249.854C248.698 139.148 248.086 130.775 247.935 126.021C247.811 122.395 249.056 119.402 252.627 118.873Z" fill="#FFB573"/>
<path opacity="0.2" d="M273.549 123.723C273.404 126.054 273.712 128.39 274.457 130.603C274.753 129.014 275.097 127.308 275.489 125.443L273.549 123.723Z" fill="black"/>
<path d="M266.043 106.681C265.355 110.018 264.729 116.148 267.068 118.377C267.068 118.377 266.153 121.769 259.947 121.769C253.115 121.769 256.679 118.377 256.679 118.377C260.408 117.483 260.312 114.717 259.665 112.123L266.043 106.681Z" fill="#FFB573"/>
<path opacity="0.2" d="M263.442 108.904L259.665 112.144C259.825 112.748 259.934 113.365 259.988 113.988C261.412 113.781 263.366 112.22 263.518 110.727C263.603 110.119 263.577 109.502 263.442 108.904Z" fill="black"/>
<path d="M269.648 100.888C268.368 106.33 267.948 108.663 264.687 111.009C259.789 114.545 253.377 111.793 252.991 106.076C252.647 100.936 254.787 92.8937 260.559 91.6278C261.827 91.342 263.147 91.3847 264.394 91.752C265.64 92.1193 266.773 92.799 267.683 93.7265C268.593 94.6541 269.252 95.7989 269.596 97.0522C269.939 98.3056 269.957 99.626 269.648 100.888Z" fill="#FFB573"/>
<path d="M267.57 92.7011C261.805 93.341 263.559 104.088 267.893 105.126C272.971 102.643 276.101 93.2102 267.57 92.7011Z" fill="#263238"/>
<path d="M295.792 272.868L291.808 274.079L285.995 261.901L292.125 260.229L295.792 272.868Z" fill="#FFB573"/>
<path d="M290.659 272.861L295.778 270.879C295.868 270.845 295.967 270.843 296.057 270.875C296.148 270.906 296.225 270.969 296.273 271.051L298.564 274.918C298.619 275.014 298.653 275.121 298.663 275.232C298.673 275.342 298.658 275.454 298.621 275.558C298.584 275.663 298.524 275.758 298.447 275.838C298.37 275.917 298.276 275.979 298.172 276.019C296.377 276.707 295.51 277.058 293.26 277.931C291.884 278.468 289.724 280.257 287.811 280.993C285.898 281.729 285.059 279.982 285.747 279.376C287.611 277.749 289.079 275.719 290.04 273.439C290.098 273.305 290.183 273.185 290.29 273.086C290.396 272.986 290.522 272.91 290.659 272.861Z" fill="#263238"/>
<path d="M256.184 153.816C256.184 153.816 264.667 197.208 267.88 214.36C271.203 232.248 286.009 261.873 286.009 261.873L292.152 260.195C292.152 260.195 283.738 228.505 279.817 212.798C279.046 184.356 279.954 161.198 272.937 153.789L256.184 153.816Z" fill="#0076AB"/>
<path d="M260.621 100.854C260.546 101.301 260.25 101.624 259.933 101.542C259.617 101.459 259.465 101.088 259.541 100.641C259.617 100.193 259.92 99.8701 260.229 99.9182C260.539 99.9664 260.704 100.407 260.621 100.854Z" fill="#263238"/>
<path d="M255.565 99.9939C255.489 100.441 255.186 100.764 254.877 100.682C254.567 100.599 254.409 100.235 254.484 99.7806C254.56 99.3266 254.863 99.0101 255.172 99.0926C255.482 99.1752 255.64 99.5467 255.565 99.9939Z" fill="#263238"/>
<path d="M255.296 99.1408L254.271 98.6454C254.271 98.6454 254.684 99.5811 255.296 99.1408Z" fill="#263238"/>
<path d="M256.982 101.067C256.414 102.019 255.719 102.889 254.918 103.654C255.118 103.855 255.36 104.01 255.626 104.108C255.892 104.207 256.176 104.247 256.459 104.225L256.982 101.067Z" fill="#ED893E"/>
<path d="M258.592 106.392C258.361 106.392 258.131 106.372 257.904 106.33C257.886 106.328 257.87 106.322 257.855 106.313C257.84 106.304 257.827 106.292 257.817 106.278C257.806 106.264 257.799 106.248 257.795 106.231C257.791 106.214 257.791 106.196 257.794 106.179C257.8 106.145 257.82 106.115 257.848 106.094C257.876 106.074 257.911 106.065 257.945 106.069C258.5 106.175 259.073 106.149 259.616 105.994C260.16 105.838 260.66 105.558 261.075 105.175C261.088 105.161 261.102 105.151 261.119 105.143C261.136 105.136 261.154 105.132 261.172 105.132C261.19 105.132 261.208 105.136 261.224 105.143C261.241 105.151 261.256 105.161 261.268 105.175C261.291 105.2 261.304 105.233 261.304 105.267C261.304 105.302 261.291 105.335 261.268 105.36C260.548 106.045 259.585 106.416 258.592 106.392Z" fill="#263238"/>
<path d="M270.432 105.58C269.884 106.512 268.992 107.191 267.948 107.472C266.572 107.823 265.884 106.578 266.311 105.285C266.676 104.122 267.845 102.533 269.228 102.746C269.528 102.801 269.81 102.929 270.049 103.12C270.287 103.311 270.474 103.558 270.594 103.839C270.713 104.12 270.761 104.426 270.733 104.73C270.704 105.034 270.601 105.326 270.432 105.58Z" fill="#FFB573"/>
<path d="M262.816 100.166C262.76 100.165 262.706 100.147 262.662 100.114C262.617 100.08 262.584 100.033 262.568 99.9802C262.204 98.8037 260.697 98.2946 260.683 98.2946C260.649 98.2844 260.618 98.2676 260.591 98.2449C260.563 98.2223 260.541 98.1944 260.525 98.1628C260.509 98.1313 260.499 98.0969 260.497 98.0616C260.495 98.0262 260.499 97.9908 260.511 97.9574C260.521 97.9235 260.538 97.892 260.561 97.8648C260.583 97.8376 260.611 97.8153 260.643 97.7992C260.674 97.7832 260.709 97.7737 260.744 97.7713C260.78 97.7689 260.815 97.7737 260.848 97.7854C260.917 97.7854 262.63 98.384 263.077 99.8494C263.088 99.8833 263.092 99.919 263.089 99.9543C263.085 99.9897 263.075 100.024 263.058 100.055C263.042 100.087 263.019 100.114 262.992 100.137C262.964 100.159 262.933 100.176 262.899 100.187L262.816 100.166Z" fill="#263238"/>
<path d="M254.436 97.3933C254.39 97.3927 254.345 97.3804 254.306 97.3575C254.266 97.3346 254.233 97.3019 254.209 97.2625C254.175 97.2005 254.166 97.1273 254.185 97.0589C254.205 96.9905 254.25 96.9326 254.312 96.8979C254.675 96.6788 255.084 96.5494 255.507 96.5207C255.929 96.492 256.352 96.5647 256.741 96.7328C256.804 96.7652 256.851 96.8208 256.873 96.8877C256.895 96.9547 256.889 97.0275 256.858 97.0905C256.826 97.1531 256.77 97.2004 256.703 97.2223C256.636 97.2442 256.563 97.2389 256.5 97.2075C256.19 97.0804 255.854 97.0279 255.519 97.0542C255.184 97.0805 254.861 97.1848 254.574 97.3589C254.532 97.3839 254.484 97.3959 254.436 97.3933Z" fill="#263238"/>
<path d="M275.503 120.035C277.464 122.602 279.245 125.195 280.938 127.934C281.777 129.31 282.603 130.686 283.36 132.151C284.182 133.67 284.861 135.261 285.389 136.905C285.465 137.125 285.52 137.38 285.582 137.593L285.63 137.793L285.692 138.082C285.72 138.262 285.738 138.443 285.747 138.625C285.779 139.222 285.735 139.821 285.616 140.407C285.421 141.336 285.128 142.243 284.743 143.111C284.064 144.645 283.263 146.122 282.348 147.528C280.607 150.23 278.648 152.786 276.493 155.171C276.257 155.436 275.932 155.603 275.579 155.641C275.227 155.679 274.873 155.584 274.586 155.376C274.299 155.168 274.1 154.861 274.026 154.514C273.953 154.168 274.011 153.806 274.189 153.5V153.465C275.709 150.816 277.216 148.092 278.516 145.395C279.154 144.095 279.708 142.755 280.174 141.384C280.375 140.802 280.513 140.2 280.587 139.588C280.612 139.408 280.612 139.225 280.587 139.045V139.003V138.921C280.539 138.783 280.504 138.659 280.443 138.515C279.907 137.225 279.277 135.976 278.557 134.779C277.801 133.506 276.996 132.234 276.17 130.961C274.491 128.443 272.73 125.911 270.941 123.462C270.513 122.847 270.34 122.09 270.46 121.35C270.58 120.611 270.984 119.947 271.585 119.5C272.186 119.052 272.938 118.857 273.681 118.954C274.423 119.052 275.099 119.434 275.565 120.022L275.503 120.035Z" fill="#FFB573"/>
<path d="M260.36 100.001L259.335 99.5054C259.335 99.5054 259.741 100.448 260.36 100.001Z" fill="#263238"/>
<path d="M248.581 124.377C249.006 122.641 249.553 120.937 250.219 119.279C251.274 118.963 252.353 118.733 253.445 118.591C255.671 120.563 257.501 122.939 258.839 125.594C261.791 122.608 267.439 119.588 270.879 118.487C272.043 118.414 273.21 118.561 274.319 118.921C271.973 126.324 269.579 133.768 273.824 135.68C273.748 139.196 273.948 143.558 274.127 147.968C270.116 147.528 254.209 146.764 247.749 148.181C247.419 143.709 247.302 139.925 247.322 136.657C244.316 132.825 247.329 127.61 248.581 124.377Z" fill="#263238"/>
<g opacity="0.2">
<path opacity="0.2" d="M254.904 138.143C254.868 138.148 254.834 138.162 254.805 138.183C254.776 138.205 254.753 138.234 254.739 138.267C254.251 139.636 254.266 141.133 254.78 142.492C254.305 142.093 253.838 141.7 253.404 141.301C253.792 140.473 253.941 139.553 253.837 138.645C253.733 137.736 253.378 136.874 252.812 136.155C252.791 136.127 252.763 136.105 252.73 136.09C252.698 136.076 252.662 136.07 252.627 136.073C252.59 136.075 252.555 136.089 252.526 136.111C252.497 136.132 252.475 136.162 252.462 136.196C251.958 137.603 251.99 139.146 252.551 140.531C251.932 139.967 251.34 139.403 250.797 138.859C251.203 138.026 251.366 137.096 251.268 136.175C251.169 135.253 250.813 134.379 250.239 133.651C250.218 133.623 250.189 133.6 250.157 133.586C250.125 133.572 250.089 133.566 250.054 133.568C250.017 133.571 249.982 133.584 249.953 133.606C249.924 133.628 249.901 133.658 249.888 133.692C249.388 135.102 249.42 136.646 249.978 138.033C249.035 137.05 248.251 136.155 247.666 135.412C247.456 134.58 247.039 133.815 246.453 133.188C245.867 132.561 245.132 132.093 244.316 131.828C244.282 131.822 244.248 131.824 244.216 131.834C244.184 131.844 244.155 131.861 244.13 131.885C244.106 131.908 244.088 131.937 244.077 131.969C244.066 132.001 244.063 132.035 244.068 132.068C244.687 135.116 246.93 135.646 247.384 135.722C247.708 136.128 248.072 136.575 248.512 137.056C247.434 136.573 246.234 136.429 245.072 136.644C245.037 136.652 245.005 136.67 244.98 136.695C244.954 136.721 244.936 136.753 244.928 136.788C244.918 136.822 244.916 136.858 244.923 136.893C244.931 136.928 244.946 136.96 244.969 136.988C245.561 137.662 246.329 138.158 247.187 138.419C248.045 138.681 248.96 138.697 249.827 138.467C250.212 138.866 250.625 139.272 251.058 139.691C249.601 139.275 248.046 139.367 246.648 139.953C246.615 139.971 246.587 139.997 246.568 140.029C246.549 140.061 246.538 140.098 246.538 140.135C246.538 140.173 246.549 140.21 246.568 140.242C246.587 140.274 246.615 140.3 246.648 140.318C247.433 140.807 248.334 141.081 249.258 141.114C250.183 141.146 251.1 140.936 251.918 140.503C252.496 141.047 253.108 141.59 253.741 142.134C252.332 141.498 250.737 141.405 249.262 141.872C249.228 141.886 249.198 141.909 249.175 141.938C249.152 141.967 249.137 142.001 249.132 142.038C249.128 142.073 249.133 142.11 249.146 142.143C249.159 142.177 249.18 142.206 249.207 142.23C249.932 142.817 250.804 143.192 251.728 143.313C252.652 143.435 253.592 143.298 254.443 142.918L254.498 142.884C254.52 142.861 254.534 142.832 254.539 142.801L255.317 143.434C255.341 143.467 255.375 143.491 255.413 143.503C255.826 143.833 256.246 144.157 256.672 144.473C256.71 144.505 256.757 144.523 256.806 144.523C256.856 144.523 256.903 144.505 256.94 144.473C256.956 144.451 256.968 144.426 256.974 144.399C256.98 144.373 256.981 144.345 256.977 144.319C256.972 144.292 256.962 144.266 256.948 144.243C256.933 144.22 256.915 144.2 256.892 144.184C256.5 143.888 256.108 143.592 255.73 143.283C256.087 142.463 256.216 141.562 256.102 140.675C255.988 139.789 255.636 138.949 255.083 138.247C255.065 138.215 255.039 138.189 255.007 138.171C254.976 138.153 254.94 138.143 254.904 138.143Z" fill="white"/>
<path opacity="0.2" d="M248.12 127.486C248.156 127.482 248.19 127.468 248.219 127.447C248.248 127.425 248.271 127.396 248.285 127.363C248.773 125.994 248.759 124.497 248.244 123.138C248.719 123.537 249.187 123.929 249.62 124.328C249.233 125.157 249.083 126.077 249.187 126.985C249.292 127.894 249.646 128.756 250.212 129.475C250.233 129.503 250.262 129.525 250.294 129.54C250.327 129.554 250.362 129.56 250.398 129.557C250.434 129.554 250.469 129.541 250.498 129.519C250.527 129.497 250.55 129.468 250.563 129.433C251.066 128.027 251.035 126.484 250.473 125.099C251.092 125.663 251.684 126.227 252.228 126.771C251.821 127.604 251.658 128.534 251.757 129.455C251.855 130.376 252.212 131.251 252.785 131.979C252.807 132.007 252.835 132.029 252.867 132.044C252.9 132.058 252.935 132.064 252.971 132.062C253.007 132.059 253.042 132.046 253.071 132.024C253.101 132.002 253.123 131.972 253.136 131.938C253.636 130.528 253.604 128.984 253.046 127.596C253.989 128.58 254.773 129.475 255.358 130.218C255.568 131.05 255.986 131.815 256.572 132.442C257.158 133.068 257.893 133.537 258.709 133.802C258.742 133.808 258.776 133.806 258.808 133.796C258.84 133.786 258.87 133.769 258.894 133.745C258.918 133.722 258.936 133.693 258.947 133.661C258.958 133.629 258.961 133.595 258.956 133.561C258.337 130.514 256.094 129.984 255.64 129.908C255.317 129.502 254.952 129.055 254.512 128.573C255.59 129.059 256.791 129.2 257.952 128.979C257.987 128.973 258.019 128.957 258.045 128.933C258.071 128.908 258.089 128.876 258.096 128.842C258.107 128.808 258.108 128.772 258.101 128.737C258.094 128.702 258.078 128.669 258.055 128.642C257.464 127.968 256.695 127.472 255.837 127.211C254.979 126.949 254.065 126.933 253.198 127.163C252.812 126.764 252.4 126.358 251.966 125.938C253.423 126.355 254.979 126.263 256.376 125.677C256.409 125.659 256.437 125.633 256.456 125.601C256.476 125.569 256.486 125.532 256.486 125.495C256.486 125.457 256.476 125.42 256.456 125.388C256.437 125.356 256.409 125.33 256.376 125.312C255.591 124.823 254.691 124.549 253.766 124.516C252.841 124.483 251.924 124.694 251.106 125.127C250.528 124.583 249.916 124.04 249.283 123.496C250.693 124.132 252.288 124.225 253.762 123.757C253.795 123.743 253.825 123.72 253.848 123.691C253.87 123.662 253.886 123.628 253.893 123.592C253.896 123.556 253.891 123.52 253.878 123.487C253.865 123.453 253.844 123.423 253.817 123.4C253.093 122.813 252.22 122.438 251.296 122.317C250.372 122.195 249.432 122.332 248.581 122.712L248.526 122.746C248.505 122.769 248.49 122.798 248.485 122.829L247.708 122.196C247.683 122.163 247.65 122.139 247.611 122.127C247.198 121.797 246.779 121.473 246.352 121.157C246.315 121.125 246.267 121.107 246.218 121.107C246.169 121.107 246.121 121.125 246.084 121.157C246.053 121.201 246.04 121.256 246.047 121.309C246.055 121.363 246.083 121.412 246.125 121.446C246.524 121.742 246.916 122.037 247.295 122.347C246.937 123.167 246.809 124.068 246.923 124.954C247.037 125.841 247.389 126.681 247.941 127.383C247.96 127.415 247.986 127.441 248.017 127.459C248.048 127.477 248.084 127.486 248.12 127.486Z" fill="white"/>
<path opacity="0.2" d="M269.331 143.166C269.296 143.171 269.263 143.184 269.235 143.204C269.206 143.225 269.182 143.252 269.166 143.283C268.684 144.652 268.699 146.147 269.208 147.507C268.733 147.115 268.265 146.716 267.832 146.317C268.219 145.49 268.369 144.571 268.265 143.663C268.16 142.756 267.805 141.895 267.24 141.178C267.219 141.149 267.19 141.127 267.158 141.113C267.126 141.098 267.09 141.093 267.055 141.096C267.019 141.1 266.986 141.112 266.957 141.132C266.928 141.153 266.904 141.18 266.889 141.212C266.389 142.622 266.421 144.165 266.978 145.553C266.359 144.982 265.768 144.425 265.224 143.881C265.632 143.05 265.796 142.121 265.698 141.2C265.599 140.28 265.242 139.406 264.667 138.68C264.647 138.65 264.618 138.627 264.586 138.612C264.553 138.598 264.517 138.593 264.481 138.598C264.446 138.602 264.412 138.615 264.384 138.635C264.355 138.656 264.332 138.683 264.316 138.715C263.816 140.124 263.847 141.668 264.405 143.056C263.463 142.079 262.678 141.178 262.094 140.435C261.881 139.604 261.463 138.84 260.877 138.213C260.292 137.587 259.558 137.118 258.743 136.85C258.71 136.843 258.676 136.845 258.643 136.854C258.611 136.864 258.581 136.881 258.557 136.905C258.532 136.93 258.514 136.96 258.503 136.994C258.492 137.027 258.49 137.063 258.495 137.098C259.115 140.139 261.364 140.668 261.812 140.744C262.135 141.15 262.5 141.604 262.94 142.086C261.862 141.602 260.662 141.458 259.5 141.673C259.465 141.682 259.434 141.701 259.408 141.726C259.383 141.751 259.365 141.783 259.355 141.817C259.345 141.85 259.343 141.885 259.351 141.919C259.358 141.953 259.374 141.984 259.397 142.01C259.985 142.689 260.753 143.188 261.612 143.45C262.471 143.712 263.387 143.725 264.254 143.489C264.639 143.888 265.052 144.301 265.485 144.721C264.029 144.3 262.472 144.393 261.075 144.982C261.044 145.001 261.018 145.027 260.998 145.058C260.979 145.089 260.968 145.125 260.965 145.161C260.965 145.197 260.974 145.233 260.992 145.265C261.01 145.296 261.037 145.322 261.068 145.34C261.854 145.829 262.753 146.105 263.678 146.139C264.602 146.172 265.52 145.964 266.339 145.533C266.916 146.069 267.529 146.613 268.162 147.163C266.752 146.527 265.157 146.434 263.683 146.902C263.649 146.916 263.619 146.938 263.596 146.967C263.573 146.996 263.558 147.03 263.552 147.067C263.548 147.102 263.553 147.138 263.568 147.171C263.583 147.204 263.606 147.232 263.635 147.253C264.359 147.839 265.231 148.214 266.155 148.335C267.08 148.457 268.019 148.32 268.87 147.941L268.919 147.899C268.939 147.877 268.955 147.851 268.967 147.824L269.744 148.457C269.766 148.489 269.797 148.513 269.834 148.525C270.246 148.856 270.666 149.179 271.093 149.502C271.13 149.534 271.178 149.552 271.227 149.552C271.276 149.552 271.324 149.534 271.361 149.502C271.394 149.459 271.408 149.404 271.4 149.349C271.392 149.295 271.363 149.246 271.32 149.213C270.921 148.918 270.535 148.615 270.15 148.312C270.509 147.493 270.639 146.592 270.527 145.706C270.414 144.819 270.063 143.979 269.51 143.276C269.492 143.244 269.467 143.217 269.435 143.197C269.404 143.178 269.368 143.167 269.331 143.166Z" fill="white"/>
<path opacity="0.2" d="M282.562 147.92C282.525 147.923 282.49 147.936 282.461 147.958C282.432 147.98 282.409 148.01 282.396 148.044C281.906 149.411 281.918 150.909 282.431 152.268C281.956 151.869 281.495 151.47 281.055 151.078C281.444 150.25 281.595 149.331 281.492 148.422C281.389 147.513 281.035 146.651 280.47 145.932C280.448 145.902 280.418 145.88 280.385 145.865C280.351 145.851 280.314 145.845 280.277 145.849C280.242 145.854 280.208 145.868 280.179 145.89C280.15 145.911 280.127 145.94 280.112 145.973C279.612 147.38 279.644 148.922 280.202 150.307C279.583 149.743 278.998 149.179 278.454 148.635C278.861 147.803 279.024 146.872 278.925 145.951C278.827 145.03 278.47 144.155 277.897 143.427C277.875 143.399 277.847 143.377 277.815 143.362C277.782 143.348 277.747 143.342 277.711 143.345C277.675 143.348 277.64 143.361 277.611 143.383C277.581 143.405 277.559 143.434 277.546 143.469C277.043 144.878 277.074 146.423 277.636 147.81C276.693 146.826 275.902 145.932 275.324 145.189C275.114 144.357 274.696 143.592 274.11 142.965C273.524 142.338 272.789 141.87 271.973 141.604C271.94 141.597 271.905 141.598 271.872 141.607C271.839 141.616 271.809 141.634 271.784 141.658C271.76 141.681 271.741 141.711 271.731 141.744C271.721 141.777 271.719 141.811 271.726 141.845C272.345 144.893 274.588 145.423 275.042 145.498C275.358 145.904 275.73 146.351 276.17 146.833C275.091 146.351 273.892 146.207 272.73 146.42C272.696 146.431 272.665 146.449 272.64 146.475C272.615 146.5 272.596 146.531 272.586 146.565C272.576 146.599 272.576 146.636 272.584 146.671C272.593 146.705 272.61 146.738 272.634 146.764C273.225 147.437 273.992 147.933 274.848 148.194C275.705 148.455 276.618 148.472 277.484 148.243C277.876 148.642 278.282 149.048 278.716 149.468C277.261 149.051 275.708 149.144 274.312 149.729C274.279 149.746 274.251 149.772 274.232 149.803C274.213 149.835 274.202 149.871 274.202 149.908C274.202 149.945 274.21 149.981 274.227 150.013C274.244 150.046 274.269 150.074 274.299 150.094C275.086 150.581 275.987 150.854 276.913 150.887C277.838 150.92 278.756 150.71 279.576 150.28C280.154 150.821 280.759 151.365 281.392 151.91C279.982 151.274 278.387 151.181 276.913 151.649C276.879 151.662 276.849 151.684 276.827 151.714C276.805 151.743 276.792 151.778 276.789 151.814C276.786 151.85 276.791 151.886 276.804 151.919C276.817 151.953 276.838 151.983 276.865 152.007C277.59 152.593 278.462 152.967 279.386 153.088C280.31 153.21 281.249 153.074 282.101 152.695C282.117 152.698 282.133 152.698 282.149 152.695C282.175 152.674 282.192 152.645 282.197 152.612L282.974 153.245C282.997 153.276 283.028 153.299 283.064 153.314C283.477 153.644 283.896 153.967 284.323 154.284C284.36 154.316 284.408 154.334 284.457 154.334C284.506 154.334 284.554 154.316 284.591 154.284C284.608 154.263 284.621 154.238 284.628 154.212C284.636 154.185 284.637 154.158 284.633 154.131C284.63 154.103 284.62 154.077 284.606 154.054C284.591 154.031 284.572 154.011 284.55 153.995L283.38 153.094C283.739 152.275 283.87 151.374 283.757 150.487C283.644 149.6 283.293 148.761 282.74 148.058C282.726 148.02 282.702 147.987 282.671 147.963C282.639 147.939 282.601 147.924 282.562 147.92Z" fill="white"/>
<path opacity="0.2" d="M252.31 148.697C252.275 148.7 252.241 148.713 252.212 148.733C252.183 148.754 252.16 148.782 252.145 148.814C251.654 150.182 251.667 151.679 252.18 153.039C251.705 152.647 251.244 152.248 250.804 151.848C251.193 151.021 251.344 150.101 251.241 149.192C251.138 148.284 250.784 147.421 250.219 146.702C250.196 146.674 250.167 146.653 250.134 146.639C250.1 146.625 250.064 146.62 250.028 146.625C249.993 146.629 249.959 146.642 249.929 146.663C249.9 146.683 249.877 146.711 249.861 146.743C249.361 148.153 249.393 149.697 249.95 151.085C249.331 150.514 248.746 149.956 248.203 149.413C248.609 148.58 248.772 147.65 248.674 146.729C248.575 145.807 248.219 144.933 247.646 144.205C247.625 144.176 247.596 144.154 247.563 144.141C247.531 144.127 247.495 144.123 247.46 144.129C247.424 144.131 247.389 144.142 247.36 144.163C247.331 144.184 247.308 144.213 247.295 144.246C246.791 145.655 246.823 147.2 247.384 148.587C246.569 147.754 245.798 146.879 245.072 145.966C244.86 145.135 244.442 144.371 243.856 143.745C243.27 143.118 242.537 142.65 241.722 142.382C241.688 142.375 241.652 142.376 241.619 142.386C241.585 142.395 241.555 142.413 241.529 142.437C241.507 142.462 241.491 142.491 241.482 142.524C241.472 142.556 241.47 142.589 241.474 142.622C242.093 145.67 244.336 146.2 244.79 146.276C245.107 146.682 245.478 147.129 245.919 147.652C244.842 147.163 243.641 147.019 242.479 147.239C242.445 147.248 242.414 147.265 242.389 147.289C242.363 147.313 242.345 147.343 242.334 147.376C242.325 147.411 242.324 147.448 242.333 147.482C242.341 147.517 242.358 147.549 242.382 147.576C242.969 148.255 243.736 148.755 244.594 149.016C245.452 149.278 246.367 149.292 247.233 149.055C247.625 149.454 248.031 149.867 248.464 150.287C247.01 149.863 245.455 149.956 244.061 150.548C244.028 150.564 244.001 150.588 243.981 150.618C243.962 150.649 243.951 150.684 243.951 150.72C243.95 150.757 243.958 150.793 243.975 150.826C243.992 150.858 244.017 150.886 244.047 150.906C244.834 151.395 245.735 151.671 246.66 151.704C247.586 151.738 248.504 151.529 249.324 151.099C249.902 151.635 250.508 152.179 251.141 152.722C249.73 152.088 248.135 151.997 246.662 152.468C246.629 152.48 246.599 152.501 246.578 152.529C246.556 152.557 246.542 152.591 246.538 152.626C246.533 152.662 246.538 152.698 246.551 152.732C246.564 152.766 246.586 152.795 246.614 152.819C247.338 153.404 248.211 153.779 249.134 153.9C250.058 154.022 250.998 153.885 251.849 153.507C251.865 153.51 251.882 153.51 251.897 153.507C251.922 153.488 251.939 153.461 251.946 153.431L252.723 154.064C252.746 154.094 252.777 154.118 252.812 154.133C253.232 154.463 253.645 154.786 254.072 155.11C254.109 155.142 254.156 155.159 254.206 155.159C254.255 155.159 254.302 155.142 254.34 155.11C254.357 155.088 254.37 155.064 254.377 155.037C254.384 155.011 254.386 154.983 254.382 154.956C254.378 154.929 254.369 154.903 254.354 154.88C254.34 154.856 254.321 154.836 254.299 154.821L253.129 153.919C253.488 153.099 253.618 152.197 253.505 151.309C253.393 150.422 253.041 149.581 252.489 148.876C252.486 148.83 252.466 148.786 252.433 148.753C252.4 148.721 252.357 148.701 252.31 148.697Z" fill="white"/>
<path opacity="0.2" d="M268.891 119.712C268.855 119.717 268.821 119.731 268.792 119.753C268.764 119.774 268.741 119.803 268.726 119.836C268.244 121.205 268.259 122.7 268.767 124.06C268.292 123.661 267.825 123.269 267.391 122.87C267.779 122.041 267.928 121.122 267.824 120.213C267.72 119.304 267.365 118.443 266.8 117.724C266.778 117.696 266.75 117.673 266.717 117.659C266.685 117.644 266.649 117.638 266.614 117.641C266.577 117.644 266.542 117.657 266.513 117.679C266.484 117.701 266.462 117.731 266.449 117.765C265.948 119.172 265.98 120.714 266.538 122.099C265.919 121.535 265.327 120.971 264.784 120.427C265.19 119.595 265.353 118.664 265.255 117.743C265.156 116.822 264.8 115.947 264.226 115.219C264.205 115.191 264.177 115.168 264.144 115.154C264.112 115.139 264.076 115.133 264.041 115.137C264.004 115.14 263.969 115.153 263.94 115.175C263.911 115.197 263.888 115.226 263.876 115.261C263.375 116.67 263.407 118.214 263.965 119.602C263.022 118.618 262.238 117.724 261.653 116.981C261.443 116.149 261.026 115.384 260.44 114.757C259.854 114.13 259.119 113.662 258.303 113.396C258.269 113.39 258.235 113.393 258.203 113.402C258.171 113.412 258.142 113.43 258.117 113.453C258.093 113.477 258.075 113.506 258.064 113.538C258.053 113.57 258.05 113.604 258.055 113.637C258.674 116.685 260.924 117.215 261.371 117.29C261.695 117.696 262.059 118.143 262.5 118.625C261.421 118.141 260.221 117.997 259.06 118.212C259.026 118.223 258.995 118.241 258.969 118.267C258.944 118.292 258.926 118.323 258.915 118.357C258.905 118.391 258.903 118.427 258.91 118.462C258.917 118.496 258.933 118.529 258.956 118.556C259.548 119.231 260.316 119.727 261.174 119.988C262.032 120.249 262.947 120.266 263.814 120.035C264.199 120.434 264.612 120.84 265.045 121.26C263.588 120.843 262.033 120.936 260.635 121.521C260.604 121.54 260.577 121.566 260.558 121.597C260.539 121.629 260.528 121.664 260.525 121.7C260.524 121.738 260.534 121.774 260.552 121.807C260.57 121.84 260.596 121.867 260.628 121.886C261.414 122.375 262.314 122.65 263.238 122.682C264.163 122.715 265.08 122.504 265.898 122.072C266.476 122.615 267.088 123.159 267.721 123.702C266.312 123.066 264.717 122.973 263.243 123.441C263.208 123.455 263.178 123.477 263.155 123.506C263.132 123.535 263.117 123.57 263.112 123.606C263.108 123.643 263.113 123.679 263.128 123.713C263.142 123.747 263.165 123.776 263.194 123.799C263.918 124.385 264.789 124.759 265.712 124.881C266.635 125.002 267.573 124.866 268.423 124.487L268.478 124.452C268.5 124.429 268.514 124.401 268.52 124.37L269.297 125.003C269.322 125.034 269.356 125.057 269.393 125.071C269.806 125.402 270.226 125.725 270.652 126.042C270.69 126.074 270.737 126.091 270.786 126.091C270.836 126.091 270.883 126.074 270.921 126.042C270.953 125.998 270.968 125.943 270.96 125.889C270.952 125.834 270.923 125.785 270.879 125.753C270.48 125.457 270.095 125.161 269.71 124.851C270.069 124.033 270.199 123.132 270.086 122.245C269.974 121.358 269.622 120.518 269.07 119.815C269.05 119.785 269.024 119.76 268.993 119.742C268.962 119.724 268.927 119.714 268.891 119.712Z" fill="white"/>
<path opacity="0.2" d="M262.355 132.784C262.39 132.781 262.424 132.769 262.454 132.748C262.483 132.727 262.506 132.699 262.52 132.667C263.011 131.3 262.999 129.802 262.486 128.443C262.96 128.835 263.421 129.234 263.862 129.633C263.473 130.461 263.321 131.38 263.424 132.289C263.528 133.198 263.882 134.06 264.447 134.779C264.469 134.807 264.498 134.829 264.532 134.842C264.565 134.856 264.601 134.861 264.637 134.857C264.672 134.853 264.707 134.84 264.736 134.819C264.765 134.798 264.789 134.77 264.804 134.738C265.305 133.328 265.273 131.784 264.715 130.397C265.334 130.965 265.919 131.523 266.469 132.068C266.063 132.901 265.9 133.831 265.998 134.753C266.097 135.674 266.453 136.549 267.027 137.277C267.049 137.305 267.078 137.326 267.112 137.34C267.145 137.353 267.181 137.358 267.217 137.354C267.252 137.35 267.287 137.337 267.316 137.316C267.345 137.296 267.369 137.268 267.384 137.235C267.886 135.825 267.851 134.28 267.288 132.894C268.103 133.728 268.874 134.603 269.6 135.515C269.812 136.347 270.231 137.112 270.818 137.739C271.405 138.365 272.141 138.833 272.957 139.1C272.99 139.107 273.024 139.105 273.057 139.095C273.089 139.086 273.119 139.068 273.143 139.045C273.167 139.019 273.184 138.989 273.194 138.955C273.203 138.922 273.205 138.886 273.198 138.852C272.586 135.811 270.336 135.281 269.882 135.206C269.565 134.8 269.194 134.353 268.753 133.83C269.83 134.319 271.032 134.463 272.193 134.243C272.227 134.234 272.258 134.216 272.283 134.192C272.309 134.168 272.327 134.138 272.338 134.105C272.347 134.07 272.348 134.034 272.339 133.999C272.331 133.964 272.314 133.932 272.29 133.905C271.703 133.226 270.937 132.727 270.078 132.465C269.22 132.203 268.305 132.19 267.439 132.426C267.054 132.027 266.641 131.614 266.208 131.195C267.662 131.618 269.217 131.526 270.611 130.933C270.644 130.917 270.672 130.891 270.692 130.859C270.711 130.828 270.721 130.791 270.721 130.754C270.723 130.719 270.715 130.683 270.698 130.651C270.681 130.62 270.656 130.593 270.625 130.575C269.838 130.086 268.938 129.811 268.012 129.777C267.086 129.743 266.168 129.952 265.348 130.383C264.77 129.846 264.164 129.303 263.532 128.759C264.943 129.391 266.537 129.481 268.01 129.014C268.044 129.001 268.073 128.98 268.095 128.952C268.116 128.924 268.13 128.891 268.134 128.855C268.14 128.82 268.137 128.783 268.123 128.749C268.11 128.715 268.088 128.685 268.059 128.663C267.335 128.075 266.463 127.699 265.538 127.578C264.614 127.456 263.674 127.594 262.823 127.975C262.807 127.972 262.791 127.972 262.775 127.975C262.755 127.997 262.738 128.023 262.727 128.051L261.949 127.418C261.927 127.386 261.896 127.361 261.86 127.349C261.447 127.019 261.027 126.661 260.601 126.372C260.563 126.34 260.516 126.322 260.466 126.322C260.417 126.322 260.37 126.34 260.332 126.372C260.299 126.416 260.285 126.471 260.293 126.525C260.301 126.579 260.33 126.628 260.374 126.661L261.543 127.562C261.184 128.382 261.054 129.284 261.167 130.172C261.28 131.06 261.631 131.901 262.183 132.605C262.189 132.649 262.209 132.69 262.24 132.722C262.271 132.754 262.311 132.776 262.355 132.784Z" fill="white"/>
</g>
<path d="M265.375 138.701L219.279 143.352C218.05 143.477 216.92 144.085 216.139 145.042C215.357 145.999 214.987 147.227 215.11 148.457L216.692 164.219C217.893 163.368 219.296 162.847 220.76 162.707C222.225 162.568 223.701 162.815 225.041 163.424C226.38 164.033 227.536 164.983 228.394 166.178C229.252 167.374 229.781 168.774 229.929 170.238C230.077 171.702 229.839 173.179 229.238 174.522C228.636 175.865 227.693 177.027 226.503 177.891C225.312 178.756 223.916 179.294 222.453 179.45C220.99 179.607 219.511 179.377 218.165 178.784L219.754 194.546C219.881 195.775 220.489 196.904 221.445 197.686C222.402 198.469 223.629 198.841 224.859 198.722L270.955 194.078C272.185 193.949 273.314 193.34 274.096 192.382C274.878 191.425 275.25 190.197 275.131 188.966L270.487 142.87C270.357 141.642 269.747 140.514 268.789 139.733C267.832 138.953 266.605 138.581 265.375 138.701Z" fill="#0076AB"/>
<path opacity="0.3" d="M265.375 138.701L219.279 143.352C218.05 143.477 216.92 144.085 216.139 145.042C215.357 145.999 214.987 147.227 215.11 148.457L216.692 164.219C217.893 163.368 219.296 162.847 220.76 162.707C222.225 162.568 223.701 162.815 225.041 163.424C226.38 164.033 227.536 164.983 228.394 166.178C229.252 167.374 229.781 168.774 229.929 170.238C230.077 171.702 229.839 173.179 229.238 174.522C228.636 175.865 227.693 177.027 226.503 177.891C225.312 178.756 223.916 179.294 222.453 179.45C220.99 179.607 219.511 179.377 218.165 178.784L219.754 194.546C219.881 195.775 220.489 196.904 221.445 197.686C222.402 198.469 223.629 198.841 224.859 198.722L270.955 194.078C272.185 193.949 273.314 193.34 274.096 192.382C274.878 191.425 275.25 190.197 275.131 188.966L270.487 142.87C270.357 141.642 269.747 140.514 268.789 139.733C267.832 138.953 266.605 138.581 265.375 138.701Z" fill="black"/>
<path d="M277.952 152.839L275.819 151.91L270.811 153.19C270.236 153.34 269.728 153.677 269.366 154.146L268.306 155.522C268.08 155.824 267.966 156.194 267.982 156.57C267.999 156.947 268.145 157.306 268.396 157.586L269.593 158.907C269.88 159.222 270.278 159.412 270.704 159.438C271.129 159.464 271.547 159.323 271.87 159.045L274.588 156.713C274.588 156.713 277.863 155.178 277.952 152.839Z" fill="#FFB573"/>
<path d="M234.532 144.246L236.748 143.964C237.046 143.93 237.326 143.8 237.543 143.592C237.76 143.385 237.904 143.112 237.952 142.815L238.254 141.054C238.295 140.844 238.286 140.628 238.228 140.422C238.171 140.216 238.066 140.027 237.922 139.869C237.779 139.71 237.6 139.588 237.401 139.511C237.202 139.433 236.988 139.403 236.775 139.423L234.188 139.609C233.824 139.629 233.483 139.792 233.239 140.062C232.996 140.333 232.869 140.69 232.888 141.054L232.957 142.911C232.961 143.107 233.006 143.299 233.09 143.475C233.174 143.652 233.294 143.808 233.443 143.935C233.592 144.061 233.766 144.154 233.954 144.208C234.142 144.261 234.339 144.274 234.532 144.246Z" fill="#FFB573"/>
<path d="M269.008 93.685C263.545 96.437 253.948 95.171 253.948 95.171C253.948 95.171 259.3 86.4197 269.008 93.685Z" fill="#263238"/>
<path d="M172.881 268.244L170.135 282.534L163.187 280.855L165.932 266.566L172.881 268.244Z" fill="#7F3E3B"/>
<path d="M163.407 277.952L171.133 279.631C171.253 279.654 171.359 279.721 171.432 279.82C171.505 279.918 171.538 280.039 171.525 280.161L170.989 285.837C170.971 285.979 170.924 286.116 170.85 286.239C170.776 286.362 170.678 286.469 170.56 286.552C170.443 286.635 170.31 286.692 170.169 286.721C170.029 286.749 169.884 286.748 169.743 286.717C167.315 286.146 166.592 285.788 163.517 285.121C159.932 284.33 158.66 284.543 154.449 283.621C151.903 283.064 152.02 280.394 153.163 280.388C156.179 280.395 159.143 279.605 161.756 278.097C162.268 277.84 162.858 277.788 163.407 277.952Z" fill="#263238"/>
<path opacity="0.2" d="M172.887 268.251L171.47 275.613L164.515 273.934L165.932 266.566L172.887 268.251Z" fill="black"/>
<path d="M184.976 213.211C193.128 189.228 199.582 160.923 199.582 160.923L176.328 159.451C176.328 159.451 172.888 196.176 171.112 213.115C169.255 230.714 163.483 270.446 163.483 270.446L173.975 272.572C173.975 272.572 183.813 235.158 184.976 213.211Z" fill="#263238"/>
<path opacity="0.2" d="M188.856 174.27L194.498 181.247C193.06 186.634 191.381 192.688 189.537 198.873C188.479 190.716 188.251 182.473 188.856 174.27Z" fill="#263238"/>
<path d="M163.634 271.939L173.266 274.044C173.458 274.087 173.659 274.057 173.83 273.961C174.002 273.864 174.132 273.708 174.195 273.521L175.254 270.418C175.291 270.313 175.305 270.202 175.296 270.091C175.286 269.98 175.253 269.872 175.199 269.775C175.146 269.677 175.072 269.592 174.983 269.525C174.894 269.459 174.792 269.411 174.683 269.386L164.232 266.944C164.123 266.918 164.008 266.916 163.897 266.937C163.787 266.958 163.681 267.003 163.589 267.068C163.497 267.133 163.419 267.217 163.362 267.314C163.304 267.411 163.268 267.52 163.255 267.632L163.015 271.072C162.993 271.267 163.044 271.464 163.158 271.624C163.273 271.784 163.442 271.896 163.634 271.939Z" fill="#263238"/>
<path opacity="0.1" d="M163.634 271.939L173.266 274.044C173.458 274.087 173.659 274.057 173.83 273.961C174.002 273.864 174.132 273.708 174.195 273.521L175.254 270.418C175.291 270.313 175.305 270.202 175.296 270.091C175.286 269.98 175.253 269.872 175.199 269.775C175.146 269.677 175.072 269.592 174.983 269.525C174.894 269.459 174.792 269.411 174.683 269.386L164.232 266.944C164.123 266.918 164.008 266.916 163.897 266.937C163.787 266.958 163.681 267.003 163.589 267.068C163.497 267.133 163.419 267.217 163.362 267.314C163.304 267.411 163.268 267.52 163.255 267.632L163.015 271.072C162.993 271.267 163.044 271.464 163.158 271.624C163.273 271.784 163.442 271.896 163.634 271.939Z" fill="white"/>
<path d="M211.133 267.749L211.567 282.493L204.515 282.396L204.081 267.653L211.133 267.749Z" fill="#7F3E3B"/>
<path d="M204.336 279.369L211.835 279.479C211.957 279.479 212.074 279.524 212.165 279.605C212.255 279.686 212.312 279.799 212.324 279.92L212.929 285.589C212.941 285.732 212.922 285.877 212.874 286.012C212.827 286.148 212.752 286.273 212.653 286.378C212.555 286.483 212.435 286.566 212.303 286.622C212.17 286.678 212.027 286.706 211.883 286.703C209.393 286.628 208.608 286.421 205.464 286.373C201.79 286.311 200.999 286.772 196.692 286.71C194.085 286.669 193.665 284.027 194.78 283.793C197.739 283.202 200.49 281.84 202.754 279.844C203.201 279.49 203.767 279.32 204.336 279.369Z" fill="#263238"/>
<path opacity="0.2" d="M211.14 267.756L211.36 275.351L204.302 275.255L204.081 267.653L211.14 267.756Z" fill="black"/>
<path d="M209.379 212.723C207.384 187.494 209.069 173.885 206.139 161.357L184.976 160.043C184.976 160.043 191.546 197.126 195.172 213.899C198.798 230.673 202.699 271.416 202.699 271.416L213.101 271.547C213.101 271.547 214.374 232.406 209.379 212.723Z" fill="#263238"/>
<path d="M202.726 273.287L212.571 273.439C212.775 273.441 212.972 273.365 213.121 273.227C213.271 273.089 213.362 272.899 213.376 272.696L213.59 269.448C213.598 269.341 213.584 269.233 213.55 269.131C213.515 269.029 213.46 268.936 213.388 268.856C213.316 268.776 213.228 268.712 213.13 268.667C213.033 268.622 212.927 268.598 212.819 268.595L202.107 268.265C201.988 268.261 201.869 268.283 201.76 268.331C201.651 268.379 201.554 268.451 201.477 268.542C201.399 268.632 201.343 268.739 201.313 268.855C201.283 268.97 201.279 269.091 201.302 269.208L201.99 272.648C202.027 272.82 202.118 272.975 202.251 273.09C202.384 273.206 202.551 273.275 202.726 273.287Z" fill="#263238"/>
<path opacity="0.1" d="M202.726 273.287L212.571 273.439C212.775 273.441 212.972 273.365 213.121 273.227C213.271 273.089 213.362 272.899 213.376 272.696L213.59 269.448C213.598 269.341 213.584 269.233 213.55 269.131C213.515 269.029 213.46 268.936 213.388 268.856C213.316 268.776 213.228 268.712 213.13 268.667C213.033 268.622 212.927 268.598 212.819 268.595L202.107 268.265C201.988 268.261 201.869 268.283 201.76 268.331C201.651 268.379 201.554 268.451 201.477 268.542C201.399 268.632 201.343 268.739 201.313 268.855C201.283 268.97 201.279 269.091 201.302 269.208L201.99 272.648C202.027 272.82 202.118 272.975 202.251 273.09C202.384 273.206 202.551 273.275 202.726 273.287Z" fill="white"/>
<path d="M184.294 121.232C183.483 122.987 182.636 124.542 181.714 126.145C180.793 127.748 179.823 129.303 178.749 130.83C177.664 132.407 176.478 133.912 175.199 135.336C173.78 136.976 172.116 138.387 170.266 139.52L170.025 139.657C169.614 139.899 169.156 140.051 168.682 140.103C168.207 140.156 167.727 140.107 167.273 139.96C165.932 139.526 164.631 139.038 163.359 138.515C162.086 137.992 160.847 137.414 159.63 136.809C158.412 136.203 157.222 135.564 156.052 134.876C154.883 134.188 153.74 133.5 152.612 132.667C152.208 132.381 151.917 131.962 151.789 131.484C151.66 131.005 151.703 130.497 151.909 130.047C152.116 129.597 152.473 129.233 152.919 129.018C153.365 128.803 153.872 128.75 154.353 128.869H154.428C155.66 129.165 156.933 129.523 158.171 129.846L161.893 130.83C163.125 131.167 164.363 131.449 165.581 131.752C166.799 132.055 168.016 132.289 169.214 132.536L166.248 132.984C167.278 132.129 168.202 131.154 169 130.08C169.943 128.869 170.851 127.535 171.752 126.159C172.654 124.783 173.472 123.345 174.284 121.886C175.096 120.428 175.922 118.921 176.651 117.531L176.692 117.455C177.241 116.542 178.113 115.869 179.135 115.57C180.158 115.27 181.255 115.367 182.21 115.841C183.164 116.315 183.905 117.13 184.285 118.126C184.665 119.121 184.656 120.223 184.26 121.212L184.294 121.232Z" fill="#7F3E3B"/>
<path d="M185.987 109.206C177.772 110.142 171.539 122.863 171.539 122.863L180.015 131.883C180.015 131.883 183.792 127.383 187.851 121.693C192.282 115.495 192.489 108.47 185.987 109.206Z" fill="#0076AB"/>
<path d="M184.976 111.112C188.134 109.991 202.279 111.8 202.279 111.8C199.527 115.35 197.229 144.748 196.974 161.646C193.968 162.058 182.437 161.267 179.774 160.648C180.118 154.016 182.884 122.904 184.976 111.112Z" fill="white"/>
<path d="M175.846 120.029C176.217 116.971 177.698 114.157 180.008 112.12C182.317 110.083 185.295 108.965 188.374 108.979C194.285 109.026 200.175 109.677 205.953 110.919C206.853 111.11 207.705 111.479 208.46 112.005C209.215 112.53 209.857 113.202 210.347 113.98C210.838 114.758 211.168 115.627 211.317 116.535C211.466 117.442 211.432 118.371 211.216 119.265C206.861 137.531 208.01 154.862 206.847 162.925C202.702 164.449 198.299 165.151 193.885 164.989C193.885 164.989 193.988 158.034 194.959 146.289C195.729 136.953 197.112 114.999 199.96 111.353C199.96 111.353 189.75 109.977 186.592 111.085C184.246 124.329 182.526 164.446 182.526 164.453C177.532 164.095 175.179 161.315 175.254 160.49C174.243 144.26 174.752 129.544 175.846 120.029Z" fill="#0076AB"/>
<path d="M200.325 99.7119C199.369 102.464 198.261 107.342 200.029 110.08C200.119 110.207 200.179 110.353 200.206 110.506C200.232 110.659 200.225 110.817 200.183 110.967C200.142 111.117 200.068 111.256 199.966 111.374C199.864 111.492 199.738 111.586 199.596 111.649C196.754 113.288 193.469 113.995 190.204 113.671C185.767 113.314 186.076 111.312 187.219 110.011C187.488 109.711 187.862 109.524 188.264 109.488C192.454 108.986 192.495 106.461 191.89 103.984L200.325 99.7119Z" fill="#7F3E3B"/>
<path opacity="0.2" d="M196.885 101.466L191.897 104.005C192.055 104.591 192.145 105.194 192.165 105.801C193.982 105.801 196.555 104.583 196.85 103.186C197.003 102.624 197.014 102.034 196.885 101.466Z" fill="black"/>
<path d="M193.673 90.1462C193.861 87.6645 192.511 85.5392 190.658 85.3992C188.805 85.2592 187.151 87.1576 186.964 89.6394C186.776 92.1211 188.126 94.2464 189.979 94.3864C191.832 94.5264 193.486 92.628 193.673 90.1462Z" fill="#263238"/>
<path d="M203.022 92.192C202.1 97.6203 201.832 100.847 198.818 103.372C194.284 107.163 187.92 103.957 187.232 98.3634C186.606 93.3341 188.216 85.2914 193.706 83.6677C199.197 82.044 203.944 86.7568 203.022 92.192Z" fill="#7F3E3B"/>
<path d="M201.839 96.781C201.77 96.781 201.687 96.6915 201.612 96.7328C199.148 98.1088 198.35 95.1504 198.502 93.1827C198.552 92.5263 198.741 91.888 199.055 91.3094C199.369 90.7309 199.802 90.2251 200.325 89.8253C197.656 90.128 195.069 88.408 195.027 86.805C192.076 88.1053 188.519 88.181 186.916 85.429C185.313 82.677 187.604 79.0787 190.659 80.0351C189.42 77.8197 194.656 73.389 200.139 79.925C200.311 75.1847 207.976 79.925 206.716 84.5827C210.267 85.8074 213.308 92.5498 207.288 93.9877C206.888 100.235 201.839 96.781 201.839 96.781Z" fill="#263238"/>
<path d="M204.742 98.4872C203.909 99.5097 202.719 100.178 201.412 100.359C199.761 100.544 199.396 98.8656 200.242 97.3383C201.006 95.9623 202.781 94.2147 204.253 94.7514C205.726 95.288 205.815 97.18 204.742 98.4872Z" fill="#7F3E3B"/>
<path d="M195.151 92.5979C195.11 93.052 194.842 93.3891 194.546 93.3616C194.25 93.3341 194.044 92.9488 194.085 92.4947C194.126 92.0407 194.394 91.7104 194.69 91.7379C194.986 91.7654 195.186 92.1507 195.151 92.5979Z" fill="#263238"/>
<path d="M189.819 92.0062C189.778 92.4534 189.51 92.7906 189.214 92.763C188.918 92.7355 188.718 92.3502 188.753 91.903C188.787 91.4558 189.062 91.1118 189.358 91.1394C189.654 91.1669 189.888 91.5522 189.819 92.0062Z" fill="#263238"/>
<path d="M191.904 92.2608C191.246 93.5798 190.411 94.8021 189.42 95.8935C189.706 96.1423 190.042 96.3259 190.405 96.4317C190.769 96.5374 191.151 96.5627 191.525 96.5058L191.904 92.2608Z" fill="#630F0F"/>
<path d="M192.915 98.6936C193.415 98.7287 193.916 98.662 194.389 98.4976C194.862 98.3332 195.297 98.0746 195.667 97.7373C195.679 97.7247 195.689 97.7097 195.695 97.6934C195.702 97.677 195.705 97.6596 195.705 97.642C195.704 97.6244 195.701 97.6071 195.694 97.591C195.687 97.5749 195.676 97.5603 195.664 97.5481C195.651 97.5359 195.636 97.5263 195.62 97.5199C195.603 97.5135 195.586 97.5103 195.568 97.5106C195.551 97.511 195.534 97.5147 195.517 97.5218C195.501 97.5288 195.487 97.5389 195.475 97.5515C195.055 97.9223 194.555 98.1885 194.013 98.3284C193.471 98.4683 192.904 98.4779 192.358 98.3565C192.341 98.3525 192.324 98.3521 192.307 98.3552C192.29 98.3583 192.274 98.3649 192.259 98.3747C192.245 98.3844 192.233 98.3969 192.224 98.4116C192.215 98.4262 192.209 98.4426 192.207 98.4597C192.2 98.4943 192.208 98.5299 192.227 98.5593C192.246 98.5888 192.276 98.6097 192.31 98.6179C192.53 98.6523 192.723 98.6799 192.915 98.6936Z" fill="#263238"/>
<path d="M196.912 91.504C196.955 91.514 197 91.514 197.043 91.504C197.075 91.4899 197.104 91.4696 197.128 91.4442C197.152 91.4188 197.17 91.3888 197.183 91.3561C197.195 91.3234 197.2 91.2886 197.199 91.2538C197.197 91.2189 197.189 91.1847 197.174 91.1531C197.012 90.7639 196.761 90.4183 196.441 90.1445C196.12 89.8707 195.74 89.6765 195.33 89.5776C195.261 89.5676 195.191 89.5851 195.134 89.6262C195.077 89.6673 195.039 89.7289 195.027 89.7978C195.017 89.867 195.035 89.9373 195.076 89.9939C195.117 90.0504 195.179 90.0887 195.248 90.1005C195.571 90.1838 195.87 90.3417 196.12 90.5616C196.371 90.7814 196.567 91.0571 196.692 91.3664C196.715 91.4053 196.747 91.4381 196.786 91.462C196.824 91.486 196.867 91.5004 196.912 91.504Z" fill="#263238"/>
<path d="M187.583 89.8115C187.626 89.8229 187.671 89.8238 187.714 89.8143C187.757 89.8047 187.797 89.7849 187.831 89.7565C188.076 89.5343 188.37 89.3731 188.689 89.2858C189.008 89.1985 189.344 89.1877 189.668 89.2542C189.734 89.2734 189.806 89.2653 189.866 89.2317C189.927 89.1982 189.972 89.142 189.991 89.0754C190.01 89.0079 190.003 88.9355 189.969 88.8737C189.936 88.812 189.879 88.7658 189.812 88.7451C189.403 88.6519 188.977 88.6589 188.571 88.7655C188.165 88.8721 187.791 89.0752 187.48 89.3575C187.455 89.3818 187.436 89.4107 187.423 89.4426C187.409 89.4745 187.402 89.5087 187.402 89.5432C187.402 89.5778 187.409 89.612 187.423 89.6438C187.436 89.6757 187.455 89.7047 187.48 89.729C187.506 89.7653 187.542 89.7939 187.583 89.8115Z" fill="#263238"/>
<path d="M212.853 118.893C213.301 119.767 213.665 120.524 214.023 121.343C214.381 122.161 214.711 122.952 215.069 123.764C215.757 125.388 216.355 127.039 216.92 128.711C218.067 132.093 218.946 135.559 219.548 139.079L219.733 140.455L219.83 141.143V141.308V141.611C219.83 141.831 219.864 142.051 219.864 142.299C219.838 143.553 219.588 144.792 219.128 145.959C218.443 147.741 217.571 149.445 216.527 151.044C215.58 152.54 214.553 153.984 213.452 155.371C212.373 156.751 211.225 158.076 210.012 159.341C209.663 159.71 209.194 159.941 208.689 159.993C208.184 160.046 207.678 159.915 207.261 159.625C206.845 159.335 206.546 158.905 206.419 158.414C206.293 157.922 206.347 157.402 206.572 156.947V156.892C207.996 153.926 209.503 150.927 210.7 148.003C211.01 147.273 211.285 146.544 211.526 145.835C211.765 145.174 211.965 144.498 212.124 143.813C212.236 143.386 212.275 142.945 212.241 142.505C212.241 142.505 212.241 142.547 212.241 142.505L212.207 142.368L212.076 141.797L211.821 140.662C211.028 137.581 210.056 134.548 208.911 131.58C208.361 130.066 207.735 128.573 207.129 127.074C206.827 126.331 206.503 125.588 206.18 124.851L205.217 122.705L205.162 122.581C204.678 121.568 204.617 120.405 204.991 119.347C205.365 118.289 206.144 117.423 207.157 116.939C208.17 116.456 209.333 116.394 210.391 116.769C211.449 117.143 212.315 117.922 212.798 118.935L212.853 118.893Z" fill="#7F3E3B"/>
<path d="M206.661 111.112C215.826 113.424 218.357 125.14 218.357 125.14L206.978 133.3C206.978 133.3 204.157 130.348 203.304 123.413C202.912 120.104 204.804 111.023 206.661 111.112Z" fill="#0076AB"/>
<path d="M208.072 155.488L202.774 157.469L206.833 162.905C206.833 162.905 211.409 160.531 210.542 157.896L208.072 155.488Z" fill="#7F3E3B"/>
<path d="M198.832 158.24C197.405 158 195.941 158.133 194.58 158.625L197.208 143.008C197.412 141.788 197.123 140.538 196.406 139.531C195.689 138.523 194.602 137.842 193.383 137.634L147.7 129.943C146.482 129.741 145.235 130.03 144.229 130.745C143.224 131.461 142.542 132.545 142.333 133.761L139.664 149.413C141.023 148.914 142.489 148.781 143.916 149.028C145.184 149.241 146.387 149.742 147.432 150.492C148.476 151.243 149.334 152.223 149.94 153.358C150.547 154.492 150.884 155.751 150.927 157.036C150.971 158.322 150.718 159.6 150.19 160.773C149.662 161.946 148.871 162.982 147.88 163.801C146.888 164.62 145.722 165.201 144.47 165.498C143.219 165.796 141.916 165.803 140.662 165.517C139.407 165.232 138.235 164.663 137.235 163.854L134.6 179.472C134.397 180.691 134.686 181.942 135.403 182.949C136.12 183.956 137.207 184.638 138.426 184.845L184.109 192.537C185.327 192.738 186.576 192.45 187.582 191.735C188.589 191.019 189.272 189.935 189.482 188.718L192.11 173.094C193.111 173.89 194.281 174.448 195.53 174.724C196.779 175 198.074 174.987 199.318 174.687C200.561 174.387 201.72 173.807 202.705 172.992C203.69 172.176 204.477 171.146 205.004 169.981C205.531 168.816 205.786 167.545 205.748 166.267C205.71 164.988 205.381 163.735 204.786 162.603C204.191 161.47 203.345 160.489 202.314 159.733C201.282 158.977 200.091 158.466 198.832 158.24Z" fill="#0076AB"/>
<path opacity="0.6" d="M198.832 158.24C197.405 158 195.941 158.133 194.58 158.625L197.208 143.008C197.412 141.788 197.123 140.538 196.406 139.531C195.689 138.523 194.602 137.842 193.383 137.634L147.7 129.943C146.482 129.741 145.235 130.03 144.229 130.745C143.224 131.461 142.542 132.545 142.333 133.761L139.664 149.413C141.023 148.914 142.489 148.781 143.916 149.028C145.184 149.241 146.387 149.742 147.432 150.492C148.476 151.243 149.334 152.223 149.94 153.358C150.547 154.492 150.884 155.751 150.927 157.036C150.971 158.322 150.718 159.6 150.19 160.773C149.662 161.946 148.871 162.982 147.88 163.801C146.888 164.62 145.722 165.201 144.47 165.498C143.219 165.796 141.916 165.803 140.662 165.517C139.407 165.232 138.235 164.663 137.235 163.854L134.6 179.472C134.397 180.691 134.686 181.942 135.403 182.949C136.12 183.956 137.207 184.638 138.426 184.845L184.109 192.537C185.327 192.738 186.576 192.45 187.582 191.735C188.589 191.019 189.272 189.935 189.482 188.718L192.11 173.094C193.111 173.89 194.281 174.448 195.53 174.724C196.779 175 198.074 174.987 199.318 174.687C200.561 174.387 201.72 173.807 202.705 172.992C203.69 172.176 204.477 171.146 205.004 169.981C205.531 168.816 205.786 167.545 205.748 166.267C205.71 164.988 205.381 163.735 204.786 162.603C204.191 161.47 203.345 160.489 202.314 159.733C201.282 158.977 200.091 158.466 198.832 158.24Z" fill="white"/>
<path d="M200.297 162.808L202.038 164.473C202.373 164.796 202.812 164.988 203.276 165.016C203.74 165.043 204.199 164.905 204.57 164.625L206.833 162.925L202.774 157.49L200.263 160.008C200.078 160.193 199.932 160.412 199.834 160.654C199.735 160.895 199.686 161.155 199.689 161.416C199.692 161.677 199.748 161.934 199.852 162.174C199.957 162.413 200.108 162.629 200.297 162.808Z" fill="#7F3E3B"/>
<path d="M149.296 131.408L149.929 129.062C150.035 128.786 150.225 128.55 150.471 128.387C150.718 128.224 151.009 128.143 151.305 128.154C152.201 128.117 153.096 128.255 153.94 128.56L157.518 129.881L157.346 131.339C157.201 132.591 155.804 133.637 154.222 133.685C153.16 133.699 152.1 133.586 151.064 133.348L150.679 133.266C150.459 133.25 150.246 133.187 150.053 133.082C149.86 132.976 149.692 132.83 149.561 132.654C149.43 132.478 149.338 132.275 149.292 132.06C149.247 131.845 149.248 131.623 149.296 131.408Z" fill="#7F3E3B"/>
<path d="M92.942 99.0238C95.233 96.3613 98.6799 89.4469 92.1989 86.8049C87.4173 84.851 77.2693 85.8486 71.442 94.9234C67.4584 96.2994 66.282 105.161 75.4805 107.025C84.6791 108.89 92.942 99.0238 92.942 99.0238Z" fill="#263238"/>
<path d="M113.726 269.751L103.214 270.625L104.996 282.981L113.781 282.266L113.726 269.751Z" fill="#FFC3BD"/>
<path opacity="0.2" d="M113.726 269.758L103.207 270.632L104.211 277.553L113.761 276.762L113.726 269.758Z" fill="black"/>
<path d="M93.6299 233.376C89.5019 217.552 78.8104 198.715 85.5872 183.49L115.041 183.4C115.041 183.4 115.77 214.739 115.976 229.496C116.183 244.928 114.896 273.962 114.896 273.962L102.849 274.877C102.849 274.877 94.5931 251.12 93.6299 233.376Z" fill="#0076AB"/>
<path d="M102.251 275.351L115.268 274.395C115.379 274.385 115.483 274.337 115.561 274.257C115.639 274.178 115.686 274.073 115.694 273.962L115.969 269.146C115.974 269.079 115.964 269.012 115.939 268.949C115.915 268.887 115.877 268.831 115.828 268.785C115.78 268.739 115.721 268.704 115.658 268.683C115.594 268.662 115.527 268.656 115.46 268.664L101.012 270.584C100.946 270.591 100.883 270.612 100.827 270.647C100.771 270.681 100.723 270.728 100.686 270.783C100.65 270.838 100.627 270.901 100.618 270.966C100.609 271.032 100.614 271.098 100.634 271.161L101.776 275.028C101.808 275.127 101.872 275.213 101.958 275.271C102.044 275.33 102.147 275.358 102.251 275.351Z" fill="#263238"/>
<path opacity="0.2" d="M85.484 198.467C85.3699 202.205 85.5217 205.945 85.9381 209.661C87.376 214.635 89.213 219.616 90.8642 224.446C93.0245 210.769 93.0314 194.828 85.484 198.467Z" fill="black"/>
<path d="M74.8132 270.522L64.2592 270.625L64.2455 283.078L73.0656 283.009L74.8132 270.522Z" fill="#FFC3BD"/>
<path d="M63.413 281.165C63.4233 281.096 63.4481 281.029 63.4857 280.97C63.5232 280.911 63.5728 280.86 63.6311 280.821C63.6894 280.782 63.7552 280.756 63.8243 280.744C63.8934 280.732 63.9642 280.735 64.0322 280.752C66.681 281.805 71.7034 281 73.6023 280.635C73.8119 280.592 74.0281 280.592 74.2376 280.636C74.4471 280.68 74.6453 280.766 74.82 280.89C76.3733 281.886 78.0563 282.664 79.8218 283.201C80.2005 284.214 80.2957 285.311 80.097 286.373H62.3053C62.8073 284.668 63.1776 282.927 63.413 281.165Z" fill="#263238"/>
<path d="M103.833 281.165C103.843 281.096 103.868 281.029 103.906 280.97C103.943 280.911 103.993 280.86 104.051 280.821C104.109 280.782 104.175 280.756 104.244 280.744C104.313 280.732 104.384 280.735 104.452 280.752C107.101 281.805 112.123 281 114.022 280.635C114.232 280.592 114.448 280.592 114.658 280.636C114.867 280.68 115.065 280.766 115.24 280.89C117.263 282.321 122.657 283.201 122.657 283.201C123.036 284.214 123.128 285.311 122.925 286.373H102.725C103.227 284.668 103.598 282.927 103.833 281.165Z" fill="#263238"/>
<path opacity="0.2" d="M74.8132 270.528L64.2524 270.625L64.2455 277.601L73.8362 277.519L74.8132 270.528Z" fill="black"/>
<path d="M62.7731 228.258C61.3421 212.275 56.8563 190.748 61.9475 183.4H96.4163C96.4163 183.4 89.3918 215.268 86.5091 230.019C83.5163 245.355 74.9094 274.801 74.9094 274.801L63.4955 274.835C63.4955 274.835 59.168 246.503 62.7731 228.258Z" fill="#0076AB"/>
<path opacity="0.2" d="M64.844 271.567C64.7698 271.566 64.6979 271.542 64.6386 271.497C64.5793 271.453 64.5356 271.391 64.5138 271.32C63.695 268.568 63.8258 236.954 65.8898 228.299C65.8898 227.157 65.649 224.914 65.3738 222.073C64.4312 212.441 62.6837 194.553 65.2912 184.405C65.314 184.313 65.3721 184.235 65.4528 184.187C65.5334 184.138 65.63 184.124 65.7212 184.147C65.8124 184.169 65.8909 184.228 65.9393 184.308C65.9876 184.389 66.002 184.485 65.9792 184.577C63.3992 194.615 65.1398 212.434 66.0755 222.011C66.3576 224.9 66.5846 227.178 66.5984 228.333C66.6018 228.363 66.6018 228.393 66.5984 228.423C64.617 236.61 64.4243 268.464 65.2224 271.127C65.2482 271.214 65.2389 271.307 65.1964 271.387C65.1539 271.467 65.0817 271.527 64.9954 271.554C64.9473 271.573 64.8947 271.577 64.844 271.567Z" fill="white"/>
<path d="M62.7043 275.262H75.6318C75.7352 275.265 75.8361 275.23 75.9158 275.165C75.9955 275.099 76.0487 275.006 76.0653 274.904L76.9184 270.315C76.9307 270.246 76.9274 270.174 76.9086 270.106C76.8899 270.038 76.8563 269.975 76.8101 269.922C76.764 269.869 76.7066 269.826 76.642 269.798C76.5774 269.769 76.5073 269.756 76.4368 269.758L62.3603 270.384C62.3009 270.386 62.2425 270.399 62.1887 270.425C62.1348 270.45 62.0867 270.486 62.0474 270.53C62.008 270.575 61.9782 270.627 61.9599 270.683C61.9415 270.74 61.935 270.8 61.9406 270.859L62.2296 274.822C62.2399 274.941 62.2942 275.052 62.3819 275.133C62.4697 275.215 62.5846 275.261 62.7043 275.262Z" fill="#263238"/>
<path d="M108.126 127.734C108.814 130.486 109.447 133.238 110.059 135.99C110.672 138.742 111.25 141.494 111.786 144.246L112.612 148.374L113.382 152.502C113.912 155.254 114.38 158.047 114.862 160.827L113.74 158.316C113.89 158.831 114.213 159.278 114.655 159.582C115.536 160.177 116.528 160.586 117.572 160.786C118.964 161.107 120.383 161.293 121.81 161.343C122.574 161.384 123.358 161.412 124.15 161.398C124.542 161.398 124.941 161.398 125.34 161.398C125.739 161.398 126.172 161.398 126.448 161.398L127.424 161.467C128.247 161.519 129.029 161.838 129.654 162.374C130.279 162.911 130.713 163.636 130.89 164.44C131.067 165.245 130.978 166.085 130.636 166.834C130.294 167.584 129.717 168.201 128.993 168.594C128.443 168.897 128.051 169.124 127.583 169.365C127.115 169.606 126.681 169.812 126.207 170.053C125.285 170.452 124.342 170.83 123.365 171.147C122.374 171.472 121.366 171.743 120.345 171.959C119.27 172.173 118.183 172.325 117.091 172.413C115.91 172.497 114.725 172.479 113.548 172.358C112.239 172.248 110.949 171.975 109.708 171.546C108.316 171.082 106.995 170.429 105.78 169.606C104.499 168.719 103.358 167.645 102.395 166.42C101.98 165.904 101.671 165.31 101.487 164.673L101.274 163.909C100.517 161.198 99.7394 158.495 99.0238 155.77L97.9299 151.697L96.8911 147.61C96.2031 144.858 95.5151 142.148 94.889 139.409C94.2629 136.671 93.6368 133.905 93.0933 131.153C92.7038 129.184 93.0982 127.141 94.1925 125.458C95.2868 123.775 96.9946 122.586 98.9525 122.143C100.91 121.7 102.964 122.038 104.676 123.087C106.388 124.135 107.623 125.81 108.119 127.755L108.126 127.734Z" fill="#FFC3BD"/>
<path d="M125.966 162.079L126.11 166.524C127.906 170.837 133.052 167.562 133.052 167.562L136.162 166.991C136.704 166.853 137.179 166.529 137.504 166.074C137.828 165.619 137.982 165.065 137.937 164.508L137.855 161.398C137.875 160.756 137.645 160.131 137.212 159.657C136.778 159.183 136.177 158.897 135.536 158.859L132.784 158.914C131.981 158.928 131.194 159.141 130.493 159.533L125.966 162.079Z" fill="#FFC3BD"/>
<path d="M102.856 120.07C109.186 123.4 113.32 135.151 113.32 135.151C111.986 140.655 106.606 150.693 101.624 150.631C101.624 150.631 94.311 141.198 93.5198 134.373C92.5566 126.124 90.0592 113.341 102.856 120.07Z" fill="#263238"/>
<path d="M97.008 118.116C87.2397 117.187 77.3986 117.344 67.6648 118.584C62.037 119.375 58.0328 122.877 58.7208 134.408C60.0968 157.8 57.964 176.032 60.9362 184.439C60.9362 184.439 104.225 196.823 116.568 184.955C119.568 156.809 109.468 133.444 104.872 123.723C104.152 122.192 103.051 120.873 101.674 119.891C100.296 118.909 98.6897 118.297 97.008 118.116Z" fill="#263238"/>
<path d="M93.7538 120.675C92.6323 119.574 91.4558 120.214 90.9123 118.556C90.6727 117.254 90.8915 115.91 91.5315 114.751L78.1774 107.541C78.4389 112.454 78.6384 116.334 76.4574 118.288C75.8245 121.948 82.6494 125.601 91.7379 125.656C97.524 125.691 95.3706 122.258 93.7538 120.675Z" fill="#FFC3BD"/>
<path opacity="0.2" d="M91.332 115.164L80.7919 112.529C83.4544 116.719 88.2498 119.01 90.8298 117.999C90.756 117.027 90.9288 116.052 91.332 115.164Z" fill="black"/>
<path d="M86.9701 91.1256C79.9938 89.5776 73.9669 95.3706 75.3154 101.686C76.6639 108.002 77.7303 112.268 82.0991 114.414C90.7816 118.694 95.0197 114.566 95.7283 107.968C96.3682 102.024 94.0496 92.6874 86.9701 91.1256Z" fill="#FFC3BD"/>
<path opacity="0.2" d="M85.601 102.34C84.7812 102.135 83.9136 102.261 83.1861 102.691C84.0063 102.734 84.827 102.615 85.601 102.34Z" fill="black"/>
<path opacity="0.2" d="M85.6491 102.925C85.2636 102.907 84.8787 102.974 84.522 103.121C84.1653 103.269 83.8454 103.493 83.5851 103.778C84.3269 103.647 85.0312 103.356 85.6491 102.925Z" fill="black"/>
<path d="M76.196 107.025C80.097 107.899 81.7 105.945 81.7 103.757C81.7 101.432 79.5053 97.5034 77.0973 96.781C77.9573 91.621 92.1782 98.845 90.8229 91.6966C90.8229 91.6966 90.4376 90.472 86.7637 89.784C83.0898 89.096 73.272 91.3114 73.96 98.6523C74.648 105.993 76.196 107.025 76.196 107.025Z" fill="#263238"/>
<path d="M71.2286 95.288C72.1835 93.372 72.4531 91.1866 71.9923 89.096C71.9923 89.096 76.2717 91.9237 71.2286 95.288Z" fill="#263238"/>
<path d="M89.1717 108.986C89.4635 108.964 89.7533 108.92 90.0386 108.855C90.0608 108.85 90.0818 108.841 90.1004 108.828C90.119 108.815 90.1348 108.799 90.1469 108.779C90.1591 108.76 90.1673 108.739 90.1712 108.716C90.175 108.694 90.1744 108.671 90.1693 108.649C90.1653 108.626 90.1567 108.605 90.1439 108.586C90.1311 108.567 90.1144 108.55 90.095 108.538C90.0756 108.526 90.0538 108.518 90.031 108.514C90.0083 108.511 89.9851 108.512 89.9629 108.518C89.2484 108.693 88.5031 108.697 87.7864 108.533C87.0697 108.368 86.4014 108.038 85.8349 107.569C85.8189 107.552 85.7996 107.539 85.7783 107.53C85.7571 107.521 85.7342 107.516 85.7111 107.516C85.6879 107.516 85.6651 107.521 85.6438 107.53C85.6225 107.539 85.6033 107.552 85.5872 107.569C85.5553 107.602 85.5374 107.646 85.5374 107.693C85.5374 107.739 85.5553 107.783 85.5872 107.816C86.0774 108.239 86.6467 108.56 87.2621 108.761C87.8774 108.962 88.5265 109.038 89.1717 108.986Z" fill="#263238"/>
<path d="M73.7261 107.328C74.1726 107.933 74.7343 108.444 75.379 108.831C76.0237 109.219 76.7386 109.475 77.4826 109.585C79.4847 109.86 80.2346 108.009 79.4641 106.262C78.7761 104.686 76.9047 102.65 75.0058 103.172C73.1069 103.695 72.6391 105.821 73.7261 107.328Z" fill="#FFC3BD"/>
<path d="M86.7362 102.409C86.8187 102.966 87.1765 103.379 87.5411 103.324C87.9058 103.269 88.1397 102.767 88.0571 102.209C87.9746 101.652 87.6237 101.246 87.259 101.301C86.8944 101.356 86.688 101.824 86.7362 102.409Z" fill="#263238"/>
<path d="M93.2928 101.528C93.3754 102.092 93.7332 102.498 94.0978 102.443C94.4624 102.388 94.6964 101.893 94.6138 101.336C94.5312 100.778 94.1804 100.365 93.8157 100.42C93.4511 100.476 93.2172 100.971 93.2928 101.528Z" fill="#263238"/>
<path d="M90.816 102.264L91.1325 106.984C91.1325 106.984 92.6805 107.252 93.5199 106.358C92.987 104.783 92.0555 103.373 90.816 102.264Z" fill="#ED847E"/>
<path d="M84.5759 101.136C84.5195 101.151 84.4601 101.151 84.4039 101.135C84.3477 101.12 84.2967 101.089 84.2565 101.047C84.2163 101.004 84.1883 100.952 84.1755 100.895C84.1627 100.838 84.1655 100.779 84.1837 100.723C84.3146 100.212 84.5649 99.7386 84.9141 99.3428C85.2634 98.9469 85.7015 98.6395 86.1927 98.4459C86.2757 98.4199 86.3656 98.4277 86.4429 98.4677C86.5202 98.5076 86.5786 98.5764 86.6055 98.6592C86.6317 98.7431 86.6241 98.834 86.5842 98.9124C86.5444 98.9908 86.4755 99.0506 86.3922 99.0789C86.0044 99.237 85.6596 99.4846 85.3857 99.8015C85.1119 100.118 84.9169 100.495 84.8167 100.902C84.8011 100.959 84.7706 101.011 84.7282 101.052C84.6859 101.093 84.6333 101.122 84.5759 101.136Z" fill="#263238"/>
<path d="M95.4463 99.0238C95.3919 99.0288 95.3372 99.0194 95.2876 98.9964C95.2381 98.9735 95.1955 98.9378 95.1642 98.8931C94.9286 98.5514 94.6145 98.2712 94.2481 98.076C93.8818 97.8809 93.4739 97.7765 93.0589 97.7717C92.9677 97.7717 92.8802 97.7354 92.8157 97.6709C92.7512 97.6064 92.7149 97.5189 92.7149 97.4277C92.7149 97.3364 92.7512 97.2489 92.8157 97.1844C92.8802 97.1199 92.9677 97.0837 93.0589 97.0837C93.583 97.0795 94.1003 97.2025 94.5665 97.4421C95.0326 97.6818 95.4337 98.031 95.7352 98.4597C95.7605 98.4949 95.7787 98.5348 95.7885 98.577C95.7984 98.6192 95.7999 98.663 95.7929 98.7058C95.7859 98.7486 95.7705 98.7896 95.7476 98.8265C95.7247 98.8633 95.6948 98.8953 95.6595 98.9206C95.633 98.9516 95.6004 98.9767 95.5637 98.9945C95.527 99.0123 95.487 99.0222 95.4463 99.0238Z" fill="#263238"/>
<path d="M135.536 144.019C134.096 144.121 132.706 144.595 131.504 145.395L130.259 129.571C130.157 128.34 129.573 127.199 128.633 126.398C127.694 125.596 126.475 125.198 125.244 125.292L79.0581 128.931C77.8279 129.035 76.6883 129.62 75.8869 130.559C75.0856 131.498 74.6874 132.716 74.7787 133.947L78.4251 180.132C78.5234 181.364 79.1069 182.507 80.0473 183.31C80.9877 184.112 82.2082 184.508 83.4406 184.412L129.619 180.765C130.851 180.665 131.994 180.081 132.797 179.142C133.6 178.202 133.999 176.982 133.905 175.75L132.653 159.96C133.965 160.574 135.414 160.835 136.857 160.717C138.93 160.368 140.797 159.255 142.09 157.598C143.383 155.94 144.008 153.859 143.843 151.763C143.677 149.667 142.732 147.71 141.194 146.277C139.657 144.843 137.638 144.038 135.536 144.019Z" fill="#0076AB"/>
<path d="M68.5661 137.703L67.8781 138.969L67.0869 140.386C66.5778 141.35 66.0549 142.313 65.5802 143.29C64.6262 145.193 63.7719 147.145 63.0208 149.138C62.6562 150.101 62.3328 151.057 62.092 152C61.8173 152.902 61.6013 153.821 61.4453 154.752C61.1566 156.248 61.1078 157.781 61.3008 159.293L59.7184 156.541C60.3772 157.444 61.1627 158.248 62.0507 158.928C63.218 159.86 64.4428 160.717 65.7178 161.494C67.0456 162.347 68.4698 163.166 69.9008 163.985L72.0887 165.203C72.7767 165.615 73.6023 166.028 74.2559 166.427L74.5861 166.627C75.3165 167.069 75.8811 167.74 76.1929 168.535C76.5048 169.33 76.5466 170.205 76.312 171.027C76.0774 171.848 75.5793 172.569 74.8945 173.079C74.2097 173.59 73.3761 173.861 72.5221 173.851C71.4763 173.851 70.5819 173.782 69.6187 173.706C68.6555 173.631 67.7405 173.514 66.8048 173.362C64.9031 173.077 63.0212 172.672 61.1701 172.151C59.211 171.602 57.3009 170.891 55.4597 170.025C53.2831 169.023 51.2828 167.675 49.536 166.035C48.9075 165.436 48.4351 164.692 48.16 163.868L47.9674 163.276C46.8901 160.008 46.4875 156.556 46.784 153.128C47.0177 150.142 47.5902 147.192 48.4903 144.335C49.3284 141.651 50.368 139.034 51.6 136.506C52.1986 135.268 52.8109 134.043 53.4989 132.853C53.836 132.254 54.1869 131.656 54.5447 131.064L55.1088 130.17L55.4047 129.715L55.7624 129.186C56.8677 127.513 58.5818 126.338 60.5402 125.91C62.4986 125.481 64.5469 125.834 66.2495 126.892C67.9521 127.95 69.1747 129.631 69.6574 131.577C70.1402 133.522 69.8449 135.58 68.8344 137.311L68.5661 137.703Z" fill="#FFC3BD"/>
<path d="M63.1928 120.07C51.7858 126.165 47.5339 139.781 47.5339 139.781C49.7906 144.081 63.3992 148.725 68.5179 147.459C68.5179 147.459 73.4234 138.515 74.4347 130.52C75.3704 123.111 69.8733 116.499 63.1928 120.07Z" fill="#263238"/>
<path d="M71.1736 167.184L71.4076 171.628C73.2927 175.908 78.3701 172.53 78.3701 172.53L81.473 171.897C82.0113 171.748 82.4794 171.414 82.7944 170.953C83.1093 170.492 83.2505 169.934 83.193 169.379L83.0554 166.276C83.0723 165.63 82.8354 165.003 82.3956 164.53C81.9557 164.056 81.3479 163.774 80.7024 163.744L77.9504 163.854C77.146 163.891 76.3634 164.127 75.6732 164.542L71.1736 167.184Z" fill="#FFC3BD"/>
</svg>
