<svg width="309" height="335" viewBox="0 0 309 335" fill="none" xmlns="http://www.w3.org/2000/svg">
<path opacity="0.7" d="M44.5731 121.259C44.5731 121.259 27.5105 165.323 51.4887 209.693C75.4669 254.063 124.855 277.503 164.384 297.546C203.913 317.589 244.96 307.827 264.465 275C283.969 242.172 257.219 218.738 257.182 171.927C257.145 125.115 264.189 112.722 238.822 73.1742C213.454 33.6268 151.269 24.8691 104.243 54.2022C57.217 83.5354 44.5731 121.259 44.5731 121.259Z" fill="white"/>
<path d="M40.4911 131.89C63.637 108.75 83.2393 128.162 91.5013 97.0912C110.155 26.9009 187.524 27.568 197.696 77.5133C216.025 167.477 295.86 110.347 295.267 174.778C294.655 243.573 244.042 297.178 153.283 302.509C71.9663 307.313 2.13707 170.231 40.4911 131.89Z" fill="#0076AB"/>
<path opacity="0.7" d="M40.4911 131.89C63.637 108.75 83.2393 128.162 91.5013 97.0912C110.155 26.9009 187.524 27.568 197.696 77.5133C216.025 167.477 295.86 110.347 295.267 174.778C294.655 243.573 244.042 297.178 153.283 302.509C71.9663 307.313 2.13707 170.231 40.4911 131.89Z" fill="white"/>
<path d="M97.9211 92.44C97.7743 91.216 98.3312 90.4265 99.5246 90.2858C100.718 90.145 101.44 90.7631 101.587 92.0116L102.058 95.9957C102.199 97.2197 101.642 98.0092 100.449 98.15C99.2553 98.2907 98.5331 97.6726 98.3863 96.4241L97.9211 92.44ZM99.6041 96.3691C99.6715 96.9076 99.9224 97.1035 100.32 97.0606C100.718 97.0178 100.932 96.7607 100.853 96.2222L100.369 92.0667C100.302 91.5281 100.033 91.3323 99.6531 91.3813C99.2737 91.4302 99.0411 91.675 99.1207 92.2136L99.6041 96.3691ZM104.317 89.8145L105.443 89.6799L102.083 102.361L100.957 102.495L104.317 89.8145ZM104.445 96.1732C104.298 94.9492 104.861 94.1536 106.055 94.019C107.248 93.8843 107.97 94.4963 108.117 95.7387L108.582 99.7228C108.729 100.947 108.172 101.736 106.973 101.877C105.773 102.018 105.057 101.4 104.91 100.151L104.445 96.1732ZM106.134 100.096C106.195 100.635 106.446 100.837 106.844 100.788C107.242 100.739 107.456 100.488 107.383 99.9493L106.893 95.7938C106.832 95.2613 106.563 95.0655 106.183 95.1083C105.804 95.1512 105.571 95.4082 105.651 95.9407L106.134 100.096Z" fill="#263238"/>
<path d="M111.422 104.631L97.248 106.29C96.9258 106.328 96.6018 106.236 96.347 106.035C96.0923 105.834 95.9277 105.541 95.8893 105.219L94.188 90.604C94.1579 90.3321 94.1891 90.0568 94.2791 89.7985C94.3691 89.5401 94.5157 89.3051 94.7082 89.1107L100.62 83.2906C100.905 83.0083 101.276 82.8295 101.674 82.7829C102.073 82.7363 102.475 82.8246 102.817 83.0336L109.91 87.3176C110.144 87.4594 110.342 87.6529 110.489 87.883C110.637 88.1132 110.73 88.374 110.761 88.6456L112.475 103.26C112.516 103.581 112.429 103.906 112.232 104.163C112.034 104.42 111.743 104.588 111.422 104.631V104.631Z" stroke="#263238" stroke-linecap="round" stroke-linejoin="round"/>
<path d="M102.854 84.9124C102.876 85.092 102.844 85.274 102.762 85.4354C102.681 85.5967 102.553 85.7301 102.395 85.8186C102.237 85.9071 102.057 85.9467 101.876 85.9324C101.696 85.918 101.524 85.8503 101.382 85.738C101.241 85.6256 101.135 85.4736 101.08 85.3013C101.025 85.1291 101.022 84.9443 101.073 84.7705C101.123 84.5967 101.223 84.4418 101.362 84.3254C101.5 84.209 101.67 84.1364 101.85 84.1168C102.089 84.0893 102.329 84.1576 102.517 84.3068C102.705 84.456 102.826 84.6738 102.854 84.9124V84.9124Z" stroke="#263238" stroke-linecap="round" stroke-linejoin="round"/>
<path d="M101.954 74.692C101.954 74.692 104.72 85.3408 101.954 85.0348" stroke="#263238" stroke-linecap="round" stroke-linejoin="round"/>
<path d="M101.25 82.8928C101.789 79.9307 104.5 74.9368 104.5 74.9368" stroke="#263238" stroke-linecap="round" stroke-linejoin="round"/>
<path d="M101.954 85.0165C101.793 85.0061 101.638 84.9458 101.512 84.8438C101.386 84.7419 101.294 84.6033 101.25 84.4473" stroke="#263238" stroke-linecap="round" stroke-linejoin="round"/>
<path d="M114.298 78.6272C116.779 80.6321 118.68 83.2623 119.806 86.2466" stroke="#263238" stroke-linecap="round" stroke-linejoin="round"/>
<path d="M85.6505 88.0765C86.3616 85.3406 87.7089 82.8113 89.5825 80.6946C91.4561 78.5779 93.8032 76.9337 96.4326 75.8958C99.0619 74.8579 101.899 74.4557 104.714 74.7219C107.528 74.9881 110.239 75.9151 112.627 77.4277" stroke="#263238" stroke-linecap="round" stroke-linejoin="round"/>
<path d="M91.2381 106.118C88.0021 103.309 85.8842 99.4293 85.2711 95.1879" stroke="#263238" stroke-linecap="round" stroke-linejoin="round"/>
<path d="M102.321 110.525C99.0476 110.394 95.8723 109.367 93.1415 107.556" stroke="#263238" stroke-linecap="round" stroke-linejoin="round"/>
<path d="M120.779 89.992C121.469 94.7014 120.26 99.4919 117.419 103.31C114.577 107.129 110.335 109.662 105.626 110.353" stroke="#263238" stroke-linecap="round" stroke-linejoin="round"/>
<path d="M57.5969 149.708L80.1299 154.077L77.5055 167.613C77.4543 167.878 77.3003 168.11 77.0774 168.261C76.8545 168.411 76.5809 168.467 76.3169 168.416L55.7691 164.432C55.505 164.381 55.2721 164.227 55.1216 164.004C54.9711 163.781 54.9153 163.508 54.9665 163.244L57.5909 149.707L57.5969 149.708Z" stroke="#263238" stroke-width="0.998248" stroke-linecap="round" stroke-linejoin="round"/>
<path d="M80.9138 154.386L57.1948 149.814L57.8898 146.208C57.9408 145.944 58.0948 145.71 58.3179 145.559C58.541 145.408 58.815 145.352 59.0796 145.403L80.8276 149.595C81.0837 149.651 81.3083 149.803 81.4546 150.021C81.6008 150.238 81.6573 150.504 81.6123 150.762L80.9173 154.368L80.9138 154.386Z" stroke="#263238" stroke-linecap="round" stroke-linejoin="round"/>
<path d="M71.5859 147.794L68.3589 147.172L64.6615 166.354L67.8886 166.976L71.5859 147.794Z" stroke="#263238" stroke-linecap="round" stroke-linejoin="round"/>
<path d="M69.9712 147.483C69.9712 147.483 75.571 143.395 78.1597 144.631C80.7485 145.868 79.4694 149.313 78.1597 149.062" stroke="#263238" stroke-linecap="round" stroke-linejoin="round"/>
<path d="M72.1866 147.906C72.1866 147.906 76.7399 145.641 77.4009 146.682C78.0618 147.722 76.0973 148.683 74.5857 148.389" stroke="#263238" stroke-linecap="round" stroke-linejoin="round"/>
<path d="M70.1241 147.202C70.1241 147.202 72.4865 142.918 72.1805 141.535H73.7533C73.7533 141.535 74.2674 143.163 72.4314 145.947" stroke="#263238" stroke-linecap="round" stroke-linejoin="round"/>
<path d="M69.9712 147.483C69.9712 147.483 66.2992 141.608 63.4289 141.798C60.5586 141.988 60.4791 145.653 61.7826 145.904" stroke="#263238" stroke-linecap="round" stroke-linejoin="round"/>
<path d="M67.7557 147.055C67.7557 147.055 64.3713 143.254 63.3738 143.964C62.3762 144.674 63.845 146.302 65.3567 146.59" stroke="#263238" stroke-linecap="round" stroke-linejoin="round"/>
<path d="M69.9345 147.165C69.9345 147.165 69.3225 142.3 70.1364 141.143L68.6676 140.531C68.6676 140.531 67.5905 141.853 68.2637 145.121" stroke="#263238" stroke-linecap="round" stroke-linejoin="round"/>
<path d="M86.636 140.604C89.159 143.792 90.7876 147.595 91.3545 151.62" stroke="#263238" stroke-linecap="round" stroke-linejoin="round"/>
<path d="M48.288 144.276C49.9464 141.07 52.3388 138.301 55.2703 136.194C58.2017 134.088 61.5893 132.703 65.1571 132.154C68.7249 131.605 72.372 131.906 75.8014 133.033C79.2308 134.16 82.3454 136.081 84.8917 138.64" stroke="#263238" stroke-linecap="round" stroke-linejoin="round"/>
<path d="M50.124 168.328C46.8903 163.913 45.3484 158.484 45.7788 153.028" stroke="#263238" stroke-linecap="round" stroke-linejoin="round"/>
<path d="M62.7128 176.939C58.6626 175.857 54.9888 173.68 52.0946 170.647" stroke="#263238" stroke-linecap="round" stroke-linejoin="round"/>
<path d="M91.5014 156.578C91.031 162.637 88.1729 168.262 83.5558 172.215C78.9386 176.167 72.9404 178.124 66.8806 177.655" stroke="#263238" stroke-linecap="round" stroke-linejoin="round"/>
<path d="M182.151 95.5551L180.229 94.5759C180.514 93.732 180.611 92.8357 180.511 91.9504C181.123 92.2442 181.771 92.5624 182.347 92.8256C182.316 93.6151 182.267 94.5453 182.151 95.5551Z" stroke="#263238" stroke-linecap="round" stroke-linejoin="round"/>
<path d="M184.948 94.0863C185.557 94.3968 186.208 94.6154 186.882 94.735C187.586 98.498 187.034 102.388 185.309 105.806C184.813 106.773 179.605 104.105 180.094 103.138C181.21 100.747 181.906 98.182 182.151 95.5551C182.267 94.5453 182.334 93.615 182.365 92.8256C183.454 93.3396 184.409 93.8109 184.948 94.0863Z" stroke="#263238" stroke-linecap="round" stroke-linejoin="round"/>
<path d="M191.159 81.9503C192.613 82.6936 193.751 83.9336 194.367 85.4449C194.984 86.9562 195.038 88.6386 194.519 90.1863C194.001 91.7339 192.944 93.0442 191.541 93.8789C190.139 94.7136 188.483 95.0174 186.875 94.735C186.202 94.6154 185.551 94.3968 184.941 94.0863C184.403 93.8109 183.448 93.3396 182.359 92.8256C181.747 92.5379 181.135 92.2442 180.523 91.9504C179.017 91.2588 177.561 90.6224 176.808 90.3776L183.393 77.5256C184.764 78.5293 189.617 81.1609 191.159 81.9503Z" stroke="#263238" stroke-linecap="round" stroke-linejoin="round"/>
<path d="M176.998 71.4423C178.843 73.7439 180.99 75.786 183.381 77.5133L176.796 90.3653C173.994 89.4475 171.081 88.9102 168.136 88.768L165.584 88.6334L175.376 69.4594L176.998 71.4423Z" stroke="#263238" stroke-linecap="round" stroke-linejoin="round"/>
<path d="M162.616 89.1658L174.097 66.736C174.186 66.5667 174.337 66.439 174.519 66.3806C174.701 66.3222 174.899 66.3378 175.07 66.4239L175.914 66.8584C176.085 66.9461 176.214 67.0974 176.273 67.2796C176.333 67.4617 176.318 67.66 176.233 67.8315L175.394 69.4655L165.602 88.6395L164.77 90.2735C164.727 90.358 164.667 90.433 164.595 90.4944C164.522 90.5558 164.438 90.6023 164.348 90.6313C164.258 90.6603 164.163 90.6712 164.068 90.6633C163.973 90.6555 163.881 90.6291 163.797 90.5856L162.946 90.1511C162.858 90.1101 162.779 90.0516 162.714 89.9791C162.649 89.9066 162.6 89.8217 162.569 89.7295C162.538 89.6373 162.526 89.5398 162.534 89.4429C162.542 89.3459 162.57 89.2517 162.616 89.1658V89.1658Z" stroke="#263238" stroke-linecap="round" stroke-linejoin="round"/>
<path d="M162.958 75.1816L158.534 72.9172" stroke="#263238" stroke-linecap="round" stroke-linejoin="round"/>
<path d="M168.142 68.0824L165.351 63.1987" stroke="#263238" stroke-linecap="round" stroke-linejoin="round"/>
<path d="M160.235 83.5354L154.647 84.1291" stroke="#263238" stroke-linecap="round" stroke-linejoin="round"/>
<path d="M197.224 62.4092C193.361 58.831 188.611 56.3523 183.467 55.2304" stroke="#263238" stroke-linecap="round" stroke-linejoin="round"/>
<path d="M188.656 111.412C192.948 109.595 196.751 106.791 199.754 103.228C202.758 99.6645 204.878 95.4423 205.942 90.9048C207.006 86.3674 206.984 81.6428 205.877 77.1156C204.771 72.5883 202.611 68.3862 199.574 64.8511" stroke="#263238" stroke-linecap="round" stroke-linejoin="round"/>
<path d="M157.867 106.632C163.227 111.24 170.064 113.768 177.132 113.756" stroke="#263238" stroke-linecap="round" stroke-linejoin="round"/>
<path d="M148.044 89.5881C149.033 94.9141 151.47 99.8648 155.088 103.897" stroke="#263238" stroke-linecap="round" stroke-linejoin="round"/>
<path d="M177.132 54.545C169.28 54.545 161.749 57.6644 156.196 63.2171C150.643 68.7698 147.524 76.3009 147.524 84.1535" stroke="#263238" stroke-linecap="round" stroke-linejoin="round"/>
<path d="M124.696 131.822C122.211 129.601 119.635 130.598 118.319 131.351C118.056 129.845 117.095 127.251 113.815 126.81C110.228 126.333 107.291 129.827 108.252 134.699C108.949 138.205 111.189 141.431 112.389 142.93C112.53 143.114 112.664 143.273 112.774 143.401H113.386C115.32 143.322 119.213 142.936 122.322 141.186C126.624 138.738 127.389 134.233 124.696 131.822Z" stroke="#263238" stroke-linecap="round" stroke-linejoin="round"/>
<path d="M110.743 145.684C110.743 145.684 110.577 145.984 110.351 146.51" stroke="#263238" stroke-linecap="round" stroke-linejoin="round"/>
<path d="M109.727 148.218C108.747 151.418 108.074 156.902 113.289 160.225C126.177 168.444 130.516 149.056 120.633 150.8C113.845 152.024 121.024 169.962 131.649 166.345" stroke="#263238" stroke-linecap="round" stroke-linejoin="round" stroke-dasharray="2.98 2.98"/>
<path d="M132.536 166.009C132.805 165.886 133.081 165.751 133.356 165.605" stroke="#263238" stroke-linecap="round" stroke-linejoin="round"/>
<path d="M116.642 284.461C116.642 284.461 109.366 289.412 106.434 289.082C106.112 289.065 105.806 288.935 105.571 288.715C103.662 286.744 102.126 283.28 102.126 283.28C102.126 283.28 103.038 282.019 105.847 285.367L107.628 283.733L103.956 280.024C103.956 280.024 106.03 278.378 109.555 280.477C109.433 280.22 107.162 275.275 108.876 268.543L100.308 260.275L107.909 253.653L108.521 253.139C108.521 253.139 108.998 253.61 109.745 254.363C110.492 255.116 111.526 256.021 112.646 257.007C115.326 259.363 118.57 261.903 119.99 261.903C122.548 261.817 116.642 284.461 116.642 284.461Z" fill="white"/>
<path opacity="0.4" d="M111.018 281.218C111.018 281.218 106.869 285.502 106.434 289.082C106.112 289.065 105.806 288.935 105.571 288.715C103.662 286.744 102.126 283.28 102.126 283.28C102.126 283.28 103.038 282.019 105.847 285.367L107.628 283.733L103.956 280.024C103.956 280.024 106.03 278.378 109.555 280.477C109.433 280.22 107.162 275.275 108.876 268.543L100.308 260.275L107.909 253.653L109.745 254.345C110.498 255.055 111.526 256.003 112.646 256.988C111.036 259.345 107.591 264.222 107.591 264.222L110.571 268.261C110.571 268.261 108.735 278.445 111.018 281.218Z" fill="#0076AB"/>
<path d="M116.642 284.461C116.642 284.461 109.366 289.412 106.434 289.082C106.112 289.065 105.806 288.935 105.571 288.715C103.662 286.744 102.126 283.28 102.126 283.28C102.126 283.28 103.038 282.019 105.847 285.367L107.628 283.733L103.956 280.024C103.956 280.024 106.03 278.378 109.555 280.477C109.433 280.22 107.162 275.275 108.876 268.543L100.308 260.275L107.909 253.653L108.521 253.139C108.521 253.139 108.998 253.61 109.745 254.363C110.492 255.116 111.526 256.021 112.646 257.007C115.326 259.363 118.57 261.903 119.99 261.903C122.548 261.817 116.642 284.461 116.642 284.461Z" stroke="#263238" stroke-linecap="round" stroke-linejoin="round"/>
<path d="M107.652 283.733C108.055 282.527 108.708 281.42 109.568 280.483" stroke="#263238" stroke-linecap="round" stroke-linejoin="round"/>
<path d="M243.387 226.823C242.239 228.498 240.852 229.995 239.269 231.266C225.89 242.343 195.046 247.79 195.046 247.79C195.046 247.79 194.011 249.338 192.42 251.542C189.568 255.501 184.899 261.585 181.092 264.632C179.482 265.924 178.032 266.67 176.924 266.468L182.714 287.845L185.303 297.123C185.303 297.123 158.705 308.751 113.215 295.459C113.215 295.459 112.695 289.522 113.08 288.256C113.08 288.194 113.117 288.133 113.142 288.066C113.605 287.222 114.209 286.465 114.929 285.826C114.929 285.826 114.672 282.007 114.543 278.121C114.396 275.643 114.427 273.158 114.635 270.685C114.959 268.727 116.391 263.99 117.113 261.664L117.536 260.312L115.271 239.112L114.623 232.992L114.586 232.674C114.586 232.631 114.586 232.582 114.586 232.521L114.231 229.246L102.53 232.821C102.53 232.821 103.142 234.191 103.986 236.113C105.522 239.632 107.78 244.987 108.27 247.129C108.307 247.304 108.356 247.476 108.417 247.643C109.5 250.734 113.625 253.543 113.625 253.543L102.542 266.493L99.2676 264.204C98.8484 264.514 98.4065 264.792 97.9457 265.036C95.7914 266.205 91.2749 267.925 86.3177 265.299C84.1695 264.092 82.3041 262.439 80.8464 260.452C72.156 249.167 68.3738 239.932 69.6039 229.118C70.8341 218.304 119.5 184.932 129.158 185.28L143.521 188.451C143.833 188.194 144.672 187.533 145.321 187.563C147.934 187.698 148.001 190.733 148.001 190.733L180.192 195.96C180.192 195.96 183.528 194.289 184.109 194.314C184.53 194.342 184.936 194.475 185.292 194.7C185.648 194.926 185.942 195.237 186.147 195.605C186.147 195.605 194.483 190.611 197.163 191.774C205.988 195.58 249.905 216.921 243.387 226.823Z" fill="#0076AB"/>
<path opacity="0.2" d="M131.551 279.712C127.893 283.733 122.981 286.397 117.615 287.27C115.92 287.539 114.433 287.809 113.129 288.078C113.593 287.235 114.197 286.477 114.916 285.838C114.916 285.838 114.659 282.019 114.531 278.133C118.307 280.624 124.892 283.5 131.551 279.712Z" fill="#0076AB"/>
<path opacity="0.2" d="M117.101 261.695L117.524 260.342L115.259 239.143C118.644 243.996 130.712 260.526 139.029 262.313C147.726 264.173 124.476 267.472 117.101 261.695Z" fill="#0076AB"/>
<path opacity="0.2" d="M182.702 287.876C173.613 286.842 160.767 284.553 159.482 279.798C157.481 272.368 167.218 267.913 181.092 264.663C179.482 265.954 178.032 266.701 176.924 266.499L182.702 287.876Z" fill="#0076AB"/>
<path opacity="0.2" d="M239.263 231.272C225.884 242.349 195.039 247.796 195.039 247.796C195.039 247.796 194.005 249.345 192.414 251.548C187.876 240.713 187.183 228.651 190.449 217.368C190.449 217.368 192.824 230.22 202.689 233.28C202.689 233.28 195.137 227.655 197.793 214.118C197.793 214.118 200.37 230.03 217.133 234.448C225.266 236.633 233.228 234.259 239.263 231.272Z" fill="#0076AB"/>
<path opacity="0.2" d="M114.574 232.717L114.207 229.289L102.505 232.863C102.505 232.863 103.117 234.234 103.962 236.156C99.4879 235.697 90.9994 239.828 89.5184 235.324C87.7314 229.865 98.6984 231.743 98.6984 231.743L109.066 225.715C107.107 217.331 112.095 211.027 112.095 211.027L113.044 216.878C113.497 205.758 117.848 199.675 117.848 199.675C114.249 208.469 114.347 230.14 114.574 232.717Z" fill="#0076AB"/>
<path opacity="0.2" d="M113.619 253.561L102.536 266.511L99.2614 264.222C98.8423 264.532 98.4004 264.811 97.9395 265.055C95.7853 266.224 91.2687 267.943 86.3115 265.318C89.904 260.348 97.3275 253.035 106.146 250.214C103.982 253.436 102.031 256.797 100.308 260.275L102.585 262.515C102.585 262.515 108.264 256.04 113.619 253.561Z" fill="#0076AB"/>
<path opacity="0.2" d="M140.529 196.523C140.529 197.667 139.806 210.599 149.231 214.044C158.656 217.49 167.016 211.664 167.016 211.664C167.016 211.664 152.567 225.605 143.76 218.151C134.953 210.697 140.529 196.523 140.529 196.523Z" fill="#0076AB"/>
<path d="M113.197 295.483C113.197 295.483 112.689 289.547 113.068 288.286C113.386 287.221 114.904 285.838 114.904 285.838C114.904 285.838 114.102 273.806 114.617 270.703C115.057 268.041 117.517 260.299 117.517 260.299L114.2 229.246L102.499 232.827C102.499 232.827 107.481 243.843 108.252 247.111C109.023 250.379 113.613 253.518 113.613 253.518L102.53 266.462L99.2553 264.179C99.2553 264.179 89.5857 271.744 80.8525 260.434C72.1192 249.124 68.3677 239.914 69.5917 229.069C70.8157 218.224 119.5 184.889 129.158 185.231L143.521 188.408C143.827 188.151 144.672 187.49 145.314 187.52C147.928 187.655 147.995 190.69 147.995 190.69L180.186 195.917C180.186 195.917 183.528 194.246 184.109 194.271C184.528 194.3 184.934 194.433 185.289 194.659C185.643 194.884 185.936 195.195 186.141 195.562C186.141 195.562 194.476 190.574 197.157 191.731C205.97 195.538 249.881 216.878 243.369 226.78C234.122 240.856 195.021 247.778 195.021 247.778C195.021 247.778 182.016 267.362 176.894 266.456L185.272 297.111" stroke="#263238" stroke-linecap="round" stroke-linejoin="round"/>
<path d="M209.366 228.971C224.14 238.726 236.05 236.927 245.37 224.369C245.37 224.369 253.13 214.363 252.58 203.561C252.029 192.759 249.452 157.569 215.823 166.565C210.284 168.046 197.365 185.348 196.282 190.103C195.78 192.276 190.596 203.334 185.56 214.785" fill="#0076AB"/>
<path d="M209.366 228.971C224.14 238.726 236.05 236.927 245.37 224.369C245.37 224.369 253.13 214.363 252.58 203.561C252.029 192.759 249.452 157.569 215.823 166.565C210.284 168.046 197.365 185.348 196.282 190.103C195.78 192.276 190.596 203.334 185.56 214.785" stroke="#263238" stroke-linecap="round" stroke-linejoin="round"/>
<path d="M169.397 125.586C169.397 125.586 178.809 124.16 185.345 130.011C193.614 137.41 202.898 157.361 189.678 190.421C189.678 190.421 170.149 177.459 136.82 186.137C136.82 186.137 139.69 178.383 134.653 153.97C132.377 142.924 138.105 117.477 169.397 125.586Z" fill="#263238"/>
<path d="M155.131 208.549C169.06 210.807 183.858 195.385 183.858 195.385C183.858 195.385 176.288 194.454 175.608 190.899C173.436 179.681 182.175 165.807 182.175 165.807C182.175 165.807 148.356 166.743 154.268 174.375C155.368 175.771 156.268 177.314 156.942 178.958C158.993 183.995 157.554 187.796 156.483 188.75C156.406 188.814 156.322 188.869 156.233 188.916C154.188 189.846 145.786 188.457 145.786 188.457C145.786 188.457 142.42 206.486 155.131 208.549Z" fill="white" stroke="#263238" stroke-linecap="round" stroke-linejoin="round"/>
<path d="M179.066 199.656C179.066 199.656 172.64 202.227 163.234 201.462L158.999 203.536" stroke="#263238" stroke-linecap="round" stroke-linejoin="round"/>
<path d="M154.776 203.212L154.47 200.434C154.47 200.434 147.53 198.261 145.382 194.136" stroke="#263238" stroke-linecap="round" stroke-linejoin="round"/>
<path d="M156.483 188.769C166.838 191.474 171.704 178.193 171.704 178.193C171.704 178.193 163.417 175.745 156.942 179.001C158.993 184.038 157.573 187.839 156.483 188.769Z" fill="#263238"/>
<path d="M182.775 158.836C185.29 144.693 182.493 127.722 160.963 129.129C145.584 130.133 145.712 146.994 146.728 152.03C148.442 160.494 145.988 163.824 148.625 170.935C150.523 176.045 154.923 181.761 160.106 183.903C163.295 185.219 176.202 176.162 177.157 172.018" fill="white"/>
<path d="M182.775 158.836C185.29 144.693 182.493 127.722 160.963 129.129C145.584 130.133 145.712 146.994 146.728 152.03C148.442 160.494 145.988 163.824 148.625 170.935C150.523 176.045 154.923 181.761 160.106 183.903C163.295 185.219 176.202 176.162 177.157 172.018" stroke="#263238" stroke-linecap="round" stroke-linejoin="round"/>
<path d="M155.724 154.668C155.596 156.259 155.406 160.176 152.052 163.089C149.874 164.968 154.868 166.89 154.868 166.89" stroke="#263238" stroke-linecap="round" stroke-linejoin="round"/>
<path d="M152.15 149.056C152.15 149.056 147.401 146.743 144.194 150.562" stroke="#263238" stroke-linecap="round" stroke-linejoin="round"/>
<path d="M160.119 148.744C163.458 147.776 167.021 147.917 170.272 149.148" stroke="#263238" stroke-linecap="round" stroke-linejoin="round"/>
<path d="M165.051 155.433C165.198 156.798 166.116 157.82 167.102 157.71C168.087 157.6 168.766 156.412 168.619 155.048C168.473 153.683 167.555 152.667 166.569 152.771C165.584 152.875 164.905 154.068 165.051 155.433Z" fill="#263238"/>
<path d="M155.1 171.388C158.876 170.867 162.496 169.544 165.719 167.508C165.719 167.508 166.165 173.444 161.196 174.674C157.383 175.623 155.908 171.272 155.908 171.272" stroke="#263238" stroke-linecap="round" stroke-linejoin="round"/>
<path d="M169.066 134.515C169.066 134.515 167.708 151.278 182.5 157.367L189.434 141.253L178.944 129.625L163.148 125.06C139.543 126.535 129.384 141.198 142.487 180.274C142.487 180.293 138.821 133.756 169.066 134.515Z" fill="#263238"/>
<path d="M179.256 158.077C179.048 156.192 183.815 151.394 185.425 154.472C188.173 159.723 186.172 164.264 183.332 166.1C182.059 166.902 180.443 168.408 179.311 166.988" fill="white"/>
<path d="M179.256 158.077C179.048 156.192 183.815 151.394 185.425 154.472C188.173 159.723 186.172 164.264 183.332 166.1C182.059 166.902 180.443 168.408 179.311 166.988" stroke="#263238" stroke-linecap="round" stroke-linejoin="round"/>
<path d="M150.645 156.088C150.798 157.453 151.716 158.475 152.701 158.365C153.687 158.254 154.366 157.067 154.219 155.702C154.072 154.338 153.148 153.316 152.163 153.426C151.177 153.536 150.492 154.693 150.645 156.088Z" fill="#263238"/>
<g opacity="0.2">
<path opacity="0.2" d="M140.394 153.31C140.216 154.442 140.094 155.592 140.027 156.737" stroke="white" stroke-linecap="round" stroke-linejoin="round"/>
<path opacity="0.2" d="M166.618 131.467C154.66 131.155 143.546 138.775 140.914 150.739" stroke="white" stroke-linecap="round" stroke-linejoin="round"/>
<path opacity="0.2" d="M164.482 128.052C164.482 128.052 147.236 123.995 140.773 135.433" stroke="white" stroke-linecap="round" stroke-linejoin="round"/>
<path opacity="0.2" d="M178.473 147.979C179.513 149.459 180.764 150.779 182.187 151.896" stroke="white" stroke-linecap="round" stroke-linejoin="round"/>
<path opacity="0.2" d="M171.63 130.286C172.512 135.764 174.365 141.041 177.102 145.868" stroke="white" stroke-linecap="round" stroke-linejoin="round"/>
<path opacity="0.2" d="M188.956 182.159C188.65 183.53 188.289 184.889 187.885 186.235" stroke="white" stroke-linecap="round" stroke-linejoin="round"/>
<path opacity="0.2" d="M187.959 159.368C190.755 165.58 190.566 173.31 189.415 179.846" stroke="white" stroke-linecap="round" stroke-linejoin="round"/>
<path opacity="0.2" d="M185.908 170.164C186.045 172.517 185.682 174.872 184.843 177.074C184.005 179.276 182.71 181.276 181.043 182.943" stroke="white" stroke-linecap="round" stroke-linejoin="round"/>
<path opacity="0.2" d="M177.958 132.287C180.89 136.253 183.069 140.506 186.465 144.129C190.045 147.942 193.626 152.312 194.299 157.685" stroke="white" stroke-linecap="round" stroke-linejoin="round"/>
<path opacity="0.2" d="M173.821 128.162C174.661 128.713 175.433 129.36 176.123 130.09" stroke="white" stroke-linecap="round" stroke-linejoin="round"/>
</g>
<path d="M232.812 220.195C232.469 220.268 232.127 220.33 231.772 220.379C222.518 221.701 212.139 214.026 208.638 204.815C205.872 197.539 208.289 189.283 209.611 185.752C210.027 184.644 210.327 184.001 210.327 184.001C215.909 176.045 248.357 191.621 248.736 200.213C249.116 208.806 242.292 218.114 232.812 220.195Z" fill="#263238" stroke="#263238" stroke-linecap="round" stroke-linejoin="round"/>
<path d="M242.965 201.376C242.965 201.376 241.129 215.036 231.772 220.379C222.518 221.701 212.139 214.026 208.638 204.815C205.872 197.539 208.289 189.283 209.611 185.752C220.548 179.503 242.965 201.376 242.965 201.376Z" fill="white"/>
<path opacity="0.4" d="M242.965 201.376C242.965 201.376 241.129 215.036 231.772 220.379C222.518 221.701 212.139 214.026 208.638 204.815C205.872 197.539 208.289 189.283 209.611 185.752C220.548 179.503 242.965 201.376 242.965 201.376Z" fill="#0076AB"/>
<path d="M242.965 201.376C242.965 201.376 241.129 215.036 231.772 220.379C222.518 221.701 212.139 214.026 208.638 204.815C205.872 197.539 208.289 189.283 209.611 185.752C220.548 179.503 242.965 201.376 242.965 201.376Z" stroke="#263238" stroke-linecap="round" stroke-linejoin="round"/>
<path d="M204.697 208.567C204.697 208.567 215.235 223.696 227.543 224.956C239.85 226.217 247.739 215.85 248.222 208.035" stroke="#263238" stroke-linecap="round" stroke-linejoin="round"/>
<path d="M198.773 140.298C199.697 137.71 206.343 138.579 208.455 146.657C210.566 154.735 218.859 174.375 218.859 174.375C218.859 174.375 251.907 125.776 257.806 123.903C263.706 122.03 261.386 130.451 253.473 142.134C253.473 142.134 260.885 140.831 262.831 142.134C264.777 143.438 263.828 151.314 264.863 154.044C266.601 158.652 262.739 159.625 262.739 159.625C264.633 159.668 266.455 160.362 267.898 161.59C270.022 163.579 268.957 171.798 269.563 174.124C270.169 176.449 266.117 178.408 266.117 178.408C266.117 178.408 275.854 183.714 273.657 185.048C269.948 187.288 267.837 184.993 267.837 184.993C267.837 184.993 252.873 203.781 241.588 207.967C230.303 212.153 208.338 195.519 205.976 186.462C203.614 177.404 206.435 177.961 204.642 162.887C202.849 147.814 198.773 140.298 198.773 140.298Z" fill="white" stroke="#263238" stroke-linecap="round" stroke-linejoin="round"/>
<path d="M246.954 110.438L203.439 121.781C201.895 122.183 200.97 123.761 201.372 125.305L221.942 204.217C222.344 205.761 223.922 206.686 225.466 206.283L268.981 194.94C270.525 194.538 271.45 192.96 271.048 191.416L250.478 112.504C250.076 110.961 248.498 110.035 246.954 110.438Z" fill="white" stroke="#263238" stroke-linecap="round" stroke-linejoin="round"/>
<path d="M222.022 119.509C222.046 119.598 222.051 119.692 222.038 119.783C222.026 119.875 221.995 119.963 221.948 120.043C221.901 120.123 221.839 120.193 221.765 120.249C221.691 120.305 221.607 120.345 221.518 120.369C221.428 120.392 221.335 120.397 221.243 120.385C221.151 120.372 221.063 120.341 220.983 120.294C220.903 120.247 220.833 120.185 220.778 120.111C220.722 120.037 220.681 119.953 220.658 119.864C220.633 119.774 220.626 119.68 220.638 119.588C220.65 119.496 220.68 119.407 220.727 119.327C220.774 119.246 220.836 119.176 220.91 119.12C220.985 119.064 221.069 119.024 221.16 119.001C221.341 118.954 221.534 118.982 221.696 119.077C221.857 119.172 221.975 119.327 222.022 119.509Z" fill="#0076AB" stroke="#263238" stroke-linecap="round" stroke-linejoin="round"/>
<path d="M230.988 117.171C231.003 117.227 231.006 117.286 230.998 117.343C230.99 117.401 230.971 117.456 230.941 117.506C230.912 117.557 230.873 117.6 230.826 117.635C230.779 117.67 230.726 117.695 230.67 117.709C230.586 117.731 230.497 117.727 230.415 117.698C230.333 117.669 230.261 117.616 230.209 117.546C230.157 117.477 230.127 117.393 230.122 117.306C230.117 117.219 230.138 117.133 230.183 117.058C230.227 116.983 230.292 116.923 230.371 116.885C230.449 116.848 230.537 116.834 230.623 116.846C230.709 116.858 230.79 116.895 230.855 116.953C230.92 117.011 230.966 117.087 230.988 117.171Z" fill="#0076AB" stroke="#263238" stroke-linecap="round" stroke-linejoin="round"/>
<path d="M228.846 118.275L223.592 119.629C223.487 119.656 223.424 119.763 223.451 119.868L223.479 119.975C223.506 120.079 223.613 120.143 223.718 120.116L228.971 118.762C229.076 118.734 229.14 118.627 229.112 118.523L229.085 118.416C229.058 118.311 228.951 118.248 228.846 118.275Z" fill="#0076AB" stroke="#263238" stroke-width="1.0017" stroke-linecap="round" stroke-linejoin="round"/>
<path d="M249.171 113.321L269.569 191.584C269.682 192.023 269.617 192.489 269.388 192.88C269.159 193.272 268.783 193.556 268.345 193.671L225.389 204.864C224.95 204.978 224.483 204.913 224.092 204.684C223.701 204.454 223.417 204.079 223.302 203.64L202.904 125.378C202.79 124.939 202.855 124.473 203.084 124.081C203.314 123.69 203.689 123.406 204.128 123.291L212.947 120.99C213.229 120.916 213.528 120.93 213.803 121.03C214.078 121.131 214.315 121.313 214.483 121.553L215.125 122.465C215.293 122.704 215.53 122.887 215.805 122.987C216.08 123.088 216.379 123.102 216.661 123.028L236.019 117.985C236.299 117.912 236.551 117.756 236.741 117.537C236.93 117.319 237.05 117.048 237.084 116.761L237.2 115.653C237.232 115.365 237.351 115.094 237.542 114.875C237.732 114.656 237.984 114.501 238.265 114.429L247.084 112.128C247.519 112.013 247.981 112.074 248.372 112.297C248.762 112.521 249.049 112.888 249.171 113.321Z" fill="#0076AB" stroke="#263238" stroke-linecap="round" stroke-linejoin="round"/>
<path d="M250.667 157.238C254.658 148.046 250.442 137.358 241.249 133.367C232.057 129.376 221.369 133.592 217.378 142.785C213.386 151.977 217.603 162.665 226.795 166.656C235.988 170.647 246.676 166.431 250.667 157.238Z" fill="white" stroke="#263238" stroke-linecap="round" stroke-linejoin="round"/>
<path d="M226.527 160.433C226.682 160.798 226.967 161.093 227.326 161.26C227.685 161.427 228.094 161.455 228.473 161.339L234.44 159.619C234.453 159.748 234.478 159.875 234.513 159.999C234.604 160.311 234.755 160.601 234.958 160.855C235.161 161.108 235.411 161.32 235.696 161.476C235.98 161.633 236.293 161.732 236.615 161.767C236.938 161.803 237.265 161.775 237.577 161.685C237.888 161.594 238.179 161.443 238.433 161.241C238.686 161.038 238.897 160.787 239.054 160.502C239.21 160.218 239.309 159.905 239.345 159.583C239.381 159.26 239.353 158.934 239.263 158.622C239.225 158.498 239.178 158.377 239.122 158.261L245.083 156.541C245.472 156.437 245.808 156.19 246.025 155.85C246.241 155.51 246.322 155.102 246.252 154.705C246.214 154.489 246.131 154.284 246.009 154.102C245.886 153.921 245.726 153.767 245.54 153.652C245.354 153.536 245.146 153.461 244.929 153.432C244.712 153.402 244.491 153.419 244.281 153.481L243.779 153.175C242.691 152.524 241.891 151.485 241.539 150.268L240.407 146.345C239.941 144.729 238.906 143.337 237.493 142.426C236.079 141.515 234.384 141.146 232.72 141.388C233.006 141.086 233.184 140.699 233.228 140.286C233.272 139.873 233.179 139.458 232.963 139.103C232.747 138.748 232.42 138.475 232.033 138.324C231.646 138.174 231.22 138.155 230.821 138.271C230.422 138.386 230.073 138.63 229.826 138.964C229.579 139.298 229.45 139.704 229.457 140.12C229.464 140.535 229.608 140.936 229.866 141.262C230.124 141.587 230.482 141.818 230.884 141.92C229.332 142.598 228.081 143.818 227.364 145.353C226.648 146.887 226.515 148.631 226.992 150.256L228.136 154.221C228.34 154.914 228.391 155.643 228.285 156.357C228.179 157.071 227.92 157.754 227.524 158.359C227.317 158.421 227.125 158.526 226.961 158.667C226.796 158.808 226.663 158.981 226.569 159.176C226.475 159.371 226.423 159.584 226.416 159.8C226.408 160.017 226.446 160.232 226.527 160.433ZM232.408 139.833C232.469 140.043 232.466 140.265 232.399 140.473C232.333 140.68 232.207 140.864 232.037 141C231.867 141.135 231.66 141.218 231.443 141.236C231.226 141.255 231.008 141.208 230.818 141.103C230.627 140.998 230.472 140.839 230.372 140.645C230.271 140.452 230.231 140.233 230.255 140.017C230.279 139.8 230.367 139.596 230.507 139.429C230.648 139.262 230.834 139.141 231.043 139.081C231.182 139.039 231.328 139.026 231.472 139.042C231.616 139.058 231.756 139.102 231.883 139.172C232.01 139.242 232.122 139.336 232.212 139.45C232.302 139.563 232.369 139.694 232.408 139.833Z" fill="#0076AB" stroke="#263238" stroke-linecap="round" stroke-linejoin="round"/>
<path d="M238.039 158.359L235.407 159.124" stroke="#263238" stroke-linecap="round" stroke-linejoin="round"/>
<path d="M241.931 154.148L229.868 157.636" stroke="#263238" stroke-linecap="round" stroke-linejoin="round"/>
<path d="M254.532 178.524L230.052 184.901C229.352 185.085 228.622 185.13 227.905 185.033C227.188 184.935 226.497 184.697 225.872 184.332C225.246 183.967 224.699 183.482 224.261 182.906C223.823 182.329 223.504 181.672 223.32 180.972C223.136 180.271 223.091 179.542 223.189 178.824C223.287 178.106 223.526 177.415 223.891 176.79C224.257 176.164 224.742 175.617 225.319 175.18C225.896 174.742 226.554 174.423 227.255 174.24L251.735 167.863C253.145 167.499 254.641 167.709 255.896 168.445C257.152 169.181 258.065 170.384 258.437 171.792C258.81 173.202 258.609 174.703 257.877 175.966C257.145 177.228 255.942 178.148 254.532 178.524Z" fill="#263238"/>
<path d="M227.353 177.257C227.437 177.113 227.551 176.989 227.688 176.893C227.824 176.797 227.979 176.731 228.142 176.7C228.301 176.647 228.468 176.628 228.634 176.646C228.8 176.664 228.96 176.718 229.103 176.804C229.385 177.014 229.577 177.322 229.642 177.667L229.685 177.826L228.932 178.022L228.877 177.814C228.854 177.677 228.785 177.552 228.681 177.459C228.632 177.428 228.577 177.409 228.52 177.403C228.463 177.396 228.405 177.403 228.351 177.422C228.294 177.432 228.241 177.455 228.195 177.489C228.15 177.523 228.113 177.567 228.087 177.618C228.042 177.749 228.042 177.891 228.087 178.022C228.136 178.223 228.248 178.403 228.406 178.536C228.607 178.695 228.824 178.833 229.054 178.946C229.253 179.046 229.445 179.159 229.63 179.283C229.791 179.395 229.933 179.531 230.052 179.687C230.188 179.87 230.288 180.078 230.346 180.299C230.456 180.635 230.434 181 230.284 181.321C230.094 181.596 229.812 181.793 229.488 181.877C229.165 181.962 228.822 181.927 228.522 181.78C228.232 181.575 228.035 181.266 227.971 180.917L227.892 180.605L228.644 180.409L228.736 180.77C228.822 181.1 228.999 181.229 229.275 181.156C229.55 181.082 229.648 180.886 229.562 180.544C229.512 180.343 229.401 180.164 229.244 180.029C229.044 179.87 228.826 179.735 228.595 179.626C228.398 179.521 228.206 179.407 228.02 179.283C227.859 179.171 227.717 179.035 227.598 178.879C227.46 178.696 227.361 178.488 227.304 178.267C227.197 177.936 227.214 177.576 227.353 177.257Z" fill="white"/>
<path d="M231.564 180.042C231.649 180.366 231.833 180.495 232.108 180.427C232.384 180.36 232.475 180.152 232.39 179.815L231.374 175.911L232.127 175.715L233.13 179.564C233.241 179.9 233.219 180.266 233.069 180.586C232.984 180.732 232.87 180.857 232.732 180.954C232.595 181.051 232.439 181.118 232.274 181.149C232.114 181.2 231.946 181.217 231.78 181.201C231.614 181.184 231.452 181.133 231.307 181.051C231.022 180.84 230.826 180.53 230.756 180.182L229.752 176.333L230.548 176.125L231.564 180.042Z" fill="white"/>
<path d="M234.838 175.323C234.973 175.416 235.089 175.536 235.177 175.675C235.265 175.814 235.325 175.969 235.352 176.131L235.395 176.308C235.462 176.528 235.477 176.761 235.438 176.988C235.398 177.175 235.297 177.343 235.15 177.465C235.584 177.514 235.878 177.826 236.025 178.389L236.129 178.805C236.184 178.964 236.206 179.132 236.194 179.3C236.181 179.467 236.134 179.63 236.056 179.779C235.964 179.92 235.843 180.041 235.702 180.134C235.561 180.226 235.402 180.289 235.236 180.317L234.012 180.648L232.69 175.586L233.914 175.268C234.218 175.17 234.547 175.19 234.838 175.323ZM233.999 177.435L234.311 177.355C234.377 177.344 234.44 177.319 234.496 177.282C234.552 177.245 234.6 177.197 234.636 177.141C234.692 176.997 234.692 176.838 234.636 176.694L234.562 176.413C234.538 176.271 234.467 176.142 234.36 176.045C234.312 176.012 234.256 175.99 234.197 175.983C234.139 175.975 234.079 175.982 234.024 176.002L233.638 176.1L233.999 177.435ZM234.611 179.717L235.064 179.595C235.122 179.586 235.178 179.564 235.226 179.532C235.275 179.499 235.316 179.456 235.346 179.405C235.394 179.271 235.394 179.124 235.346 178.989L235.229 178.548C235.201 178.376 235.115 178.219 234.985 178.102C234.92 178.065 234.848 178.043 234.774 178.037C234.701 178.031 234.626 178.04 234.556 178.065L234.201 178.163L234.611 179.717Z" fill="white"/>
<path d="M235.866 175.06C235.949 174.915 236.062 174.79 236.199 174.694C236.335 174.597 236.491 174.532 236.655 174.503C236.813 174.449 236.981 174.429 237.147 174.446C237.313 174.463 237.473 174.516 237.616 174.601C237.9 174.812 238.095 175.122 238.161 175.47L238.204 175.629L237.451 175.825L237.396 175.611C237.374 175.474 237.302 175.349 237.194 175.262C237.147 175.23 237.093 175.21 237.037 175.202C236.981 175.195 236.923 175.201 236.87 175.219C236.813 175.229 236.759 175.251 236.712 175.285C236.665 175.319 236.627 175.364 236.6 175.415C236.555 175.546 236.555 175.688 236.6 175.819C236.647 176.019 236.756 176.199 236.912 176.333C237.117 176.49 237.336 176.628 237.567 176.743C237.8 176.865 237.99 176.982 238.143 177.08C238.301 177.195 238.443 177.33 238.565 177.483C238.7 177.666 238.798 177.874 238.853 178.095C238.968 178.43 238.948 178.797 238.797 179.118C238.712 179.262 238.597 179.387 238.46 179.484C238.323 179.582 238.167 179.648 238.002 179.681C237.842 179.732 237.673 179.75 237.505 179.733C237.338 179.716 237.176 179.665 237.029 179.583C236.744 179.372 236.55 179.061 236.484 178.714L236.398 178.408L237.151 178.206L237.249 178.573C237.335 178.897 237.512 179.026 237.788 178.952C238.063 178.879 238.155 178.683 238.069 178.34C238.021 178.142 237.912 177.965 237.757 177.832C237.555 177.671 237.335 177.534 237.102 177.422C236.907 177.318 236.717 177.204 236.533 177.08C236.369 176.971 236.226 176.835 236.111 176.676C235.969 176.496 235.868 176.287 235.817 176.064C235.709 175.734 235.727 175.377 235.866 175.06Z" fill="white"/>
<path d="M241.619 177.361C241.729 177.697 241.707 178.063 241.558 178.383C241.472 178.527 241.357 178.651 241.22 178.747C241.082 178.843 240.926 178.909 240.762 178.94C240.603 178.994 240.435 179.013 240.268 178.996C240.101 178.979 239.94 178.927 239.795 178.842C239.505 178.638 239.308 178.328 239.244 177.979L238.559 175.348C238.446 175.012 238.466 174.647 238.614 174.326C238.699 174.181 238.814 174.056 238.951 173.959C239.088 173.862 239.245 173.795 239.409 173.763C239.57 173.711 239.739 173.693 239.906 173.71C240.074 173.727 240.236 173.778 240.382 173.86C240.667 174.071 240.861 174.382 240.927 174.73L241.056 175.219L240.303 175.415L240.162 174.87C240.076 174.54 239.899 174.411 239.624 174.485C239.348 174.558 239.256 174.754 239.342 175.097L240.052 177.826C240.138 178.157 240.315 178.285 240.591 178.212C240.866 178.138 240.964 177.943 240.878 177.6L240.688 176.878L241.441 176.682L241.619 177.361Z" fill="white"/>
<path d="M243.963 177.796C243.915 177.67 243.876 177.541 243.846 177.41L243.638 176.614C243.608 176.438 243.52 176.276 243.387 176.155C243.322 176.116 243.249 176.091 243.172 176.082C243.096 176.074 243.019 176.082 242.947 176.107L242.677 176.18L243.21 178.242L242.414 178.45L241.099 173.389L242.323 173.071C242.475 173.002 242.642 172.971 242.809 172.979C242.976 172.987 243.138 173.035 243.283 173.119C243.428 173.203 243.551 173.32 243.641 173.461C243.732 173.601 243.787 173.761 243.804 173.928L243.908 174.332C243.987 174.527 244.005 174.742 243.96 174.949C243.915 175.155 243.81 175.343 243.657 175.488C243.854 175.513 244.035 175.614 244.159 175.77C244.306 175.966 244.41 176.192 244.465 176.431L244.666 177.214C244.703 177.355 244.74 177.471 244.771 177.557C244.805 177.645 244.853 177.727 244.911 177.802L244.103 178.016C244.047 177.949 243.999 177.875 243.963 177.796ZM242.488 175.458L242.794 175.378C242.861 175.365 242.924 175.339 242.981 175.301C243.038 175.263 243.087 175.215 243.124 175.158C243.179 175.016 243.179 174.859 243.124 174.717L242.99 174.215C242.969 174.074 242.9 173.944 242.794 173.848C242.744 173.814 242.687 173.793 242.628 173.786C242.568 173.778 242.507 173.785 242.451 173.805L242.072 173.903L242.488 175.458Z" fill="white"/>
<path d="M244.801 172.422L246.117 177.484L245.321 177.692L244.006 172.612L244.801 172.422Z" fill="white"/>
<path d="M247.549 172C247.683 172.093 247.797 172.212 247.884 172.35C247.971 172.487 248.03 172.641 248.057 172.802L248.106 172.985C248.17 173.204 248.185 173.434 248.149 173.659C248.107 173.845 248.006 174.012 247.861 174.136C248.296 174.191 248.583 174.497 248.736 175.066L248.84 175.482C248.895 175.64 248.916 175.807 248.903 175.973C248.891 176.14 248.844 176.302 248.767 176.449C248.675 176.592 248.555 176.714 248.414 176.808C248.273 176.901 248.114 176.965 247.947 176.994L246.723 177.318L245.352 172.269L246.576 171.957C246.893 171.843 247.243 171.858 247.549 172ZM246.711 174.111L247.023 174.032C247.154 174.005 247.271 173.928 247.347 173.818C247.403 173.674 247.403 173.514 247.347 173.371L247.274 173.089C247.247 172.947 247.177 172.816 247.072 172.716C247.021 172.684 246.965 172.663 246.905 172.655C246.846 172.648 246.786 172.654 246.729 172.673L246.349 172.777L246.711 174.111ZM247.323 176.388L247.775 176.272C247.834 176.261 247.889 176.238 247.937 176.204C247.986 176.17 248.027 176.127 248.057 176.076C248.107 175.944 248.107 175.798 248.057 175.666L247.947 175.225C247.918 175.051 247.832 174.892 247.702 174.772C247.637 174.737 247.565 174.717 247.491 174.711C247.417 174.706 247.343 174.716 247.274 174.742L246.919 174.834L247.323 176.388Z" fill="white"/>
<path d="M250.756 173.144L250.946 173.873L249.85 174.154L250.236 175.635L251.613 175.28L251.802 176.002L249.63 176.566L248.314 171.504L250.48 170.941L250.67 171.663L249.299 172.024L249.666 173.432L250.756 173.144Z" fill="white"/>
<path d="M252.231 170.482C252.391 170.43 252.56 170.411 252.727 170.427C252.894 170.443 253.057 170.493 253.204 170.574C253.487 170.777 253.68 171.082 253.742 171.425L254.41 173.989C254.525 174.32 254.505 174.683 254.354 174.999C254.268 175.142 254.151 175.264 254.013 175.358C253.874 175.452 253.718 175.515 253.553 175.543L252.292 175.874L250.97 170.813L252.231 170.482ZM252.898 174.944L253.345 174.827C253.402 174.816 253.456 174.793 253.503 174.759C253.551 174.725 253.591 174.682 253.62 174.632C253.666 174.501 253.666 174.358 253.62 174.228L252.935 171.596C252.907 171.459 252.834 171.336 252.727 171.247C252.678 171.219 252.624 171.202 252.568 171.195C252.512 171.189 252.456 171.194 252.402 171.211L251.949 171.327L252.898 174.944Z" fill="white"/>
<path d="M195.039 247.821C195.039 247.821 187.61 230.532 191.367 209.565" stroke="#263238" stroke-linecap="round" stroke-linejoin="round"/>
<path d="M176.912 266.499C176.912 266.499 161.894 271.089 160.388 274.547C158.883 278.005 167.12 275.091 167.12 275.091" stroke="#263238" stroke-linecap="round" stroke-linejoin="round"/>
<path d="M186.147 195.605C186.147 195.605 172.316 209.314 163.062 212.967" stroke="#263238" stroke-linecap="round" stroke-linejoin="round"/>
<path d="M140.828 191.921C140.828 191.921 138.307 210.427 147.713 213.922" stroke="#263238" stroke-linecap="round" stroke-linejoin="round"/>
<path d="M114.206 229.289C114.206 229.289 114.133 205.03 118.949 197.527" stroke="#263238" stroke-linecap="round" stroke-linejoin="round"/>
<path d="M112.407 204.571C112.407 204.571 111.055 219.638 114.096 224.552" stroke="#263238" stroke-linecap="round" stroke-linejoin="round"/>
<path d="M102.505 232.87C102.505 232.87 91.9848 229.246 89.8061 233.739C87.6274 238.231 96.0791 234.247 96.0791 234.247" stroke="#263238" stroke-linecap="round" stroke-linejoin="round"/>
<path d="M108.833 248.598C108.833 248.598 98.5025 254.418 97.9701 257.747" stroke="#263238" stroke-linecap="round" stroke-linejoin="round"/>
<path d="M125.706 232.502C125.706 232.502 145.48 262.386 156.392 259.645" stroke="#263238" stroke-linecap="round" stroke-linejoin="round"/>
<path d="M139.213 274.418C139.213 274.418 123.711 285.783 121.465 284.822" stroke="#263238" stroke-linecap="round" stroke-linejoin="round"/>
<path opacity="0.2" d="M247.8 225.923C248.846 225.066 249.538 224.497 249.764 224.32C249.532 224.522 248.859 225.109 247.8 225.923Z" fill="#0076AB"/>
<circle cx="279" cy="42.8682" r="6.5" stroke="#FCB76A" stroke-width="5"/>
<circle cx="9" cy="222.868" r="6.5" stroke="#215185" stroke-width="5"/>
<path d="M55.7667 8.23333L71.2645 6.55529L64.9688 20.8159L55.7667 8.23333Z" fill="#FCB76A"/>
<path d="M169.675 26.8826L167.212 42.2754L155.113 32.4467L169.675 26.8826Z" fill="#2A9B9E"/>
<path d="M173 307L180.794 320.5H165.206L173 307Z" fill="#2A9B9E"/>
<path d="M277 316.132L284.794 329.632H269.206L277 316.132Z" fill="#FCB76A"/>
</svg>
