<svg width="18" height="18" viewBox="0 0 18 18" fill="none" xmlns="http://www.w3.org/2000/svg">
<path d="M14.8334 2.33329H13.1667V1.49996C13.1667 1.27895 13.079 1.06698 12.9227 0.910704C12.7664 0.754423 12.5544 0.666626 12.3334 0.666626C12.1124 0.666626 11.9004 0.754423 11.7442 0.910704C11.5879 1.06698 11.5001 1.27895 11.5001 1.49996V2.33329H6.50008V1.49996C6.50008 1.27895 6.41228 1.06698 6.256 0.910704C6.09972 0.754423 5.88776 0.666626 5.66675 0.666626C5.44573 0.666626 5.23377 0.754423 5.07749 0.910704C4.92121 1.06698 4.83342 1.27895 4.83342 1.49996V2.33329H3.16675C2.50371 2.33329 1.86782 2.59668 1.39898 3.06553C0.93014 3.53437 0.666748 4.17025 0.666748 4.83329V14.8333C0.666748 15.4963 0.93014 16.1322 1.39898 16.6011C1.86782 17.0699 2.50371 17.3333 3.16675 17.3333H14.8334C15.4965 17.3333 16.1323 17.0699 16.6012 16.6011C17.07 16.1322 17.3334 15.4963 17.3334 14.8333V4.83329C17.3334 4.17025 17.07 3.53437 16.6012 3.06553C16.1323 2.59668 15.4965 2.33329 14.8334 2.33329ZM15.6667 14.8333C15.6667 15.0543 15.579 15.2663 15.4227 15.4225C15.2664 15.5788 15.0544 15.6666 14.8334 15.6666H3.16675C2.94573 15.6666 2.73377 15.5788 2.57749 15.4225C2.42121 15.2663 2.33341 15.0543 2.33341 14.8333V8.99996H15.6667V14.8333ZM15.6667 7.33329H2.33341V4.83329C2.33341 4.61228 2.42121 4.40032 2.57749 4.24404C2.73377 4.08776 2.94573 3.99996 3.16675 3.99996H4.83342V4.83329C4.83342 5.05431 4.92121 5.26627 5.07749 5.42255C5.23377 5.57883 5.44573 5.66663 5.66675 5.66663C5.88776 5.66663 6.09972 5.57883 6.256 5.42255C6.41228 5.26627 6.50008 5.05431 6.50008 4.83329V3.99996H11.5001V4.83329C11.5001 5.05431 11.5879 5.26627 11.7442 5.42255C11.9004 5.57883 12.1124 5.66663 12.3334 5.66663C12.5544 5.66663 12.7664 5.57883 12.9227 5.42255C13.079 5.26627 13.1667 5.05431 13.1667 4.83329V3.99996H14.8334C15.0544 3.99996 15.2664 4.08776 15.4227 4.24404C15.579 4.40032 15.6667 4.61228 15.6667 4.83329V7.33329Z" fill="black"/>
</svg>
