<svg width="46" height="46" viewBox="0 0 46 46" fill="none" xmlns="http://www.w3.org/2000/svg">
<path fill-rule="evenodd" clip-rule="evenodd" d="M23 0.083313C10.3438 0.083313 0.0833435 10.3437 0.0833435 23C0.0833435 35.6562 10.3438 45.9166 23 45.9166C35.6563 45.9166 45.9167 35.6562 45.9167 23C45.9167 10.3437 35.6563 0.083313 23 0.083313ZM32.9333 19.125C33.1163 18.9159 33.2555 18.6724 33.3429 18.4087C33.4303 18.145 33.4641 17.8665 33.4422 17.5895C33.4204 17.3126 33.3434 17.0428 33.2158 16.7961C33.0882 16.5493 32.9125 16.3306 32.6991 16.1528C32.4857 15.9749 32.2388 15.8416 31.9731 15.7605C31.7074 15.6795 31.4282 15.6524 31.1519 15.6809C30.8755 15.7093 30.6077 15.7928 30.3641 15.9263C30.1205 16.0598 29.906 16.2407 29.7333 16.4583L20.775 27.2062L16.1396 22.5687C15.7467 22.1892 15.2204 21.9792 14.6742 21.984C14.1279 21.9887 13.6054 22.2078 13.2191 22.5941C12.8329 22.9804 12.6138 23.5029 12.609 24.0491C12.6043 24.5954 12.8143 25.1216 13.1938 25.5146L19.4438 31.7646C19.6485 31.9691 19.8935 32.1288 20.1634 32.2334C20.4332 32.3381 20.7219 32.3853 21.011 32.3722C21.3001 32.359 21.5833 32.2858 21.8425 32.1572C22.1018 32.0285 22.3314 31.8473 22.5167 31.625L32.9333 19.125Z" fill="#875495"/>
</svg>
