<svg width="20" height="14" viewBox="0 0 20 14" fill="none" xmlns="http://www.w3.org/2000/svg">
<path d="M13.7367 6.97998L18.8625 2.52665V11.3825L13.7367 6.97998ZM7.13167 7.73415L8.93167 9.29665C9.21417 9.53664 9.5825 9.68165 9.985 9.68165H9.99917H9.99833H10.01C10.4133 9.68165 10.7817 9.53581 11.0675 9.29415L11.065 9.29581L12.865 7.73331L18.3367 12.4325H1.6625L7.13167 7.73415ZM1.655 1.47081H18.3467L10.3292 8.43414C10.239 8.50545 10.1274 8.54421 10.0125 8.54415H10.0008H10.0017H9.99C9.87466 8.54429 9.76269 8.50521 9.6725 8.43331L9.67333 8.43414L1.655 1.47081ZM1.1375 2.52581L6.2625 6.97915L1.1375 11.3791V2.52581ZM19.1375 0.491646C18.9375 0.391646 18.7025 0.333313 18.4533 0.333313H1.54917C1.30763 0.333371 1.06942 0.389572 0.853333 0.49748L0.8625 0.493313C0.603811 0.620906 0.385956 0.818295 0.233545 1.06318C0.0811339 1.30807 0.000239457 1.5907 0 1.87915L0 12.0225C0.00044117 12.433 0.16371 12.8266 0.453984 13.1168C0.744257 13.4071 1.13783 13.5704 1.54833 13.5708H18.4508C18.8613 13.5704 19.2549 13.4071 19.5452 13.1168C19.8355 12.8266 19.9987 12.433 19.9992 12.0225V1.87915C19.9992 1.27331 19.65 0.748313 19.1417 0.495813L19.1325 0.491646H19.1375Z" fill="black"/>
</svg>
