<svg width="18" height="12" viewBox="0 0 18 12" fill="none" xmlns="http://www.w3.org/2000/svg">
<path d="M18 10.5V1.5C18 0.67 17.33 0 16.5 0H2.49001C1.66001 0 0.990005 0.67 0.990005 1.5V10.5C0.990005 11.33 1.66001 12 2.49001 12H16.5C17.33 12 18 11.33 18 10.5ZM16.69 1.39C17.02 1.72 16.84 2.06 16.66 2.23L12.6 5.95L16.5 10.01C16.62 10.15 16.7 10.37 16.56 10.52C16.43 10.68 16.13 10.67 16 10.57L11.63 6.84L9.49001 8.79L7.36001 6.84L2.99001 10.57C2.86001 10.67 2.56001 10.68 2.43001 10.52C2.29001 10.37 2.37001 10.15 2.49001 10.01L6.39001 5.95L2.33001 2.23C2.15001 2.06 1.97001 1.72 2.30001 1.39C2.63001 1.06 2.97001 1.22 3.25001 1.46L9.49001 6.5L15.74 1.46C16.02 1.22 16.36 1.06 16.69 1.39Z" fill="#0076AB"/>
</svg>
