<svg width="14" height="14" viewBox="0 0 14 14" fill="none" xmlns="http://www.w3.org/2000/svg">
<path d="M7.40937 0.473348C7.29235 0.382312 7.14831 0.332886 7.00004 0.332886C6.85177 0.332886 6.70774 0.382312 6.59071 0.473348L1.10537 4.74002C0.864814 4.92715 0.670204 5.16678 0.536406 5.44062C0.402608 5.71445 0.333163 6.01524 0.333375 6.32001V12.3333C0.333375 12.687 0.47385 13.0261 0.723899 13.2762C0.973947 13.5262 1.31309 13.6667 1.66671 13.6667H4.33337C4.687 13.6667 5.02613 13.5262 5.27618 13.2762C5.52623 13.0261 5.66671 12.687 5.66671 12.3333V8.33335H8.33337V12.3333C8.33337 12.687 8.47385 13.0261 8.7239 13.2762C8.97395 13.5262 9.31309 13.6667 9.66671 13.6667H12.3334C12.687 13.6667 13.0261 13.5262 13.2762 13.2762C13.5262 13.0261 13.6667 12.687 13.6667 12.3333V6.32001C13.6668 6.01513 13.5971 5.71427 13.4631 5.44043C13.329 5.16659 13.1342 4.92701 12.8934 4.74002L7.40937 0.473348Z" fill="#0076AB"/>
</svg>
