<svg width="14" height="12" viewBox="0 0 14 12" fill="none" xmlns="http://www.w3.org/2000/svg">
<path d="M4 6C4 5.86739 4.05268 5.74021 4.14645 5.64645C4.24021 5.55268 4.36739 5.5 4.5 5.5H9V2.25C9 1.25 7.94406 0.5 7 0.5H2.25C1.78602 0.500496 1.34119 0.68503 1.01311 1.01311C0.68503 1.34119 0.500496 1.78602 0.5 2.25V9.75C0.500496 10.214 0.68503 10.6588 1.01311 10.9869C1.34119 11.315 1.78602 11.4995 2.25 11.5H7.25C7.71398 11.4995 8.15881 11.315 8.48689 10.9869C8.81497 10.6588 8.9995 10.214 9 9.75V6.5H4.5C4.36739 6.5 4.24021 6.44732 4.14645 6.35355C4.05268 6.25979 4 6.13261 4 6ZM13.3534 5.64656L10.8534 3.14656C10.7589 3.05675 10.633 3.00742 10.5027 3.00909C10.3723 3.01076 10.2477 3.0633 10.1555 3.1555C10.0633 3.2477 10.0108 3.37227 10.0091 3.50265C10.0074 3.63303 10.0568 3.75891 10.1466 3.85344L11.7928 5.5H9V6.5H11.7928L10.1466 8.14656C10.0982 8.19253 10.0595 8.24772 10.0328 8.30888C10.006 8.37003 9.99184 8.43592 9.99099 8.50265C9.99014 8.56938 10.0026 8.63561 10.0278 8.69743C10.0529 8.75925 10.0902 8.81541 10.1374 8.86261C10.1846 8.9098 10.2407 8.94706 10.3026 8.97221C10.3644 8.99735 10.4306 9.00986 10.4973 9.00901C10.5641 9.00816 10.63 8.99395 10.6911 8.96723C10.7523 8.94051 10.8075 8.90182 10.8534 8.85344L13.3534 6.35344C13.4471 6.25968 13.4998 6.13255 13.4998 6C13.4998 5.86745 13.4471 5.74032 13.3534 5.64656Z" fill="#0076AB"/>
</svg>
