<svg width="14" height="18" viewBox="0 0 14 18" fill="none" xmlns="http://www.w3.org/2000/svg">
<path d="M2.65716 0.889314L3.84287 0.532171C4.38262 0.369331 4.96319 0.408479 5.4762 0.642309C5.9892 0.876138 6.39958 1.28867 6.63073 1.80289L7.36859 3.44431C7.56741 3.8865 7.62279 4.37984 7.52697 4.85511C7.43115 5.33037 7.18893 5.76371 6.8343 6.09431L5.54501 7.29646C5.52908 7.31134 5.51601 7.32901 5.50644 7.3486C5.37144 7.62431 5.57644 8.36074 6.21859 9.4736C6.94287 10.7279 7.50216 11.2236 7.76144 11.1472L9.45359 10.6293C9.917 10.4878 10.4131 10.4948 10.8723 10.6495C11.3315 10.8041 11.7308 11.0985 12.0143 11.4915L13.0629 12.9436C13.3921 13.3996 13.5446 13.9595 13.492 14.5194C13.4395 15.0793 13.1854 15.6011 12.7772 15.9879L11.875 16.8415C11.5613 17.1386 11.1804 17.3555 10.7647 17.4735C10.349 17.5915 9.91094 17.6073 9.48787 17.5193C6.97573 16.9965 4.72502 14.9736 2.71644 11.495C0.707158 8.01431 0.0807294 5.05003 0.887872 2.61217C1.02298 2.20403 1.25435 1.83441 1.56243 1.53454C1.8705 1.23467 2.24623 1.01336 2.65787 0.889314H2.65716ZM2.96716 1.91503C2.72016 1.98942 2.49471 2.12218 2.30984 2.30207C2.12497 2.48197 1.98612 2.70373 1.90502 2.9486C1.2093 5.04931 1.77287 7.71789 3.6443 10.9593C5.5143 14.1986 7.54144 16.02 9.70573 16.47C9.95969 16.5228 10.2227 16.5134 10.4722 16.4425C10.7217 16.3716 10.9503 16.2413 11.1386 16.0629L12.04 15.21C12.2599 15.0018 12.3968 14.7209 12.4252 14.4194C12.4536 14.1179 12.3715 13.8163 12.1943 13.5707L11.1457 12.1179C10.9931 11.9063 10.7781 11.7478 10.5309 11.6646C10.2837 11.5813 10.0167 11.5775 9.76716 11.6536L8.07073 12.1729C7.13216 12.4522 6.2493 11.67 5.29073 10.0086C4.47859 8.60289 4.19716 7.58717 4.5443 6.87789C4.61144 6.74074 4.70287 6.61717 4.8143 6.51289L6.10359 5.31074C6.29461 5.13273 6.4251 4.89936 6.47673 4.6434C6.52836 4.38744 6.49853 4.12174 6.39144 3.8836L5.65359 2.24289C5.52913 1.96593 5.30811 1.74374 5.03182 1.61782C4.75552 1.49189 4.44284 1.47084 4.15216 1.5586L2.96644 1.91574L2.96716 1.91503Z" fill="black"/>
</svg>
