<svg width="14" height="18" viewBox="0 0 14 18" fill="none" xmlns="http://www.w3.org/2000/svg">
<path d="M2.60716 0.930716L3.99073 0.513573C4.44736 0.37612 4.93839 0.40947 5.37224 0.607402C5.80609 0.805334 6.15312 1.15433 6.34859 1.58929L7.31859 3.74643C7.48695 4.12066 7.53387 4.53822 7.45278 4.94048C7.37168 5.34275 7.16665 5.70951 6.86645 5.98929L5.39002 7.365C5.19216 7.55286 5.34216 8.285 6.06502 9.53786C6.78859 10.7914 7.34788 11.2871 7.60573 11.21L9.54002 10.6186C9.9321 10.4986 10.3519 10.5044 10.7405 10.6351C11.1292 10.7657 11.4672 11.0147 11.7072 11.3471L13.0857 13.2579C13.3642 13.6437 13.4931 14.1175 13.4486 14.5912C13.404 15.0649 13.1891 15.5064 12.8436 15.8336L11.7779 16.8429C11.4338 17.1687 11.0095 17.3974 10.5483 17.5057C10.087 17.614 9.60524 17.598 9.15216 17.4593C6.91931 16.7757 4.85145 14.7471 2.92073 11.4021C0.985734 8.05215 0.25502 5.22643 0.764306 2.91786C0.867023 2.45268 1.09194 2.02332 1.41587 1.67402C1.73981 1.32473 2.15103 1.06814 2.60716 0.930716Z" fill="#0076AB"/>
</svg>
