<svg width="16" height="16" viewBox="0 0 16 16" fill="none" xmlns="http://www.w3.org/2000/svg">
<path d="M14 3.33333L8 0.666668L2 3.33333V7.33333C2 11.0333 4.56 14.4933 8 15.3333C9.53333 14.96 10.8867 14.0667 11.92 12.86L9.84 10.78C9.19912 11.2036 8.43148 11.3925 7.66722 11.3147C6.90295 11.237 6.1891 10.8973 5.64667 10.3533C5.02225 9.72798 4.67154 8.88039 4.67154 7.99667C4.67154 7.11295 5.02225 6.26535 5.64667 5.64C6.27202 5.01559 7.11962 4.66487 8.00333 4.66487C8.88705 4.66487 9.73465 5.01559 10.36 5.64C10.9026 6.18321 11.2414 6.89692 11.3191 7.66079C11.3968 8.42466 11.2088 9.19196 10.7867 9.83333L12.72 11.7667C13.5267 10.46 14 8.92 14 7.33333V3.33333Z" fill="#0076AB"/>
<path d="M8 10C9.10457 10 10 9.10457 10 8C10 6.89543 9.10457 6 8 6C6.89543 6 6 6.89543 6 8C6 9.10457 6.89543 10 8 10Z" fill="#0076AB"/>
</svg>
