<svg width="12" height="12" viewBox="0 0 12 12" fill="none" xmlns="http://www.w3.org/2000/svg">
<path d="M0 6C0 7.10267 0.897333 8 2 8C2.52933 8 3.008 7.79 3.366 7.45333L7.36 9.736C7.348 9.82267 7.33333 9.90933 7.33333 10C7.33333 11.1027 8.23067 12 9.33333 12C10.436 12 11.3333 11.1027 11.3333 10C11.3333 8.89733 10.436 8 9.33333 8C8.804 8 8.32533 8.21 7.96733 8.54667L3.97333 6.26467C3.98533 6.17733 4 6.09067 4 6C4 5.90933 3.98533 5.82267 3.97333 5.73533L7.96733 3.45333C8.32533 3.79 8.804 4 9.33333 4C10.436 4 11.3333 3.10267 11.3333 2C11.3333 0.897333 10.436 0 9.33333 0C8.23067 0 7.33333 0.897333 7.33333 2C7.33333 2.09067 7.348 2.17733 7.36 2.26467L3.366 4.54667C2.99734 4.19645 2.50849 4.00082 2 4C0.897333 4 0 4.89733 0 6Z" fill="#0076AB"/>
</svg>
