<svg width="14" height="14" viewBox="0 0 14 14" fill="none" xmlns="http://www.w3.org/2000/svg">
<path d="M7.00004 0.333328C3.32404 0.333328 0.333374 3.324 0.333374 7C0.333374 10.676 3.32404 13.6667 7.00004 13.6667C10.676 13.6667 13.6667 10.676 13.6667 7C13.6667 3.324 10.676 0.333328 7.00004 0.333328ZM7.66671 11H6.33337V9.66666H7.66671V11ZM8.31737 7.74333C8.18671 7.84866 8.06071 7.94933 7.96071 8.04933C7.68871 8.32066 7.66737 8.56733 7.66671 8.578V8.66666H6.33337V8.55533C6.33337 8.47666 6.35271 7.77066 7.01737 7.106C7.14737 6.976 7.30871 6.844 7.47804 6.70666C7.96737 6.31 8.28871 6.02066 8.28871 5.62199C8.28096 5.28521 8.14171 4.96483 7.90075 4.72941C7.65979 4.49399 7.33626 4.36222 6.99938 4.36231C6.66251 4.3624 6.33904 4.49433 6.0982 4.72987C5.85737 4.96542 5.71828 5.28587 5.71071 5.62266H4.37737C4.37737 4.17666 5.55404 2.99999 7.00004 2.99999C8.44604 2.99999 9.62271 4.17666 9.62271 5.62266C9.62271 6.68733 8.83671 7.32266 8.31737 7.74333Z" fill="#0076AB"/>
</svg>
