<svg width="14" height="16" viewBox="0 0 14 16" fill="none" xmlns="http://www.w3.org/2000/svg">
<path d="M4.15467 0C3.04712 0.00195777 1.94015 0.050445 0.83667 0.145333V16C1.63625 15.8238 2.44082 15.6711 3.24934 15.542C3.36267 15.5233 3.476 15.5067 3.58867 15.49C3.732 15.468 3.87534 15.446 4.018 15.426L4.15467 15.406V0ZM4.94134 0.002V15.3067C7.67018 14.9818 10.4249 14.9343 13.1633 15.1647V0.99C10.4635 0.381103 7.70853 0.0500452 4.94134 0.002ZM6.07934 1.20867C6.08267 1.20862 6.086 1.20862 6.08934 1.20867C8.12934 1.26733 10.1727 1.478 12.2007 1.842C12.2516 1.85116 12.3001 1.87026 12.3436 1.89821C12.3871 1.92616 12.4247 1.9624 12.4541 2.00488C12.4836 2.04736 12.5044 2.09522 12.5154 2.14575C12.5263 2.19627 12.5272 2.24846 12.518 2.29933C12.5017 2.38863 12.455 2.46954 12.3859 2.52835C12.3168 2.58715 12.2294 2.62024 12.1387 2.622C12.1128 2.62255 12.0869 2.62054 12.0613 2.616C10.0813 2.2602 8.07755 2.05274 6.06667 1.99533C6.01501 1.99387 5.96415 1.98223 5.91698 1.9611C5.86982 1.93996 5.82729 1.90974 5.79181 1.87216C5.75634 1.83458 5.72861 1.79038 5.71023 1.74208C5.69184 1.69378 5.68316 1.64233 5.68467 1.59067C5.6878 1.48821 5.73079 1.39102 5.80451 1.3198C5.87823 1.24857 5.97683 1.20894 6.07934 1.20933V1.20867ZM3.27134 1.22733C3.37144 1.22928 3.46704 1.26933 3.53863 1.33932C3.61023 1.40931 3.65245 1.50397 3.65667 1.604C3.66101 1.70812 3.62385 1.80971 3.55335 1.88645C3.48285 1.9632 3.38478 2.00883 3.28067 2.01333C2.75676 2.03499 2.23332 2.067 1.71067 2.10933C1.7018 2.11008 1.6929 2.11052 1.684 2.11067C1.58443 2.11184 1.48811 2.0752 1.41449 2.00814C1.34087 1.94108 1.29543 1.84859 1.28734 1.74933C1.27904 1.64548 1.31229 1.54258 1.37978 1.46321C1.44728 1.38385 1.5435 1.3345 1.64734 1.326C2.18067 1.28267 2.714 1.25 3.248 1.22733C3.25578 1.2271 3.26356 1.2271 3.27134 1.22733ZM6.07267 3.11667C6.076 3.11662 6.07934 3.11662 6.08267 3.11667C8.13023 3.14183 10.173 3.32011 12.194 3.65C12.245 3.65826 12.2939 3.67649 12.3378 3.70365C12.3818 3.73081 12.42 3.76636 12.4502 3.80827C12.4804 3.85018 12.502 3.89764 12.5139 3.94792C12.5258 3.99821 12.5276 4.05034 12.5193 4.10133C12.5038 4.1956 12.4546 4.28101 12.3807 4.34162C12.3069 4.40222 12.2135 4.43387 12.118 4.43067C12.101 4.43043 12.0841 4.42909 12.0673 4.42667C10.0854 4.10273 8.08206 3.92758 6.074 3.90267C6.02235 3.90214 5.9713 3.89145 5.92378 3.8712C5.87626 3.85095 5.83319 3.82154 5.79704 3.78464C5.76089 3.74774 5.73235 3.70409 5.71307 3.65616C5.69379 3.60824 5.68414 3.55699 5.68467 3.50533C5.68588 3.40274 5.72712 3.30468 5.79961 3.23207C5.87209 3.15946 5.97008 3.11805 6.07267 3.11667ZM3.26534 3.18133C3.36539 3.18167 3.46156 3.22012 3.53426 3.28885C3.60696 3.35759 3.65073 3.45146 3.65667 3.55133C3.6625 3.65525 3.6269 3.75725 3.55767 3.83497C3.48845 3.9127 3.39124 3.95981 3.28734 3.966C2.76334 3.99667 2.23934 4.03733 1.71667 4.08867C1.70781 4.08964 1.69891 4.0903 1.69 4.09067C1.59046 4.09332 1.49362 4.05813 1.41901 3.99218C1.34441 3.92623 1.29759 3.83445 1.288 3.73533C1.27797 3.63155 1.30955 3.52804 1.3758 3.44753C1.44206 3.36703 1.53757 3.31612 1.64134 3.306C2.17467 3.254 2.70734 3.21267 3.24134 3.18133C3.24933 3.18109 3.25734 3.18109 3.26534 3.18133ZM6.06667 5.02333C6.07 5.02329 6.07334 5.02329 6.07667 5.02333C8.11667 5.01467 10.16 5.15933 12.188 5.45667C12.2391 5.46417 12.2883 5.48168 12.3327 5.5082C12.377 5.53471 12.4157 5.56971 12.4466 5.61119C12.4774 5.65267 12.4998 5.69983 12.5124 5.74996C12.525 5.80008 12.5276 5.8522 12.52 5.90333C12.5061 5.99777 12.4583 6.08394 12.3856 6.14576C12.3129 6.20758 12.2201 6.24084 12.1247 6.23933C12.1077 6.23909 12.0908 6.23776 12.074 6.23533C10.0892 5.94379 8.08539 5.80161 6.07934 5.81C6.02768 5.81018 5.9765 5.80018 5.92871 5.78057C5.88092 5.76097 5.83746 5.73214 5.80082 5.69574C5.76417 5.65934 5.73505 5.61608 5.71512 5.56842C5.69519 5.52077 5.68484 5.46965 5.68467 5.418C5.68428 5.31539 5.72401 5.21668 5.79537 5.14295C5.86674 5.06921 5.9641 5.02629 6.06667 5.02333ZM6.83534 6.92067C8.62316 6.91764 10.4092 7.03233 12.182 7.264C12.2853 7.27746 12.379 7.33134 12.4427 7.41383C12.5063 7.49632 12.5346 7.60067 12.5213 7.704C12.509 7.79885 12.4626 7.88596 12.3906 7.94903C12.3187 8.01211 12.2263 8.04681 12.1307 8.04667C12.1137 8.04665 12.0968 8.04553 12.08 8.04333C10.0933 7.78401 8.08984 7.67437 6.08667 7.71533C6.03501 7.71648 5.98364 7.70745 5.93547 7.68874C5.88731 7.67002 5.84331 7.64201 5.80598 7.60629C5.76864 7.57056 5.73872 7.52784 5.7179 7.48054C5.69709 7.43325 5.6858 7.38232 5.68467 7.33067C5.68352 7.27896 5.69258 7.22752 5.71133 7.17932C5.73008 7.13111 5.75816 7.08708 5.79395 7.04974C5.82975 7.0124 5.87255 6.98249 5.91992 6.96171C5.96729 6.94093 6.01829 6.92971 6.07 6.92867C6.32467 6.92333 6.58 6.92067 6.83534 6.92067ZM7.59467 8.80867C9.12529 8.80984 10.6546 8.89753 12.1753 9.07133C12.2789 9.08305 12.3736 9.13542 12.4386 9.21692C12.5036 9.29842 12.5336 9.4024 12.522 9.506C12.5112 9.60092 12.4662 9.68865 12.3954 9.75281C12.3246 9.81697 12.2329 9.85318 12.1373 9.85467C12.1204 9.85487 12.1035 9.85398 12.0867 9.852C10.0972 9.62548 8.09359 9.54882 6.09267 9.62267C5.98856 9.62627 5.88727 9.58842 5.81103 9.51743C5.73479 9.44644 5.68983 9.3481 5.686 9.244C5.68222 9.13989 5.71989 9.03852 5.79076 8.96216C5.86163 8.88579 5.9599 8.84066 6.064 8.83667C6.574 8.818 7.084 8.80867 7.59467 8.80867Z" fill="#0076AB"/>
</svg>
