<svg width="16" height="18" viewBox="0 0 16 18" fill="none" xmlns="http://www.w3.org/2000/svg">
<path d="M3.625 5.25C3.625 6.41032 4.08594 7.52312 4.90641 8.34359C5.72688 9.16406 6.83968 9.625 8 9.625C9.16032 9.625 10.2731 9.16406 11.0936 8.34359C11.9141 7.52312 12.375 6.41032 12.375 5.25C12.375 4.08968 11.9141 2.97688 11.0936 2.15641C10.2731 1.33594 9.16032 0.875 8 0.875C6.83968 0.875 5.72688 1.33594 4.90641 2.15641C4.08594 2.97688 3.625 4.08968 3.625 5.25ZM14.25 17.125H1.125C0.95924 17.125 0.800269 17.0592 0.683058 16.9419C0.565848 16.8247 0.5 16.6658 0.5 16.5V14.625C0.5 13.7962 0.82924 13.0013 1.41529 12.4153C2.00134 11.8292 2.7962 11.5 3.625 11.5H12.375C13.2038 11.5 13.9987 11.8292 14.5847 12.4153C15.1708 13.0013 15.5 13.7962 15.5 14.625V16.5C15.5 16.6658 15.4342 16.8247 15.3169 16.9419C15.1997 17.0592 15.0408 17.125 14.875 17.125H14.25Z" fill="#0076AB"/>
</svg>
